<?xml version="1.0" encoding="utf-8"?>
<svg xmlns="http://www.w3.org/2000/svg" xmlns:xlink="http://www.w3.org/1999/xlink" style="margin: auto; background: rgb(255, 255, 255); display: block; shape-rendering: auto;" width="221px" height="221px" viewBox="0 0 100 100" preserveAspectRatio="xMidYMid">
<g transform="translate(50 50)">
<g>
<animateTransform attributeName="transform" type="rotate" values="0;25.714285714285715" keyTimes="0;1" dur="0.25s" repeatCount="indefinite"></animateTransform><path d="M29.491524206117255 -5.5 L34.491524206117255 -5.5 L34.491524206117255 5.5 L29.491524206117255 5.5 A30 30 0 0 1 28.957305741848824 7.840564021362825 L28.957305741848824 7.840564021362825 L33.46215008136092 10.009982716950615 L28.689428951067782 19.92064026387722 L24.184584611555685 17.75122156828943 A30 30 0 0 1 22.687737737358255 19.628208180087405 L22.687737737358255 19.628208180087405 L25.805186746651923 23.537365592427555 L17.205040439503595 30.395753412873624 L14.087591430209928 26.486596000533474 A30 30 0 0 1 11.924585027140497 27.52824498456988 L11.924585027140497 27.52824498456988 L13.037189696922068 32.402884545479 L2.3129826629220105 34.85061481899846 L1.2003779931404384 29.97597525808934 A30 30 0 0 1 -1.2003779931404346 29.97597525808934 L-1.2003779931404346 29.97597525808934 L-2.3129826629220065 34.85061481899846 L-13.037189696922065 32.402884545479 L-11.924585027140493 27.52824498456988 A30 30 0 0 1 -14.08759143020992 26.486596000533478 L-14.08759143020992 26.486596000533478 L-17.205040439503588 30.395753412873628 L-25.805186746651923 23.53736559242755 L-22.687737737358255 19.6282081800874 A30 30 0 0 1 -24.184584611555678 17.75122156828944 L-24.184584611555678 17.75122156828944 L-28.689428951067775 19.92064026387723 L-33.46215008136092 10.009982716950613 L-28.957305741848824 7.840564021362822 A30 30 0 0 1 -29.491524206117255 5.500000000000009 L-29.491524206117255 5.500000000000009 L-34.491524206117255 5.50000000000001 L-34.491524206117255 -5.500000000000001 L-29.491524206117255 -5.500000000000002 A30 30 0 0 1 -28.957305741848828 -7.840564021362815 L-28.957305741848828 -7.840564021362815 L-33.462150081360925 -10.009982716950605 L-28.68942895106778 -19.920640263877225 L-24.18458461155568 -17.751221568289434 A30 30 0 0 1 -22.687737737358262 -19.628208180087398 L-22.687737737358262 -19.628208180087398 L-25.80518674665193 -23.537365592427548 L-17.205040439503595 -30.395753412873624 L-14.087591430209926 -26.486596000533474 A30 30 0 0 1 -11.924585027140505 -27.528244984569877 L-11.924585027140505 -27.528244984569877 L-13.037189696922079 -32.402884545479 L-2.312982662922008 -34.85061481899846 L-1.2003779931404353 -29.97597525808934 A30 30 0 0 1 1.2003779931404241 -29.97597525808934 L1.2003779931404241 -29.97597525808934 L2.3129826629219954 -34.85061481899846 L13.037189696922066 -32.402884545479 L11.924585027140495 -27.52824498456988 A30 30 0 0 1 14.087591430209917 -26.48659600053348 L14.087591430209917 -26.48659600053348 L17.205040439503584 -30.39575341287363 L25.80518674665192 -23.537365592427555 L22.687737737358255 -19.628208180087405 A30 30 0 0 1 24.184584611555675 -17.751221568289445 L24.184584611555675 -17.751221568289445 L28.689428951067768 -19.920640263877235 L33.46215008136092 -10.009982716950617 L28.957305741848824 -7.840564021362825 A30 30 0 0 1 29.491524206117255 -5.500000000000013 M0 -6A6 6 0 1 0 0 6 A6 6 0 1 0 0 -6" fill="#d10b18"></path></g></g>
</svg>