<?xml version="1.0" encoding="UTF-8"?><svg id="Capa_1" xmlns="http://www.w3.org/2000/svg" viewBox="0 0 21 21"><defs><style>.cls-1{fill:#575756;}.cls-2{fill:#b2b2b2;}.cls-3{fill:#be1622;}.cls-4{fill:#706f6f;}.cls-5{fill:none;}</style></defs><path class="cls-3" d="m19.94,1.06v18.89H1.06V1.06h18.89M21,0H0v21h21V0h0Z"/><g><path class="cls-4" d="m8.29,8.08s-.06,0-.09,0l.04-.04.04.05Z"/><path class="cls-4" d="m9.18,7.34l-.8.75-.05.04-.05-.05s-.06,0-.09,0c-.1,0-.21-.01-.32-.01-.56,0-1.09.09-1.59.27l-1.99-2.13c-.16-.18-.15-.45.02-.62l1.16-1.08c.18-.16.45-.15.62.02l2.55,2.73.26-.24c.05-.05.14-.05.19,0l.09.1c.06.06.06.17,0,.23Z"/></g><line class="cls-5" x1="12.86" y1="18.08" x2="11.31" y2="16.49"/><line class="cls-5" x1="4.45" y1="9.48" x2="3.47" y2="8.48"/><path class="cls-4" d="m14.03,8.68c-.34.32-.42.84-.2,1.25.05.09.1.15.16.21.02.02.05.05.08.07.08.17.05.38-.1.52l-1.29,1.2c-.38-1.75-1.7-3.15-3.39-3.66l1.29-1.19c.1-.1.21-.12.29-.12s.15.02.22.06c.02.04.05.08.09.11.06.06.12.11.2.15.16.1.36.16.54.16.26,0,.51-.1.7-.27l3.7-3.45c.19-.18.44-.28.7-.28.29,0,.56.12.76.33.39.42.36,1.08-.05,1.47l-3.7,3.44Z"/><path class="cls-1" d="m12.8,12.98c0,1.38-.57,2.62-1.49,3.52l-.42-.43-.15-.15c.33-.34.6-.74.79-1.18-.03-.02-.07-.03-.11-.05-.1-.04-.2-.08-.3-.1,0,0-.01,0-.02,0-.04-.02-.05-.06-.04-.09.02-.04.06-.05.09-.04,0,0,.01,0,.02,0,.09.05.19.1.29.14.04.01.07.03.11.04.18-.45.29-.95.29-1.46-.04,0-.08,0-.11,0-.11,0-.21,0-.32.02,0,0-.01,0-.02,0-.04,0-.07-.03-.07-.07s.03-.07.07-.07c0,0,.01,0,.02,0,.1.01.21.02.32.02.04,0,.08,0,.11,0,0-.5-.1-.99-.28-1.43-.04.01-.07.03-.11.04-.1.04-.2.09-.29.14,0,0-.01,0-.02.01-.04.02-.08,0-.09-.04-.02-.04,0-.08.04-.09,0,0,.01,0,.02,0,.1-.03.2-.06.3-.1.04-.02.07-.03.11-.05-.2-.47-.48-.89-.83-1.24-.03.03-.06.05-.08.08-.08.08-.15.16-.21.24,0,0,0,.01-.01.02-.03.03-.07.03-.1,0-.03-.03-.03-.07,0-.1,0,0,0,0,.02-.01.08-.07.16-.13.24-.21.03-.03.05-.05.08-.08-.35-.34-.76-.62-1.21-.81-.02.03-.03.07-.05.11-.04.1-.08.2-.11.3,0,0,0,.01,0,.02-.02.04-.06.05-.09.04-.04-.01-.05-.06-.04-.09,0,0,0-.01.01-.02.05-.09.1-.19.14-.29.02-.04.03-.07.04-.11-.45-.18-.95-.29-1.46-.29,0,.04,0,.08,0,.12,0,.11,0,.21.02.32,0,0,0,.01,0,.02,0,.04-.03.07-.07.07s-.07-.03-.07-.07c0,0,0-.01,0-.02.01-.1.02-.21.02-.32,0-.04,0-.08,0-.12-.5,0-.99.1-1.43.28.01.04.03.07.04.11.04.1.09.2.14.29,0,0,0,.01.01.02.01.04,0,.08-.04.09-.04.02-.08,0-.09-.04,0,0,0-.01,0-.02-.03-.1-.06-.2-.1-.3-.01-.03-.03-.07-.05-.11-.43.18-.81.43-1.15.74l-.15-.15-.49-.5c.52-.51,1.15-.9,1.85-1.14.5-.17,1.04-.27,1.59-.27.11,0,.21,0,.32.01.03,0,.06,0,.09,0l.05.05.05-.04c.31.03.62.09.91.18,1.7.51,3.01,1.91,3.39,3.66.07.34.11.69.11,1.05Z"/><path class="cls-1" d="m8.38,8.09l-.05.04-.05-.05s.06,0,.09,0Z"/><g><path class="cls-1" d="m11.86,13.06c.07,0,.15-.01.22-.02,0-.52-.11-1.02-.29-1.48-.07.02-.14.04-.21.07.18.44.27.93.28,1.43Zm-.29,1.57c.07.02.14.05.2.07,0-.01.01-.02.02-.04,0,0,0,0,0-.01.01-.03.02-.05.03-.08,0,0,0,0,0,0,.01-.03.02-.06.03-.09.02-.05.03-.09.05-.14.02-.06.03-.12.05-.19.02-.06.03-.12.04-.19.05-.25.08-.51.08-.78-.07,0-.14-.01-.22-.02,0,.52-.11,1.01-.29,1.46Zm-.03-3.09s.05-.02.07-.03c.02,0,.04-.02.05-.03.02-.01.05-.03.07-.04-.21-.48-.5-.92-.85-1.28-.06.04-.11.09-.17.14.35.36.63.78.83,1.24Zm-.8,4.38s-.02.02-.02.02c.05.05.11.1.17.14,0,0,0,0,0-.01.04-.05.08-.09.13-.14.29-.33.53-.7.71-1.1-.06-.04-.13-.07-.19-.1-.19.44-.46.84-.79,1.18Zm.04-5.86c-.23-.22-.47-.41-.75-.58-.16-.1-.33-.19-.5-.26-.03.06-.06.11-.09.17,0,0,0,.01-.01.02.45.2.86.48,1.21.81.05-.05.1-.11.14-.17Zm-1.38,6.78s.02.05.04.08c.02.04.04.08.06.12.29-.12.56-.28.81-.46.03-.02.07-.05.1-.07,0,0,.02-.01.03-.02.03-.02.06-.05.09-.07.04-.03.08-.07.12-.1.05-.04.1-.09.14-.13-.04-.06-.09-.11-.14-.17-.36.35-.78.63-1.24.83Zm-.27-7.77s-.09-.03-.14-.04c-.05-.01-.09-.03-.14-.04-.04-.01-.09-.02-.13-.03,0,0-.01,0-.02,0-.04-.01-.09-.02-.13-.03-.05,0-.1-.02-.14-.02-.05,0-.1-.01-.15-.02-.13-.02-.26-.02-.4-.03h0s0,.06,0,.08c0,.01,0,.03,0,.04,0,.03,0,.06,0,.09.52,0,1.01.11,1.46.29,0-.02.01-.03.02-.05,0-.02.02-.05.02-.08,0-.03.02-.05.02-.08-.09-.03-.18-.07-.27-.1Zm.17,7.83s0,0,0-.02c-.44.17-.93.27-1.43.28,0,.07,0,.14.02.21.52,0,1.02-.11,1.48-.29h0s-.02-.07-.03-.1c0-.03-.02-.06-.03-.09Zm-1.56-8.03c-.52,0-1.02.11-1.48.29.01.03.02.07.03.1,0,.03.02.06.03.09h0c.44-.16.93-.26,1.43-.27,0-.04,0-.07,0-.11,0-.04,0-.07-.01-.11Zm-1.51,8.21c.06.02.12.05.18.07.06.02.12.04.18.06.06.02.12.03.19.05.05.01.09.02.14.03,0,0,0,0,0,0,.07.02.14.03.22.04.02,0,.03,0,.05,0,.08.01.17.02.26.03.1,0,.2.01.3.01,0-.07.01-.14.02-.21-.52,0-1.01-.11-1.46-.29-.03.07-.05.14-.07.2Zm-1.38-.89c.36.35.78.63,1.25.84.04-.06.07-.13.1-.19-.45-.2-.86-.47-1.21-.81-.05.05-.1.11-.14.17Zm.23-6.04c.34-.31.73-.56,1.15-.74-.03-.07-.06-.13-.1-.19-.14.06-.28.13-.41.2-.03.02-.06.04-.1.06-.02,0-.03.02-.05.03-.04.02-.08.05-.12.07-.01,0-.03.02-.04.03-.04.02-.07.05-.1.07-.03.02-.07.05-.1.07,0,0-.02.02-.03.02-.04.03-.08.06-.12.1,0,0,0,0-.01,0-.04.03-.08.07-.12.1,0,0,0,0-.01.01-.03.02-.05.05-.08.07.04.06.09.11.14.16.03-.03.06-.06.09-.08Zm-.16.16c-.05-.05-.11-.1-.17-.14-.12.13-.24.26-.34.4-.03.04-.06.08-.08.12-.02.03-.04.06-.06.09-.03.05-.07.1-.1.15-.02.04-.05.07-.06.11,0,0,0,0,0,0-.01.02-.03.05-.04.08,0,0,0,0,0,.01-.02.04-.04.07-.06.11-.03.06-.06.11-.08.17.06.04.12.07.19.1.2-.45.47-.86.81-1.21Zm-.83,4.4s-.03.01-.04.02c-.03.01-.05.02-.07.04-.03.01-.05.03-.07.04.21.48.5.91.85,1.28.06-.04.11-.09.17-.14-.35-.36-.63-.78-.83-1.24Zm-.32-1.63c0-.52.11-1.01.29-1.46-.03-.01-.07-.02-.1-.03-.03-.01-.07-.02-.1-.03h0s-.02.06-.03.09c-.01.03-.02.06-.03.09,0,.03-.02.06-.03.09-.02.07-.04.13-.06.2-.01.06-.03.11-.04.17-.02.07-.03.14-.04.21,0,.04-.01.07-.02.11-.02.11-.03.22-.04.33,0,.04,0,.07,0,.11,0,.04,0,.07,0,.11.03,0,.07,0,.1,0,.04,0,.08,0,.11,0Zm0,.1s-.06,0-.09,0c-.04,0-.08,0-.13.01,0,.13,0,.26.02.39h0c0,.1.02.19.04.28h0s.02.09.03.14c.01.07.03.13.05.2,0,.03.02.07.03.1,0,.02.01.05.02.07,0,.03.02.06.03.08,0,.02.02.05.02.07.01.04.03.07.04.11,0,.01,0,.03.02.04.07-.02.14-.04.2-.06-.17-.44-.27-.93-.28-1.43Z"/><path class="cls-2" d="m11.43,13.18s-.01,0-.02,0c-.04,0-.07-.03-.07-.07s.03-.07.07-.07c0,0,.01,0,.02,0,.1.01.21.02.32.02.04,0,.08,0,.11,0,0-.5-.1-.99-.28-1.43-.04.01-.07.03-.11.04-.1.04-.2.09-.29.14,0,0-.01,0-.02.01-.04.02-.08,0-.09-.04-.02-.04,0-.08.04-.09,0,0,.01,0,.02,0,.1-.03.2-.06.3-.1.04-.02.07-.03.11-.05-.2-.47-.48-.89-.83-1.24-.03.03-.06.05-.08.08-.08.08-.15.16-.21.24,0,0,0,.01-.01.02-.03.03-.07.03-.1,0-.03-.03-.03-.07,0-.1,0,0,0,0,.02-.01.08-.07.16-.13.24-.21.03-.03.05-.05.08-.08-.35-.34-.76-.62-1.21-.81-.02.03-.03.07-.05.11-.04.1-.08.2-.11.3,0,0,0,.01,0,.02-.02.04-.06.05-.09.04-.04-.01-.05-.06-.04-.09,0,0,0-.01.01-.02.05-.09.1-.19.14-.29.02-.04.03-.07.04-.11-.45-.18-.95-.29-1.46-.29,0,.04,0,.08,0,.12,0,.11,0,.21.02.32,0,0,0,.01,0,.02,0,.04-.03.07-.07.07s-.07-.03-.07-.07c0,0,0-.01,0-.02.01-.1.02-.21.02-.32,0-.04,0-.08,0-.12-.5,0-.99.1-1.43.28.01.04.03.07.04.11.04.1.09.2.14.29,0,0,0,.01.01.02.01.04,0,.08-.04.09-.04.02-.08,0-.09-.04,0,0,0-.01,0-.02-.03-.1-.06-.2-.1-.3-.01-.03-.03-.07-.05-.11-.43.18-.81.43-1.15.74-.03.03-.06.05-.09.08.03.03.05.06.08.08.08.08.16.15.24.21,0,0,.01,0,.02.01.03.03.03.07,0,.1s-.07.03-.1,0c0,0,0-.01-.01-.02-.07-.08-.14-.16-.21-.24-.03-.03-.06-.05-.08-.08-.34.35-.62.76-.81,1.21.03.02.07.03.11.05.1.04.2.08.3.1,0,0,.01,0,.02,0,.04.02.05.06.04.09-.02.04-.06.05-.09.04,0,0-.01,0-.02-.01-.09-.05-.19-.1-.28-.14-.04-.01-.07-.03-.11-.04-.18.45-.29.95-.29,1.46.04,0,.08,0,.12,0,.11,0,.21,0,.32-.02,0,0,.01,0,.02,0,.04,0,.07.03.07.07s-.03.07-.07.07c0,0-.01,0-.02,0-.1-.01-.21-.02-.32-.02-.04,0-.08,0-.12,0,0,.5.1.99.28,1.43.04-.01.07-.03.11-.04.1-.04.2-.09.29-.14,0,0,.01,0,.02-.01.04-.02.08,0,.09.04.01.04,0,.08-.04.09,0,0-.01,0-.02,0-.1.03-.2.06-.3.1-.04.02-.07.03-.11.05.2.47.48.89.83,1.24.03-.02.06-.05.08-.08.08-.08.15-.16.21-.24,0,0,0-.01.01-.02.03-.03.07-.03.1,0,.03.03.03.07,0,.1,0,0-.01,0-.02.01-.08.07-.16.14-.24.21-.03.03-.05.05-.08.08.35.34.76.62,1.21.81.02-.03.03-.07.05-.11.04-.1.08-.2.1-.3,0,0,0-.01,0-.02.02-.04.06-.05.09-.04.04.02.05.06.04.09,0,0,0,.01-.01.02-.05.09-.1.19-.14.29-.01.04-.03.07-.04.11.45.18.95.29,1.46.29,0-.04,0-.08,0-.12,0-.11,0-.21-.02-.32,0,0,0-.01,0-.02,0-.04.03-.07.07-.07s.07.03.07.07c0,0,0,.01,0,.02-.01.1-.02.21-.02.32,0,.04,0,.08,0,.12.51,0,.99-.11,1.43-.28-.01-.04-.03-.07-.04-.11-.04-.1-.09-.2-.14-.29,0,0,0-.01-.01-.02-.02-.04,0-.08.04-.09.04-.02.08,0,.09.04,0,0,0,.01,0,.02.03.1.06.2.1.3.01.04.03.07.05.11.47-.2.88-.48,1.24-.83-.03-.03-.05-.06-.08-.08-.08-.08-.16-.15-.24-.21,0,0-.01,0-.02-.01-.03-.03-.03-.07,0-.1s.07-.03.1,0c0,0,0,.01.01.02.06.08.13.16.21.24.03.03.05.05.08.08,0,0,.02-.02.02-.02.33-.34.6-.74.79-1.18-.03-.02-.07-.03-.11-.05-.1-.04-.2-.08-.3-.1,0,0-.01,0-.02,0-.04-.02-.05-.06-.04-.09.02-.04.06-.05.09-.04,0,0,.01,0,.02,0,.09.05.19.1.29.14.04.01.07.03.11.04.18-.45.29-.95.29-1.46-.04,0-.08,0-.11,0-.11,0-.21,0-.32.02Zm-2.97.4c-.14.2-.38.33-.64.33-.44,0-.8-.36-.8-.8,0-.27.13-.51.34-.65.13-.09.29-.14.46-.14.44,0,.79.36.79.8,0,.18-.06.34-.15.47Z"/><path class="cls-1" d="m9.53,9.21s0,0,0,0h0Z"/><path class="cls-1" d="m11.72,14.82s0,0,0,0h0Z"/><path class="cls-1" d="m3.92,11.4s0,0,0,0h0Z"/><polygon class="cls-1" points="6.11 17.01 6.11 17.01 6.11 17.01 6.11 17.01"/><path class="cls-1" d="m9.53,9.21s0,0,0,0h0Z"/><path class="cls-1" d="m11.72,14.82s0,0,0,0h0Z"/><path class="cls-1" d="m4.93,10.29c-.34.35-.62.76-.81,1.21-.07-.03-.13-.06-.19-.1.03-.06.05-.12.08-.17.02-.04.04-.07.06-.11,0,0,0,0,0-.01.01-.03.03-.05.04-.08,0,0,0,0,0,0,.02-.04.04-.07.06-.11.03-.05.06-.1.1-.15.02-.03.04-.06.06-.09.03-.04.05-.08.08-.12.11-.14.22-.28.34-.4.06.04.11.09.17.14Z"/><path class="cls-1" d="m6.24,9.39c-.43.18-.81.43-1.15.74-.03.03-.06.05-.09.08-.05-.05-.1-.11-.14-.16.03-.02.05-.05.08-.07,0,0,0,0,.01-.01.04-.04.08-.07.12-.1,0,0,0,0,.01,0,.04-.04.08-.07.12-.1,0,0,.02-.02.03-.02.03-.03.07-.05.1-.07.03-.03.07-.05.1-.07.01,0,.03-.02.04-.03.04-.03.08-.05.12-.07.02-.01.03-.02.05-.03.03-.02.06-.04.1-.06.13-.08.27-.14.41-.2.03.06.07.13.1.19Z"/><path class="cls-1" d="m9.4,9.16s-.02.05-.02.08c0,.03-.02.05-.02.08,0,.02-.01.03-.02.05-.45-.18-.95-.29-1.46-.29,0-.03,0-.06,0-.09,0-.01,0-.03,0-.04,0-.03,0-.06,0-.08.13,0,.27,0,.4.02.05,0,.1.01.15.02.05,0,.1.01.14.02.04,0,.09.02.13.03,0,0,.02,0,.02,0,.04.01.09.02.13.03.05.01.09.02.14.04.05.01.09.03.14.04.09.03.18.06.27.1Z"/><path class="cls-1" d="m7.77,9.07c-.5,0-.99.1-1.43.28h0s-.02-.07-.03-.1c-.01-.03-.02-.07-.03-.1.46-.18.96-.28,1.48-.29,0,.04,0,.07.01.11,0,.04,0,.07,0,.11Z"/><path class="cls-1" d="m10.78,10.05c-.04.06-.09.11-.14.17-.35-.34-.76-.62-1.21-.81h0s0-.02.01-.02c.03-.06.06-.11.09-.17.17.08.34.17.5.26.27.16.52.36.75.58Z"/><path class="cls-1" d="m12.08,13.04c-.07,0-.14.01-.22.02,0-.5-.1-.99-.28-1.43.07-.02.14-.05.21-.07.18.46.28.96.29,1.48Z"/><path class="cls-1" d="m11.74,11.43s-.05.03-.07.04c-.02,0-.03.02-.05.03-.02.01-.04.02-.07.03-.2-.47-.48-.89-.83-1.24.05-.05.11-.1.17-.14.36.37.65.8.85,1.28Z"/><path class="cls-1" d="m7.77,17.15c0,.07,0,.14-.02.21-.1,0-.2,0-.3-.01-.09,0-.17-.02-.26-.03-.02,0-.03,0-.05,0-.07-.01-.15-.02-.22-.04,0,0,0,0,0,0-.05,0-.09-.02-.14-.03-.06-.02-.12-.03-.19-.05-.06-.02-.12-.04-.18-.06-.06-.02-.12-.04-.18-.07.02-.07.04-.14.07-.2.45.18.95.29,1.46.29Z"/><path class="cls-1" d="m9.37,17.08c-.46.18-.96.28-1.48.29,0-.07-.01-.14-.02-.21.51,0,.99-.11,1.43-.28,0,0,0,.01,0,.02,0,.03.02.06.03.09.01.03.02.07.03.1Z"/><path class="cls-1" d="m4.07,11.59c-.18.45-.29.95-.29,1.46-.04,0-.08,0-.11,0-.03,0-.07,0-.1,0h0s0-.08,0-.11c0-.04,0-.08,0-.11,0-.11.02-.22.04-.33,0-.04.01-.07.02-.11.01-.07.03-.14.04-.21.01-.06.03-.11.04-.17.02-.07.04-.14.06-.2,0-.03.02-.06.03-.09.01-.03.02-.06.03-.09.01-.03.02-.06.03-.09.03,0,.07.02.1.03.03.01.07.02.1.03Z"/><path class="cls-1" d="m11.72,14.82c-.18.4-.42.78-.71,1.1-.04.05-.08.09-.13.14,0,0,0,0,0,.01-.06-.04-.11-.09-.17-.14,0,0,.02-.02.02-.02.33-.34.6-.74.79-1.18.07.03.13.06.19.1Z"/><path class="cls-1" d="m4.06,14.59c-.07.02-.14.05-.2.06,0-.01-.01-.03-.02-.04-.02-.04-.03-.07-.04-.11,0-.02-.02-.05-.02-.07,0-.03-.02-.06-.03-.08,0-.02-.01-.05-.02-.07-.01-.03-.02-.07-.03-.1-.02-.06-.03-.13-.05-.2,0-.05-.02-.09-.03-.14h0c-.02-.09-.03-.19-.04-.28h0c-.01-.13-.02-.26-.02-.39h0s.08,0,.13-.01c.03,0,.06,0,.09,0,0,.5.1.99.28,1.43Z"/><path class="cls-1" d="m6.21,16.82c-.03.07-.06.13-.1.19-.47-.2-.89-.49-1.25-.84.04-.06.09-.11.14-.17.35.34.76.62,1.21.81Z"/><path class="cls-1" d="m4.93,15.93c-.05.05-.11.1-.17.14-.36-.37-.65-.8-.85-1.28.02-.01.05-.03.07-.04.02-.01.05-.02.07-.04.01,0,.03-.01.04-.02.2.47.48.89.83,1.24Z"/><path class="cls-1" d="m10.78,16.17s-.09.09-.14.13c-.04.03-.08.07-.12.1-.03.02-.06.05-.09.07,0,0-.02.02-.03.02-.03.02-.06.05-.1.07-.25.18-.52.34-.81.46-.02-.04-.04-.08-.06-.12-.01-.02-.03-.05-.04-.08.47-.2.88-.48,1.24-.83.05.05.1.11.14.17Z"/><path class="cls-1" d="m12.08,13.18c0,.27-.03.53-.08.78-.01.06-.03.13-.04.19-.02.06-.03.12-.05.19-.01.05-.03.09-.05.14,0,.03-.02.06-.03.09,0,0,0,0,0,0,0,.03-.02.05-.03.08,0,0,0,0,0,.01,0,.01,0,.02-.01.04h0c-.07-.02-.14-.04-.2-.07.18-.45.29-.95.29-1.46.07,0,.15,0,.22.02Z"/><path class="cls-1" d="m3.92,11.4s0,0,0,0h0Z"/><polygon class="cls-1" points="6.11 17.01 6.11 17.01 6.11 17.01 6.11 17.01"/></g></svg>