<?xml version="1.0" encoding="UTF-8"?><svg id="Capa_1" xmlns="http://www.w3.org/2000/svg" xmlns:xlink="http://www.w3.org/1999/xlink" viewBox="0 0 21 21"><defs><style>.cls-1{stroke-width:0px;}.cls-1,.cls-2,.cls-3,.cls-4,.cls-5,.cls-6{stroke-miterlimit:10;}.cls-1,.cls-2,.cls-3,.cls-6{stroke:#1d1d1b;}.cls-1,.cls-2,.cls-7{fill:#1d1d1b;}.cls-2{stroke-width:0px;}.cls-3{stroke-width:.09px;}.cls-3,.cls-4,.cls-8,.cls-5,.cls-6{fill:none;}.cls-4{stroke:#1e1e1c;}.cls-4,.cls-5{stroke-width:.45px;}.cls-9{fill:#dadada;}.cls-10{clip-path:url(#clippath);}.cls-5{stroke:#010101;}.cls-6{stroke-width:.03px;}</style><clipPath id="clippath"><rect class="cls-8" x=".31" y="-49.9" width="20.41" height="17.91"/></clipPath></defs><g class="cls-10"><g><path class="cls-5" d="m21.24-44.4c1.56.56,2.72,1.12,3.48,1.53,1.25.67,2.81,1.66,3.2,1.9l-.8,1.21s-.02.11.02.15l.51.37h0s-1.17,1.59-1.17,1.59h0c-.1.13-.07.32.06.41.13.1.32.07.41-.06l1.17-1.59.51.37s.11.02.15-.02l.91-1.12c1.31,1.02,2.24,1.91,2.84,2.54.98,1.02,2.16,2.45,2.45,2.8l-1.13.9s-.06.1-.02.15l.37.51h0s-1.6,1.15-1.6,1.15h0c-.13.09-.16.28-.07.41.1.13.28.16.41.07l1.6-1.15.37.51s.1.06.15.02l1.21-.78c.93,1.37,1.54,2.51,1.91,3.29.62,1.27,1.3,3,1.47,3.42l-1.35.51c-.06.02-.09.08-.07.13l.19.6h0s-1.88.6-1.88.6h0c-.16.05-.24.22-.19.37.05.16.22.24.37.19l1.88-.6.19.6c.02.06.08.09.13.07l1.4-.37h0c.46,1.59.69,2.86.8,3.72.19,1.4.31,3.25.34,3.7l-1.44.07c-.06,0-.11.05-.11.1v.63s0,0,0,0h-1.97s0-.01,0-.01c-.16,0-.3.13-.3.29,0,.16.13.3.29.3h1.97s0,.64,0,.64c0,.06.05.11.1.11l1.44.08c-.05,1.66-.23,2.93-.38,3.79-.25,1.39-.71,3.19-.82,3.63l-1.39-.38c-.06-.02-.11.01-.13.07l-.2.6h0s-1.88-.62-1.88-.62h0c-.16-.05-.32.03-.37.19-.05.16.03.32.19.37l1.87.62-.2.6c-.02.06.01.11.07.13l1.34.52c-.56,1.56-1.13,2.72-1.54,3.48-.67,1.25-1.66,2.81-1.9,3.2l-1.21-.8s-.11-.02-.15.02l-.37.51h0s-1.59-1.17-1.59-1.17h0c-.13-.1-.32-.07-.41.06-.1.13-.07.32.06.41l1.59,1.17-.37.51s-.02.11.02.15l1.12.91c-1.02,1.31-1.91,2.24-2.54,2.84-1.02.98-2.45,2.16-2.8,2.45l-.9-1.13s-.1-.06-.15-.02l-.51.37h0s-1.15-1.6-1.15-1.6h0c-.1-.13-.28-.16-.41-.07-.13.1-.16.28-.07.41l1.15,1.6-.51.37s-.06.1-.02.15l.78,1.21c-1.37.93-2.51,1.54-3.29,1.91-1.27.62-3,1.3-3.42,1.47l-.51-1.35c-.02-.06-.08-.09-.13-.07l-.6.19h0s-.6-1.88-.6-1.88h0c-.05-.16-.22-.24-.37-.19-.16.05-.24.22-.19.37l.6,1.88-.6.19c-.06.02-.09.08-.07.13l.37,1.39c-1.59.46-2.86.69-3.72.8-1.4.19-3.25.31-3.7.34l-.07-1.44c0-.06-.05-.11-.1-.11h-.63s0,0,0,0v-1.97s.01,0,.01,0c0-.16-.13-.3-.29-.3-.16,0-.3.13-.3.29v1.97s-.64,0-.64,0c-.06,0-.11.05-.11.1l-.08,1.44c-1.66-.05-2.93-.23-3.79-.39-1.39-.25-3.19-.71-3.63-.82l.38-1.39c.02-.06-.01-.11-.07-.13l-.6-.2h0s.62-1.88.62-1.88h0c.05-.15-.03-.32-.19-.37-.16-.05-.32.03-.37.19l-.62,1.87-.6-.2c-.06-.02-.11.01-.13.07l-.52,1.35c-1.56-.56-2.72-1.13-3.48-1.54-1.25-.67-2.81-1.66-3.2-1.9l.8-1.21s.02-.11-.02-.15l-.51-.37h0s1.17-1.59,1.17-1.59h0c.1-.13.07-.32-.06-.41-.13-.1-.32-.07-.41.06l-1.17,1.59-.51-.37s-.11-.02-.15.02l-.91,1.11c-1.31-1.02-2.24-1.91-2.84-2.53-.98-1.02-2.16-2.45-2.45-2.8l1.13-.9s.06-.1.02-.15l-.37-.51h0s1.6-1.15,1.6-1.15h0c.13-.09.16-.28.07-.41-.1-.13-.28-.16-.41-.07l-1.6,1.15-.37-.51s-.1-.06-.15-.02l-1.21.78c-.93-1.37-1.54-2.51-1.92-3.29-.62-1.27-1.3-3-1.47-3.42l1.35-.51c.06-.02.09-.08.07-.13l-.19-.6h0s1.88-.6,1.88-.6h0c.16-.05.24-.22.19-.37-.05-.16-.22-.24-.37-.19l-1.88.6-.19-.6c-.02-.06-.08-.09-.13-.07l-1.39.37c-.46-1.59-.69-2.86-.81-3.72-.19-1.4-.31-3.25-.34-3.7l1.44-.07c.06,0,.11-.05.11-.1v-.63s0,0,0,0h1.97s0,.01,0,.01c.16,0,.3-.13.3-.29,0-.16-.13-.3-.29-.3h-1.97s0-.64,0-.64c0-.06-.05-.11-.1-.11l-1.43-.08c.05-1.66.23-2.93.38-3.79.25-1.39.71-3.19.82-3.63l1.39.38c.06.02.11-.01.13-.07l.2-.6h0s1.88.62,1.88.62h0c.16.05.32-.03.37-.19.05-.16-.03-.32-.19-.37l-1.87-.62.2-.6c.02-.06-.01-.11-.07-.13l-1.34-.52c.56-1.56,1.12-2.72,1.53-3.48.67-1.25,1.66-2.81,1.9-3.2l1.21.8s.11.02.15-.02l.37-.51h0s1.59,1.17,1.59,1.17h0c.13.1.32.07.41-.06.1-.13.07-.32-.06-.41l-1.59-1.17.37-.51s.02-.11-.02-.15l-1.11-.91c1.02-1.31,1.91-2.24,2.53-2.84,1.02-.98,2.45-2.16,2.8-2.45l.9,1.13s.1.06.15.02l.51-.37h0s1.15,1.6,1.15,1.6h0c.1.13.28.16.41.07.13-.1.16-.28.07-.41l-1.15-1.6.51-.37s.06-.1.02-.15l-.78-1.21c1.37-.93,2.51-1.54,3.29-1.91,1.27-.62,3-1.3,3.42-1.47l.51,1.35c.02.06.08.09.13.07l.6-.19h0s.6,1.88.6,1.88h0c.05.16.22.24.37.19.16-.05.24-.22.19-.37l-.6-1.88.6-.19c.06-.02.09-.08.07-.13l-.37-1.39c1.59-.46,2.86-.69,3.72-.81,1.4-.19,3.25-.31,3.7-.34l.07,1.44c0,.06.05.11.1.11h.63s0,0,0,0v1.97s-.01,0-.01,0c0,.16.13.3.29.3.16,0,.3-.13.3-.29v-1.97s.64,0,.64,0c.06,0,.11-.05.11-.1l.08-1.43c1.66.05,2.93.23,3.79.38,1.39.25,3.19.71,3.63.82l-.38,1.39c-.02.06.01.11.07.13l.6.2h0s-.62,1.88-.62,1.88h0c-.05.15.03.32.19.37.16.05.32-.03.37-.19l.62-1.87.6.2c.06.02.11-.01.13-.07l.52-1.34Z"/><path class="cls-4" d="m1.96,14.49c.13.04.22.11.22.25v.04s-.1,1.93-.1,1.93c0,0,1.68.41,2.53.57h0s.73-1.77.73-1.77c.04-.12.15-.21.28-.21.16,0,.3.13.3.3l.07,1.91c.83.12,2.52.25,2.52.25l.59-1.9h0c.04-.12.15-.2.28-.2"/><path class="cls-4" d="m11.59,15.66c.13,0,.24.04.28.17v.04s.51,1.87.51,1.87c0,0,1.72-.13,2.58-.24h0s.15-1.92.15-1.92c0-.13.08-.25.2-.29.16-.05.32.04.37.19l.66,1.79c.83-.15,2.47-.54,2.47-.54l-.03-1.99h0c0-.12.08-.24.2-.28"/></g></g><path class="cls-7" d="m19.94,1.06v18.89H1.06V1.06h18.89M21,0H0v21h21V0h0Z"/><g><g><path class="cls-3" d="m11.24,19.41h-1.83l-.04-1.93c.02-.25-.04-.39-.1-.47-.03-.05-.11-.15-.19-.31,0,0-.02-.04-.04-.08-.07-.15-.08-.77,0-1.6l.25-.98v-2.72c0-.09-.02-.24-.1-.4-.05-.1-.11-.17-.15-.21v-1.82c.03-.07.06-.14.09-.23.07-.24.08-.45.07-.6.02-.04.05-.08.07-.14.04-.12.04-.23.03-.29v-2.4c0-.13-.01-.24-.03-.32-.03-.16-.07-.22-.1-.25-.03-.03-.07-.05-.09-.07v-1.76s.01-.07.04-.11c.03-.04.06-.07.06-.07.04-.04.08-.19.06-.65.02-.01.08-.05.12-.12.04-.07.04-.14.03-.17.02-.05.04-.11.06-.19.01-.08.01-.15,0-.2h1.72c0,.05,0,.12,0,.2.01.08.03.14.06.19,0,.03,0,.09.03.17.04.07.09.11.12.12-.02.46.01.61.06.65,0,0,.04.03.06.07.02.04.03.08.04.11v1.76s-.06.03-.09.07c-.03.03-.07.09-.1.25-.02.08-.03.19-.03.32v2.4c0,.06-.01.17.03.29.02.06.05.1.07.14-.01.15,0,.37.07.6.03.09.06.16.09.23v1.82s-.11.12-.15.21c-.08.16-.1.31-.1.4v2.72l.25.98c.08.83.07,1.45,0,1.6-.02.04-.04.08-.04.08-.08.17-.16.27-.19.31-.06.09-.11.23-.1.47l-.04,1.93h-1.83"/><line class="cls-6" x1="9.44" y1="1.82" x2="11.3" y2="1.83"/><rect class="cls-9" x="9.13" y="2.8" width="2.37" height="1.44"/><line class="cls-6" x1="9.2" y1="4.56" x2="11.48" y2="4.56"/><rect class="cls-9" x="9.09" y="9.03" width="2.45" height="1.44"/><rect class="cls-9" x="9.04" y="15.06" width="2.54" height="1.44"/><line class="cls-6" x1="9.32" y1="7.97" x2="11.34" y2="7.97"/><line class="cls-6" x1="9.09" y1="8.86" x2="11.58" y2="8.86"/><line class="cls-6" x1="9.05" y1="10.68" x2="11.59" y2="10.68"/><line class="cls-6" x1="9.32" y1="14.08" x2="11.33" y2="14.08"/><line class="cls-6" x1="9.2" y1="16.89" x2="11.4" y2="16.89"/><line class="cls-6" x1="9.25" y1="2.61" x2="11.4" y2="2.61"/></g><line class="cls-2" x1="9.37" y1="11.18" x2="11.33" y2="11.18"/><line class="cls-2" x1="9.3" y1="11.58" x2="11.33" y2="11.58"/><line class="cls-2" x1="9.3" y1="12.08" x2="11.33" y2="12.08"/><line class="cls-2" x1="9.32" y1="12.7" x2="11.34" y2="12.7"/><line class="cls-2" x1="9.3" y1="13.13" x2="11.33" y2="13.13"/><line class="cls-2" x1="9.3" y1="13.55" x2="11.33" y2="13.55"/><line class="cls-2" x1="9.4" y1="5.2" x2="11.36" y2="5.2"/><line class="cls-2" x1="9.33" y1="5.59" x2="11.36" y2="5.59"/><line class="cls-2" x1="9.33" y1="6.1" x2="11.36" y2="6.1"/><line class="cls-2" x1="9.35" y1="6.72" x2="11.37" y2="6.72"/><line class="cls-2" x1="9.33" y1="7.15" x2="11.36" y2="7.15"/><line class="cls-2" x1="9.33" y1="7.57" x2="11.36" y2="7.57"/><line class="cls-1" x1="9.4" y1="17.13" x2="11.25" y2="17.13"/><line class="cls-1" x1="9.34" y1="17.52" x2="11.25" y2="17.52"/><line class="cls-1" x1="9.34" y1="18.03" x2="11.25" y2="18.03"/><line class="cls-1" x1="9.35" y1="18.65" x2="11.26" y2="18.65"/><line class="cls-1" x1="9.34" y1="19.08" x2="11.25" y2="19.08"/></g></svg>