<?xml version="1.0" encoding="UTF-8"?><svg id="Capa_1" xmlns="http://www.w3.org/2000/svg" viewBox="0 0 21 21"><defs><style>.cls-1{fill:#be1622;}.cls-2{fill:#706f6f;}.cls-3{stroke-width:.44px;}.cls-3,.cls-4{fill:none;stroke:#b2b2b2;stroke-miterlimit:10;}.cls-4{stroke-width:.07px;}.cls-5{fill:#1d1d1b;}</style></defs><g><path class="cls-5" d="m18.6,11.09c-.6.25-1.21.5-1.81.74-.18.07-.31.06-.42-.17-.2-.43-.17-.87-.15-1.32.03-.46-.02-.92-.03-1.38,0-.15-.03-.3,0-.44.02-.09.13-.19.22-.23.43-.19.87-.36,1.31-.53.29-.11.58-.18.87-.27v.4c-.15.08-.29.16-.45.22-.38.15-.79.24-1.16.42-.39.19-.41.42-.28.74.05.13.06.28.13.4.17.32.07.86.7.85.35,0,.71.08,1.06.12v.46Z"/><path class="cls-5" d="m9.18,9.93c.22-.16.46-.33.71-.51-.12-.32-.24-.66-.36-.99-.26-.7-.49-1.41-.78-2.1-.23-.54-.06-1.09-.09-1.64-.02-.33,0-.67,0-1.01,0-.24.16-.46.36-.47.17,0,.3.19.3.43,0,.66-.03,1.31-.02,1.97,0,.21.05.42.12.61.1.31.24.6.36.9.08.2.14.4.21.6.25.66.5,1.32.74,1.98.1.28.2.56.29.85.02.05.03.12,0,.16-.13.24-.66.27-.86.09-.3-.28-.62-.55-.98-.87Z"/><path class="cls-2" d="m16.04,11.71c-.08-.14-.12-.31-.13-.47-.02-.3,0-.6,0-.9,0-.49-.01-.99-.01-1.48,0-.57,0-1.14,0-1.71,0-.32.01-.65,0-.97,0-.11-.03-.24-.09-.31-.22-.26-.46-.54-.84-.2-.01.01-.03.02-.05.02-.54.19-1.09.36-1.63.56-.51.19-1,.4-1.51.59-.04.02-.09.01-.14.02,0-.01,0-.02-.01-.03-.38.17-.76.33-1.14.51-.02.01-.02.12,0,.17.12.34.25.67.37,1.01.16.46.31.92.48,1.37.21.56.45,1.09.66,1.64.21.56.39,1.14.62,1.7.03.07.17.15.22.13.46-.15.94-.35,1.39-.52.53-.2,1.02-.41,1.56-.59.31-.11.38-.24.22-.53Zm-4.49-3.1l1.86-.68.1.28-1.86.68-.1-.28Zm.23.59l1.86-.68.1.28-1.86.68-.1-.28Zm.24.67l1.86-.68.1.28-1.86.68-.1-.28Zm.23.57l1.86-.68.1.28-1.86.68-.1-.28Zm.19.51l1.86-.68.1.28-1.86.68-.1-.28Zm.31.87l-.1-.28,1.86-.68.1.28-1.86.68Z"/><g><path class="cls-4" d="m3.22,11.87c-.29.36-.5.75-.64,1.18.03.01.05.02.08.03.1.03.2.05.3.07.03,0,.05.02.05.05,0,.02,0,.05-.02.06-.02.02-.04.02-.07,0-.11-.04-.22-.08-.33-.12-.03-.01-.04,0-.05.03-.03.12-.06.24-.08.36-.05.29-.07.58-.05.87,0,.03.01.03.04.03.12-.02.24-.03.36-.05.03,0,.06,0,.07.02.01.02.01.05,0,.07,0,.03-.04.04-.06.04-.07,0-.13,0-.2,0-.06,0-.13.01-.19.02.05.45.18.88.38,1.28.01,0,.02,0,.03-.01.1-.06.21-.12.31-.18.03-.02.05-.02.07,0,.02.01.03.04.03.06,0,.03-.02.05-.05.06-.06.03-.13.05-.19.08-.06.03-.11.06-.17.09.22.39.49.73.83,1.02.08-.11.16-.21.23-.32.02-.02.04-.04.07-.03.02,0,.04.02.05.04.01.03,0,.05-.02.07-.04.04-.08.08-.12.12-.05.05-.1.11-.15.17.02.01.03.02.04.03.15.12.31.23.48.32.2.11.41.2.63.28.02,0,.03.01.04-.01.03-.12.06-.23.09-.35,0-.03.02-.05.05-.06.03,0,.05,0,.07.02.02.02.02.05,0,.08-.02.06-.05.12-.07.18-.02.06-.04.13-.06.19.43.12.86.17,1.3.14,0-.01,0-.03,0-.04-.02-.12-.03-.24-.05-.35,0-.03,0-.05.02-.07.02-.02.05-.02.07,0,.02.01.03.04.03.06,0,.07,0,.13,0,.2,0,.06.01.13.02.2.45-.05.88-.18,1.28-.38,0,0,0-.02,0-.02-.06-.11-.12-.21-.19-.32-.02-.03-.03-.05,0-.08.01-.02.04-.03.06-.03.03,0,.05.02.06.05.04.09.08.18.12.27.01.03.03.05.04.08.39-.21.73-.49,1.02-.82-.01-.01-.03-.02-.04-.03-.09-.07-.18-.14-.28-.21-.02-.02-.04-.04-.03-.06,0-.03.02-.05.04-.05.03,0,.05,0,.07.02.04.04.08.08.12.12.06.05.11.1.17.15.03-.04.06-.08.09-.12.23-.31.41-.65.53-1.02.01-.03.01-.05-.03-.06-.11-.03-.23-.06-.34-.08-.04,0-.07-.04-.06-.08,0-.04.04-.06.08-.05.01,0,.02,0,.03.01.11.04.21.07.32.11.03.01.04,0,.05-.03.02-.08.04-.17.06-.25.07-.3.09-.61.07-.92,0-.03,0-.06,0-.1-.13,0-.26.02-.39.05-.03,0-.06,0-.07-.02-.01-.02-.01-.05,0-.07,0-.03.04-.04.07-.04.06,0,.11,0,.17,0,.07,0,.15-.01.22-.02-.05-.46-.18-.88-.38-1.28-.01,0-.02,0-.03.01-.1.06-.21.12-.31.18-.03.02-.05.03-.08,0-.02-.01-.03-.04-.03-.06,0-.03.02-.05.05-.06.06-.02.12-.05.17-.07.06-.03.12-.06.18-.09-.22-.39-.49-.73-.82-1.02-.01.01-.02.02-.02.03-.07.09-.14.19-.21.28-.02.02-.04.04-.07.04-.03,0-.05-.02-.05-.04,0-.03,0-.05.02-.07.04-.04.09-.08.13-.13.05-.05.09-.11.14-.16-.36-.29-.75-.5-1.18-.64-.01.03-.02.06-.03.08-.02.1-.05.2-.07.3,0,.03-.02.05-.05.05-.02,0-.05,0-.06-.02-.02-.02-.02-.04,0-.07.04-.11.08-.22.12-.33.01-.03,0-.04-.03-.05-.08-.02-.17-.04-.25-.06-.32-.07-.65-.09-.98-.07-.03,0-.04.01-.03.04.02.12.03.24.05.36,0,.03,0,.06-.02.07-.02.01-.05.01-.07,0-.03,0-.04-.04-.04-.07,0-.06,0-.12,0-.17,0-.07-.01-.14-.02-.22-.46.05-.88.18-1.3.39.03.04.05.08.07.12.05.07.09.14.14.22.02.03.02.05,0,.07-.01.02-.04.03-.06.03-.03,0-.05-.02-.06-.05,0-.01,0-.03-.02-.04-.05-.1-.1-.21-.15-.31-.39.22-.73.49-1.02.83,0,0,.02.02.02.02.09.07.19.14.28.21.03.02.05.04.04.07,0,.02-.02.04-.04.05-.03.02-.05,0-.08-.03-.09-.09-.18-.17-.28-.27Z"/><path class="cls-3" d="m3.22,11.87c.1.09.19.18.28.27.02.02.05.04.08.03.02,0,.04-.03.04-.05,0-.03-.01-.05-.04-.07-.09-.07-.19-.14-.28-.21,0,0-.01-.01-.02-.02.29-.34.63-.61,1.02-.83.05.11.1.21.15.31,0,.01.01.03.02.04,0,.03.03.05.06.05.02,0,.04-.01.06-.03.02-.02.01-.05,0-.07-.05-.07-.09-.14-.14-.22-.02-.04-.05-.08-.07-.12.42-.21.84-.34,1.3-.39,0,.08.01.15.02.22,0,.06,0,.12,0,.17,0,.03,0,.06.04.07.02,0,.05,0,.07,0,.02-.01.03-.04.02-.07-.02-.12-.03-.24-.05-.36,0-.03,0-.04.03-.04.33-.02.65,0,.98.07.08.02.17.04.25.06.03,0,.04.02.03.05-.04.11-.08.22-.12.33,0,.03-.01.05,0,.07.02.01.04.02.06.02.03,0,.04-.03.05-.05.02-.1.05-.2.07-.3,0-.03.02-.05.03-.08.43.14.82.35,1.18.64-.05.06-.09.11-.14.16-.04.04-.08.09-.13.13-.02.02-.03.04-.02.07,0,.03.03.04.05.04.03,0,.05-.01.07-.04.07-.1.14-.19.21-.28,0,0,.01-.01.02-.03.34.29.61.63.82,1.02-.06.03-.12.06-.18.09-.06.03-.12.05-.17.07-.03.01-.05.03-.05.06,0,.02.01.05.03.06.02.02.05,0,.08,0,.1-.06.21-.12.31-.18,0,0,.02,0,.03-.01.21.4.33.83.38,1.28-.08,0-.15.01-.22.02-.06,0-.11,0-.17,0-.03,0-.06,0-.07.04,0,.02,0,.05,0,.07.01.02.04.03.07.02.13-.03.26-.05.39-.05,0,.03,0,.07,0,.1.01.31,0,.61-.07.92-.02.08-.04.17-.06.25,0,.03-.02.04-.05.03-.11-.04-.21-.08-.32-.11-.01,0-.02,0-.03-.01-.04,0-.07.01-.08.05,0,.04.02.07.06.08.11.03.23.06.34.08.04,0,.04.03.03.06-.12.37-.3.71-.53,1.02-.03.04-.06.08-.09.12-.06-.05-.12-.1-.17-.15-.04-.04-.08-.08-.12-.12-.02-.02-.04-.03-.07-.02-.03,0-.04.03-.04.05,0,.03,0,.05.03.06.09.07.18.14.28.21.01,0,.02.02.04.03-.29.34-.63.61-1.02.82-.02-.03-.03-.05-.04-.08-.04-.09-.08-.18-.12-.27-.01-.03-.03-.05-.06-.05-.02,0-.04.01-.06.03-.02.02,0,.05,0,.08.06.1.13.21.19.32,0,0,0,.01,0,.02-.4.21-.83.33-1.28.38,0-.07-.01-.13-.02-.2,0-.07,0-.13,0-.2,0-.03,0-.05-.03-.06-.02-.01-.05-.01-.07,0-.02.02-.03.04-.02.07.02.12.03.24.05.35,0,.01,0,.02,0,.04-.44.03-.87-.01-1.3-.14.02-.07.04-.13.06-.19.02-.06.05-.12.07-.18.01-.03.01-.05,0-.08-.02-.02-.04-.03-.07-.02-.03.01-.04.03-.05.06-.03.12-.06.23-.09.35,0,.03-.02.02-.04.01-.22-.07-.43-.16-.63-.28-.17-.09-.33-.2-.48-.32-.01,0-.02-.02-.04-.03.05-.06.1-.12.15-.17.04-.04.08-.08.12-.12.02-.02.03-.05.02-.07,0-.02-.03-.04-.05-.04-.03,0-.05,0-.07.03-.08.1-.15.21-.23.32-.34-.29-.61-.63-.83-1.02.06-.03.11-.06.17-.09.06-.03.12-.05.19-.08.03-.01.05-.03.05-.06,0-.02-.02-.04-.03-.06-.02-.02-.05,0-.07,0-.1.06-.2.12-.31.18,0,0-.02,0-.03.01-.21-.4-.33-.83-.38-1.28.07,0,.13-.01.19-.02.07,0,.13,0,.2,0,.03,0,.06,0,.06-.04,0-.02,0-.05,0-.07-.01-.02-.04-.03-.07-.02-.12.02-.24.03-.36.05-.03,0-.04,0-.04-.03-.02-.29,0-.58.05-.87.02-.12.05-.24.08-.36,0-.03.02-.04.05-.03.11.04.22.08.33.12.03,0,.05.01.07,0,.01-.02.02-.04.02-.06,0-.03-.02-.05-.05-.05-.1-.02-.2-.05-.3-.07-.03,0-.05-.02-.08-.03.14-.43.35-.82.64-1.18Z"/></g><path class="cls-2" d="m12.11,13.59c-.28.11-.59.24-.91.36-.59.22-1.18.44-1.77.67-.5.2-1,.41-1.5.6-.4.16-.81.29-1.21.44-.57.22-1.48-.08-1.77-.6-.29-.5-.17-1.29.29-1.67.25-.21.56-.34.86-.48.26-.12.55-.21.82-.32.76-.3,1.51-.6,2.27-.89.58-.22,1.16-.43,1.74-.64.07-.02.22.02.24.07.15.33.31.65.44,1,.17.46.31.93.5,1.44Z"/><path class="cls-2" d="m2.88,10.7c.26-.18.47-.34.69-.49.06-.04.14-.06.2-.11.54-.42,1.18-.57,1.84-.68.88-.15,1.71-.05,2.53.29.67.28,1.27.65,1.77,1.16.14.15.16.23-.06.32-1.01.38-2.02.78-3.04,1.16-.38.14-.76.29-1.15.4-.11.03-.28-.02-.37-.1-.61-.46-1.2-.93-1.79-1.41-.2-.16-.38-.33-.62-.55Z"/><path class="cls-2" d="m8.63,15.22c.34-.14.63-.27.93-.39.46-.18.91-.37,1.37-.53.05-.02.22.09.22.14.02.38.01.75.01,1.18-.49,0-.92,0-1.34,0-.15,0-.31-.05-.44-.01-.36.11-.5-.17-.75-.39Z"/></g><path class="cls-1" d="m19.94,1.06v18.89H1.06V1.06h18.89M21,0H0v21h21V0h0Z"/></svg>