<?xml version="1.0" encoding="UTF-8"?><svg id="Capa_1" xmlns="http://www.w3.org/2000/svg" xmlns:xlink="http://www.w3.org/1999/xlink" viewBox="0 0 21 21"><defs><style>.cls-1{stroke-width:.4px;}.cls-1,.cls-2{stroke:#1d1d1b;}.cls-1,.cls-2,.cls-3{fill:none;}.cls-2{stroke-width:.48px;}.cls-4{font-family:Poppins-Bold, Poppins;font-size:5.49px;font-weight:700;}.cls-4,.cls-5{fill:#1d1d1b;}.cls-6{clip-path:url(#clippath-1);}.cls-7{clip-path:url(#clippath);}</style><clipPath id="clippath"><rect class="cls-3" x=".18" y="1.61" width="20.27" height="17.79"/></clipPath><clipPath id="clippath-1"><rect class="cls-3" x="26.48" y="1.29" width="19.87" height="18.43"/></clipPath></defs><g><g class="cls-7"><g><path class="cls-2" d="m-7.33,24.69c-.01-.07,0,.07,0,0-.36-1.92-.31-2.91-.09-4.75l1.25-.25.85.14h0c.11.24.37.39.64.33.31-.06.52-.37.46-.68-.06-.31-.37-.52-.68-.46-.13.03-.24.1-.33.19l-.8-.09-1.17-.59c.39-1.96,1.09-3.82,2.06-5.52l1.14.29.71.49h0c0,.26.17.51.44.57.31.08.62-.11.7-.42.08-.31-.11-.63-.42-.7-.13-.03-.26-.02-.38.04l-.69-.42-.79-1.01c1.08-1.6,2.41-3.02,3.95-4.2l.95.67.49.72h0c-.1.24-.02.53.2.69.26.18.62.12.81-.14.18-.26.12-.62-.14-.81-.11-.08-.24-.11-.37-.1l-.49-.64-.35-1.17c1.6-1.05,3.39-1.86,5.34-2.37l.56.92.16.85h0c-.19.18-.24.48-.09.72.16.27.52.36.8.2.27-.16.36-.52.2-.8-.07-.12-.18-.2-.29-.24l-.19-.79.14-1.15h0c1.92-.36,3.82-.4,5.66-.17l.22,1.11-.14.85h0c-.24.11-.38.37-.33.64.06.31.37.52.68.45.31-.06.52-.37.46-.68-.03-.13-.1-.24-.19-.33l.09-.8.52-1.04c1.95.39,3.81,1.1,5.51,2.08l-.25,1.08-.48.72h0c-.26,0-.5.18-.57.45-.07.31.12.62.43.7.31.07.62-.12.7-.43.03-.13.01-.26-.04-.38l.41-.7.92-.74c1.62,1.09,3.07,2.44,4.28,4.01l-.67.9-.73.47h0c-.24-.1-.53-.04-.7.19-.19.26-.14.62.12.81.26.19.62.14.81-.12.08-.11.12-.24.11-.36l.65-.48,1.17-.32c1.07,1.62,1.9,3.42,2.42,5.38l-.95.56-.85.15h0c-.18-.19-.48-.24-.71-.1-.28.16-.37.52-.21.79.16.28.52.37.79.21.12-.07.2-.17.24-.29l.79-.18,1.15.13s.01.07.02.11"/><path class="cls-2" d="m27.37,18.66c.03.15.06.3.09.45v.02m-2.77-6.65c1.16,1.66,2.03,3.55,2.55,5.61m-7.37-10.23c1.72,1.1,3.24,2.5,4.48,4.15m-10.68-6.57c2.03.36,3.97,1.08,5.71,2.11m-12.23-1.99c.15-.03.3-.06.46-.09,1.86-.35,3.71-.38,5.49-.12M1,8.09c1.65-1.07,3.53-1.88,5.57-2.38M-3.75,12.72c1.13-1.67,2.58-3.13,4.28-4.31m-6.78,10.61c.33-2.07,1.07-4,2.14-5.74m-2.05,11.29c-.31-1.66-.36-3.29-.18-4.85"/><path class="cls-2" d="m28.55,18.72c.01.07.03.13.04.2.17.87.5,3.54.04,4.63l-1.25.25-.85-.14h0c-.11-.24-.37-.39-.64-.33-.31.06-.52.37-.46.68.06.31.37.52.68.46.13-.03.24-.1.33-.19l.8.09,1.17.59c-.39,1.96-1.09,3.82-2.06,5.52l-1.14-.29-.71-.49h0c0-.26-.17-.51-.44-.57-.31-.08-.62.11-.7.42-.08.31.11.62.42.7.13.03.26.02.38-.04l.69.42.79,1.01c-1.08,1.6-2.41,3.02-3.95,4.2l-.95-.67-.49-.71h0c.1-.24.02-.53-.2-.69-.26-.18-.62-.12-.81.14-.18.26-.12.62.14.81.11.08.24.11.37.1l.49.64.35,1.16c-1.6,1.05-3.39,1.86-5.34,2.37l-.56-.92-.16-.85h0c.19-.18.24-.48.09-.72-.16-.27-.52-.36-.8-.2-.27.16-.36.52-.2.8.07.12.18.2.29.24l.19.79-.14,1.15h0c-1.92.36-3.82.4-5.66.17l-.22-1.12.14-.85h0c.24-.11.38-.37.33-.64-.06-.31-.37-.52-.68-.45-.31.06-.52.37-.46.68.03.13.1.24.19.33l-.09.8-.53,1.04c-1.95-.39-3.81-1.1-5.51-2.08l.25-1.08.48-.72h0c.26,0,.5-.18.57-.45.07-.31-.12-.62-.43-.7-.31-.07-.62.12-.7.43-.03.13-.01.26.04.38l-.41.7-.92.74c-1.62-1.09-3.07-2.44-4.28-4.01l.67-.9.73-.47h0c.24.1.53.04.7-.19.19-.26.14-.62-.12-.81-.26-.19-.62-.14-.81.12-.08.11-.12.24-.11.36l-.66.48-1.17.32c-1.07-1.62-1.9-3.42-2.42-5.38l.95-.56.85-.15h0c.18.19.48.24.71.1.28-.16.37-.52.21-.79-.16-.28-.52-.37-.79-.21-.12.07-.2.17-.24.29l-.79.18-1.12-.15s-.01-.07-.02-.1"/><path class="cls-2" d="m27.59,23.75c.18-1.55.13-3.16-.18-4.81m-2.07,11.26c1.07-1.73,1.81-3.66,2.14-5.72m-6.81,10.6c1.7-1.18,3.16-2.64,4.29-4.3m-10.34,6.99c2.04-.5,3.91-1.31,5.57-2.37m-12.09,2.72c1.78.25,3.62.22,5.49-.13.15-.03.31-.06.46-.09m-12.23-1.99c1.74,1.03,3.67,1.76,5.71,2.12m-10.67-6.58c1.23,1.65,2.75,3.06,4.47,4.16m-7.32-10.24c.51,2.06,1.37,3.95,2.52,5.61m-2.74-6.62v.04c.03.14.06.27.09.41"/></g><text class="cls-4" transform="translate(5.19 17.13)"><tspan x="0" y="0">LAR</tspan></text></g><path class="cls-5" d="m19.94,1.06v18.89H1.06V1.06h18.89M21,0H0v21h21V0h0Z"/></g><g class="cls-6"><g><path class="cls-1" d="m20.03,23.83c-.01-.06.01.06,0,0-.37-1.78-.35-2.71-.18-4.43l1.16-.25.8.12h0c.1.22.35.35.6.3.29-.06.48-.35.41-.65-.06-.29-.35-.48-.64-.41-.12.03-.23.1-.3.19l-.75-.07-1.1-.53c.32-1.83.94-3.58,1.81-5.19l1.07.25c.56.47,1.11.95,1.67,1.42.13.06.28.02.35-.08.09-.12.05-.32-.1-.41l-1.6-1.36-.75-.92c.97-1.51,2.18-2.86,3.6-4l.9.6c.26.66.52,1.32.78,1.98.1.1.27.11.38.02.11-.09.13-.27.04-.39-.24-.63-.49-1.26-.73-1.89-.12-.36-.23-.72-.35-1.08,1.47-1.01,3.13-1.8,4.94-2.32l.54.85c-.01.69-.02,1.38-.03,2.07.04.14.19.22.33.18.14-.04.23-.19.18-.34l.05-1.98c.04-.36.07-.71.11-1.07h0c1.78-.37,3.56-.45,5.28-.27l.23,1.04c-.3.62-.59,1.23-.89,1.85,0,.14.1.25.22.28.14.03.3-.06.35-.21l.84-1.79.47-.98c1.83.33,3.58.95,5.19,1.82-.1.38-.2.76-.3,1.14-.39.51-.78,1.02-1.17,1.53-.1.14-.04.32.08.38.11.06.27.01.34-.12.42-.53.84-1.07,1.26-1.6.28-.24.56-.47.85-.71,1.54.99,2.92,2.22,4.08,3.65l-.6.85c-.73.3-1.47.59-2.2.89-.15.13-.15.35-.04.45.09.08.24.08.36,0,.64-.3,1.34-.63,2.14-.87.36-.11.72-.22,1.08-.33,1.03,1.49,1.84,3.16,2.37,4.97l-.88.54-.79.16h0c-.17-.17-.45-.21-.67-.08-.25.16-.33.49-.18.74.16.26.49.33.74.18.11-.07.18-.17.22-.28l.73-.18,1.08.1s.01.07.02.1"/><path class="cls-1" d="m52.28,17.5c.03.14.06.28.09.42v.02m-2.72-6.15c1.11,1.52,1.97,3.27,2.49,5.18m-7.08-9.39c1.63.99,3.08,2.27,4.26,3.78m-10.1-5.91c1.9.29,3.72.93,5.37,1.86m-11.45-1.61c.14-.03.28-.06.42-.09,1.73-.36,3.45-.43,5.12-.23m-11.22,2.79c1.52-1.03,3.25-1.83,5.15-2.33m-9.49,6.75c1.02-1.58,2.34-2.97,3.91-4.11m-6.11,10.04c.27-1.93.91-3.76,1.88-5.39m-1.68,10.58c-.32-1.54-.4-3.06-.27-4.52"/><path class="cls-1" d="m53.39,17.52c.01.06.03.12.04.18.17.81.54,3.29.13,4.32l-1.16.25-.8-.12h0c-.1-.22-.35-.35-.6-.3-.29.06-.48.35-.41.64.06.29.35.48.64.41.12-.03.23-.1.3-.19l.75.07,1.1.53c-.32,1.83-.94,3.58-1.81,5.19l-1.07-.25-.68-.44h0c0-.25-.17-.47-.42-.53-.29-.07-.58.12-.65.41-.07.29.12.58.41.65.12.03.24.01.35-.04l.65.38.75.92c-.97,1.51-2.18,2.86-3.6,4l-.9-.61-.47-.66h0c.09-.23.01-.5-.2-.64-.25-.17-.58-.1-.75.15-.17.25-.1.58.15.75.11.07.23.1.34.09l.47.59.35,1.08c-1.47,1.01-3.13,1.8-4.94,2.32l-.54-.85-.17-.79h0c.17-.18.21-.45.07-.67-.16-.25-.49-.33-.75-.17-.25.16-.33.49-.17.75.07.11.17.18.28.22l.19.73-.11,1.07h0c-1.78.37-3.56.45-5.28.27l-.23-1.04.11-.8h0c.22-.11.35-.35.3-.61-.06-.29-.35-.48-.65-.41-.29.06-.48.35-.41.64.03.12.1.23.19.3l-.07.75-.47.98c-1.83-.33-3.58-.95-5.19-1.83l.21-1.02.43-.68h0c.25,0,.47-.18.52-.43.06-.29-.13-.58-.42-.64-.29-.06-.58.12-.64.42-.03.12,0,.25.05.35l-.37.66-.85.71c-1.54-.99-2.92-2.22-4.08-3.65l.6-.85.67-.45h0c.23.09.5.02.65-.19.17-.24.12-.58-.13-.75-.24-.17-.58-.11-.75.13-.07.1-.1.22-.1.34l-.6.46-1.08.33c-1.03-1.49-1.84-3.16-2.37-4.97l.87-.54.79-.16h0c.17.17.45.21.67.08.25-.16.33-.49.18-.74-.16-.26-.49-.33-.74-.18-.11.07-.18.17-.22.28l-.73.19-1.05-.11s-.01-.06-.02-.1"/><path class="cls-1" d="m52.59,22.24c.13-1.45.05-2.95-.26-4.48m-1.7,10.55c.97-1.64,1.61-3.45,1.89-5.38m-6.14,10.03c1.56-1.13,2.89-2.52,3.91-4.1m-9.5,6.74c1.89-.5,3.62-1.3,5.15-2.33m-11.22,2.79c1.66.2,3.39.13,5.12-.23.14-.03.28-.06.42-.09m-11.45-1.61c1.65.93,3.46,1.57,5.37,1.86m-10.09-5.92c1.18,1.52,2.63,2.8,4.25,3.79m-7.04-9.4c.51,1.91,1.36,3.66,2.46,5.18m-2.69-6.12v.04c.03.13.06.25.09.38"/></g></g></svg>