<?xml version="1.0" encoding="UTF-8"?><svg id="Capa_1" xmlns="http://www.w3.org/2000/svg" viewBox="0 0 21 21"><defs><style>.cls-1{fill:#b2b2b2;}.cls-2{fill:#be1622;}.cls-3{fill:#3c3c3b;}.cls-4{fill:#706f6f;}.cls-5{fill:none;}.cls-6{fill:#1d1d1b;}</style></defs><path class="cls-2" d="m19.94,1.06v18.89H1.06V1.06h18.89M21,0H0v21h21V0h0Z"/><g><polygon class="cls-5" points="11.16 15.68 10.87 15.76 10.86 15.76 9.96 12.59 10.01 12.57 10.26 12.51 11.16 15.68"/><polygon class="cls-6" points="3.47 4.23 3.73 5.24 1.95 5.24 1.95 4.23 3.47 4.23"/><path class="cls-5" d="m9.09,16.24c0,.06-.01.12-.01.17l-.38.1c-.79.22-1.61-.16-1.96-.87.02-.06.05-.11.08-.16.31.54.91.86,1.53.81t.02,0h.01c.16.05.34.05.52,0l.19-.05Z"/><path class="cls-6" d="m8.7,16.51l.38-.1c-.13.57-.62.99-1.22.99-.68,0-1.24-.56-1.24-1.25,0-.18.04-.36.12-.51.35.71,1.17,1.09,1.96.87Z"/><path class="cls-4" d="m11.54,15.19l-.75.16-.93-3.29,1.42-.33c-.16.44-.24.91-.24,1.4,0,.7.18,1.48.5,2.06Z"/><path class="cls-3" d="m14.11,14.35h0c-.12.36-.41.65-.8.75l-.92.25-.07.02-.12.03-.21.06c-.33-.56-.51-1.23-.51-1.92,0-.51.09-.99.27-1.43l.35-.09.23-.07.13-.03c.62-.17,1.26.2,1.42.82l.25.94c.06.23.05.46-.02.67Z"/><g><g><path class="cls-1" d="m18.77,13.65c-.09,0-.18,0-.27.01t-.02,0s-.06-.03-.06-.07c0-.03.03-.06.06-.06t.02,0c.09.01.18.01.27.01.03,0,.07,0,.1-.01.01.01.03.01.05,0,.04,0,.09,0,.14,0,0-.44-.1-.87-.25-1.27-.06.02-.12.04-.18.06-.03.01-.06.02-.09.03-.09.04-.17.08-.25.12t-.02.01s-.06,0-.08-.03c0-.03.01-.07.04-.08h.01c.09-.03.18-.06.26-.09.03-.01.06-.03.09-.04.06-.03.12-.06.17-.09-.05-.12-.11-.23-.17-.34-.16-.28-.35-.53-.56-.76-.05.04-.1.08-.15.13-.03.02-.05.04-.07.06-.06.06-.12.13-.18.2,0,.01-.01.01-.01.02-.02.02-.06.02-.09,0-.02-.03-.02-.07,0-.09t.02-.01c.07-.06.14-.12.2-.18.02-.02.04-.04.06-.07.05-.05.09-.1.13-.15-.31-.3-.67-.54-1.07-.72-.03.05-.06.11-.09.17-.01.03-.03.06-.04.09-.04.08-.07.17-.09.26,0,0,0,.01-.01.01-.01.03-.05.05-.08.04-.03-.02-.04-.05-.03-.09h.01c.04-.09.08-.17.12-.26.01-.03.03-.06.03-.09.03-.06.05-.12.06-.18-.4-.16-.84-.25-1.3-.26,0,.06-.01.13-.01.19v.1c0,.09,0,.18.01.27,0,.01.01.01.01.02,0,.03-.03.06-.07.06-.03,0-.06-.03-.06-.06v-.02c.02-.09.02-.18.02-.27,0-.03,0-.07-.01-.1,0-.06,0-.12-.01-.19-.44.01-.87.1-1.27.25.02.06.04.12.06.18.01.03.02.06.03.09.04.09.08.17.12.25.01,0,.01.01.01.01.02.04,0,.07-.03.09-.03.01-.07-.01-.08-.04,0,0-.01-.01-.01-.02-.02-.08-.05-.17-.08-.25-.02-.03-.03-.07-.05-.1-.02-.06-.05-.11-.08-.16-.41.18-.78.43-1.1.73.04.05.08.1.12.14.02.03.04.05.07.08.06.06.13.12.2.18t.02.01s.02.06,0,.09c-.03.02-.07.02-.09,0t-.01-.02c-.06-.07-.12-.14-.18-.2-.03-.03-.05-.05-.08-.07-.04-.04-.09-.08-.14-.12-.27.28-.49.6-.66.96-.03.03-.04.07-.06.11.05.03.1.06.16.08.03.02.07.03.1.05.08.04.17.07.25.09h.02s.05.05.03.08c-.01.04-.04.05-.08.04h-.01c-.08-.06-.16-.1-.25-.13-.03-.01-.06-.03-.09-.03h0c-.06-.03-.12-.05-.18-.07-.16.41-.25.84-.26,1.3.06,0,.12.02.19,0,.03.01.06.01.1.01.09,0,.18,0,.27-.01t.02,0s.06.03.06.06c0,.04-.03.07-.06.07t-.02,0c-.09-.01-.18-.01-.27-.01h-.1c-.06,0-.13.01-.19.01.01.45.1.88.25,1.28.06-.02.12-.04.18-.06h0s.06-.03.09-.04c.09-.03.17-.07.25-.11,0,0,.01,0,.01,0,.04-.02.07,0,.08.03.02.03,0,.07-.03.08h-.02c-.08.03-.17.06-.26.09-.03.01-.06.03-.09.04h0c-.06.03-.11.06-.16.09.05.12.11.24.17.35,0,.01.02.02.02.02.14.27.33.51.54.73.05-.04.1-.08.14-.12.03-.02.05-.04.08-.07.06-.06.12-.13.18-.2t.01-.02s.06-.02.09,0c.02.03.02.07,0,.09-.01,0-.01.01-.02.01-.07.06-.14.12-.2.18-.02.02-.04.04-.06.07-.05.05-.09.1-.13.15.31.3.67.54,1.07.72.03-.06.06-.11.09-.17.01-.03.03-.06.04-.09.03-.08.06-.17.09-.26h0s.05-.06.08-.05c.04.02.05.05.04.08t-.01.02c-.05.08-.09.16-.12.25-.01.03-.03.06-.04.09-.02.06-.04.12-.06.17.41.17.84.26,1.3.27.01-.07.01-.13.01-.19.01-.03.01-.07.01-.1,0-.09,0-.18-.02-.27v-.02s.03-.06.06-.06c.04,0,.07.03.07.06,0,.01-.01.01-.01.02-.01.09-.01.18-.01.27v.1c0,.06.01.12.01.19.45-.01.88-.1,1.27-.25-.01-.06-.03-.12-.06-.18,0-.03-.02-.06-.03-.09-.03-.09-.07-.17-.12-.25v-.02s0-.06.03-.08c.03-.01.07.01.08.04h0c.03.1.06.19.09.27.02.03.03.07.05.1.02.06.05.11.08.16.41-.18.78-.43,1.1-.73-.04-.05-.08-.1-.13-.15-.02-.03-.04-.05-.06-.07-.06-.06-.13-.12-.2-.18-.01,0-.01-.01-.02-.01-.02-.02-.02-.06,0-.09.03-.02.07-.02.09,0,0,.01.01.01.01.02.06.07.12.14.18.2.02.02.04.04.07.06.05.05.1.09.15.13.3-.31.54-.67.72-1.07-.06-.03-.11-.06-.17-.09-.03-.01-.06-.03-.09-.04-.08-.04-.17-.07-.26-.09,0,0-.01,0-.01,0-.04-.01-.05-.04-.04-.08.02-.03.05-.04.08-.03.01,0,.01.01.02.01.08.04.16.09.24.12.03.01.07.03.1.04.06.02.11.04.17.06.17-.41.26-.85.27-1.31-.07,0-.13-.01-.19-.01h-.1Zm-3.38.64c-.24,0-.46-.13-.58-.33-.06-.11-.1-.23-.1-.36,0-.37.31-.68.68-.68.26,0,.49.15.61.36.05.09.08.2.08.32,0,.38-.31.69-.69.69Z"/><path class="cls-1" d="m16.86,10.25s0,0,0,0h0Z"/><path class="cls-1" d="m18.75,15.07s0,0,0,0h0Z"/><path class="cls-1" d="m12.04,12.13s0,0,0,0h0Z"/><polygon class="cls-1" points="13.93 16.96 13.92 16.95 13.92 16.95 13.93 16.96"/><path class="cls-1" d="m16.86,10.25s0,0,0,0h0Z"/><path class="cls-1" d="m18.75,15.07s0,0,0,0h0Z"/><path class="cls-1" d="m12.76,11.05c-.3.31-.55.67-.72,1.08.05.03.11.06.16.09.17-.39.41-.74.7-1.04-.05-.04-.09-.08-.14-.12h0Z"/><path class="cls-1" d="m13.95,10.23c-.41.18-.79.43-1.1.73.04.05.08.1.12.14.31-.3.67-.54,1.07-.71-.03-.06-.06-.11-.08-.17h0Z"/><path class="cls-1" d="m16.76,10.2c-.4-.16-.84-.25-1.3-.26,0,.06-.01.12-.02.19.44,0,.87.09,1.26.25.02-.06.04-.12.06-.18h0Z"/><path class="cls-1" d="m15.34,9.94c-.45,0-.88.09-1.27.25h0c.02.06.03.12.06.18.38-.15.8-.24,1.23-.24,0-.06,0-.12-.02-.19h0Z"/><path class="cls-1" d="m17.94,10.97c-.31-.3-.67-.55-1.08-.72-.03.05-.06.11-.09.16.39.17.74.41,1.04.7.04-.05.08-.09.12-.14h0Z"/><path class="cls-1" d="m19.06,13.54s-.1,0-.14,0c-.02.01-.03.01-.05.01h0c0-.44-.09-.85-.24-1.23.06-.02.12-.04.18-.06.15.4.24.83.25,1.27Z"/><path class="cls-1" d="m18.76,12.16s-.11.06-.17.09c-.05-.12-.11-.23-.17-.34-.14-.26-.32-.5-.54-.72h0c.05-.05.1-.09.15-.13.21.23.4.48.56.76.06.11.12.22.17.34Z"/><path class="cls-1" d="m15.35,17.08c0,.06-.01.12-.02.19-.46-.01-.89-.1-1.3-.27.02-.05.04-.11.06-.17.39.16.8.24,1.25.25h.01Z"/><path class="cls-1" d="m16.72,17.02c-.39.15-.82.24-1.27.25,0-.07-.01-.13-.01-.19.43,0,.84-.09,1.22-.24h.01c.02.06.04.12.05.18Z"/><path class="cls-1" d="m12,12.24c-.16.4-.25.84-.26,1.3.06,0,.12.01.18.02,0-.44.09-.87.25-1.26-.06-.02-.12-.04-.18-.06h0Z"/><path class="cls-1" d="m18.75,15.08c-.18.4-.42.76-.72,1.07-.05-.04-.1-.08-.15-.12h0c.3-.31.53-.65.7-1.04.06.03.11.06.17.09Z"/><path class="cls-1" d="m11.73,13.66c0,.45.09.88.25,1.27h0c.06-.02.12-.03.18-.06-.15-.38-.24-.8-.24-1.23-.06,0-.12,0-.18.02h0Z"/><path class="cls-1" d="m14.01,16.79c-.03.06-.06.11-.09.17-.4-.18-.76-.42-1.07-.72.04-.05.08-.1.12-.15h.01c.3.3.64.53,1.03.7Z"/><path class="cls-1" d="m12.9,16.03s-.09.08-.14.12c-.21-.22-.4-.46-.54-.73,0,0-.02,0-.02-.02-.06-.11-.12-.23-.17-.35.05-.03.11-.06.16-.09h0c.06.14.12.26.19.37,0,.01.01.02.01.02.14.25.32.48.51.68Z"/><path class="cls-1" d="m17.94,16.24c-.32.3-.69.55-1.1.73-.03-.05-.06-.11-.09-.16h.01c.39-.17.75-.42,1.05-.72h.01s.08.1.12.15Z"/><path class="cls-1" d="m19.06,13.66c0,.46-.1.9-.27,1.31-.06-.02-.11-.04-.17-.06.15-.39.24-.82.25-1.26.06,0,.12.01.19.01Z"/><path class="cls-1" d="m12.04,12.13s0,0,0,0h0Z"/><polygon class="cls-1" points="13.93 16.96 13.92 16.95 13.92 16.95 13.93 16.96"/></g><path class="cls-4" d="m18.92,11.63l-.33.19-.17.09-2.42,1.37-1.19.68-.7.39h0s-1.73.98-1.73.98l-.06.04-.1.05-.19.11s-.03-.05-.04-.07c-.33-.56-.51-1.23-.51-1.92,0-.51.09-.99.27-1.43.57-1.49,2.01-2.54,3.7-2.54,1.5,0,2.8.83,3.47,2.06Z"/></g><path class="cls-4" d="m8.22,16.09c-.5,0-.98-.27-1.23-.71-.07-.1-.11-.21-.15-.35L3.98,4.33l1.72-.47c.14-.04.28-.06.42-.06.73,0,1.37.5,1.56,1.2l1.08,4.05.03.1,1.71,6.4-1.89.51c-.05.02-.11.03-.18.03h0s-.2,0-.2,0Z"/></g><line class="cls-5" x1="4.05" y1="6.28" x2="3.73" y2="5.1"/><line class="cls-5" x1="3.47" y1="4.09" x2="3.19" y2="3.06"/><line class="cls-5" x1="11.69" y1="15.76" x2="19.71" y2="11.33"/></svg>