<?xml version="1.0" encoding="UTF-8"?><svg id="Capa_1" xmlns="http://www.w3.org/2000/svg" xmlns:xlink="http://www.w3.org/1999/xlink" viewBox="0 0 21 21"><defs><style>.cls-1{stroke-width:.4px;}.cls-1,.cls-2{stroke:#1d1d1b;}.cls-1,.cls-2,.cls-3,.cls-4,.cls-5{fill:none;}.cls-6{font-family:MyriadPro-Regular, 'Myriad Pro';font-size:5.53px;}.cls-6,.cls-7{fill:#1d1d1b;}.cls-8{clip-path:url(#clippath-2);}.cls-2{stroke-width:.48px;}.cls-9{clip-path:url(#clippath-1);}.cls-3{stroke:#1e1e1c;}.cls-3,.cls-5{stroke-miterlimit:10;stroke-width:.45px;}.cls-10{clip-path:url(#clippath);}.cls-5{stroke:#010101;}</style><clipPath id="clippath"><rect class="cls-4" x="-25.74" y="-22.95" width="20.27" height="17.79"/></clipPath><clipPath id="clippath-1"><rect class="cls-4" x=".57" y="-23.27" width="19.87" height="18.43"/></clipPath><clipPath id="clippath-2"><rect class="cls-4" x=".31" y="2.35" width="20.41" height="17.91"/></clipPath></defs><g class="cls-10"><g><path class="cls-2" d="m-33.25.14c-.01-.07,0,.07,0,0-.36-1.92-.31-2.91-.09-4.75l1.25-.25.85.14h0c.11.24.37.39.64.33.31-.06.52-.37.46-.68-.06-.31-.37-.52-.68-.46-.13.03-.24.1-.33.19l-.8-.09-1.17-.59c.39-1.96,1.09-3.82,2.06-5.52l1.14.29.71.49h0c0,.26.17.51.44.57.31.08.62-.11.7-.42.08-.31-.11-.63-.42-.7-.13-.03-.26-.02-.38.04l-.69-.42-.79-1.01c1.08-1.6,2.41-3.02,3.95-4.2l.95.67.49.72h0c-.1.24-.02.53.2.69.26.18.62.12.81-.14.18-.26.12-.62-.14-.81-.11-.08-.24-.11-.37-.1l-.49-.64-.35-1.17c1.6-1.05,3.39-1.86,5.34-2.37l.56.92.16.85h0c-.19.18-.24.48-.09.72.16.27.52.36.8.2.27-.16.36-.52.2-.8-.07-.12-.18-.2-.29-.24l-.19-.79.14-1.15h0c1.92-.36,3.82-.4,5.66-.17l.22,1.11-.14.85h0c-.24.11-.38.37-.33.64.06.31.37.52.68.45.31-.06.52-.37.46-.68-.03-.13-.1-.24-.19-.33l.09-.8.52-1.04c1.95.39,3.81,1.1,5.51,2.08l-.25,1.08-.48.72h0c-.26,0-.5.18-.57.45-.07.31.12.62.43.7.31.07.62-.12.7-.43.03-.13.01-.26-.04-.38l.41-.7.92-.74c1.62,1.09,3.07,2.44,4.28,4.01l-.67.9-.73.47h0c-.24-.1-.53-.04-.7.19-.19.26-.14.62.12.81.26.19.62.14.81-.12.08-.11.12-.24.11-.36l.65-.48L-.02-12.41c1.07,1.62,1.9,3.42,2.42,5.38l-.95.56-.85.15h0c-.18-.19-.48-.24-.71-.1-.28.16-.37.52-.21.79.16.28.52.37.79.21.12-.07.2-.17.24-.29l.79-.18,1.15.13s.01.07.02.11"/><path class="cls-2" d="m1.45-5.89c.03.15.06.3.09.45v.02m-2.77-6.65C-.07-10.4.81-8.51,1.32-6.45m-7.37-10.23c1.72,1.1,3.24,2.5,4.48,4.15m-10.68-6.57c2.03.36,3.97,1.08,5.71,2.11m-12.23-1.99c.15-.03.3-.06.46-.09,1.86-.35,3.71-.38,5.49-.12m-12.08,2.72c1.65-1.07,3.53-1.88,5.57-2.38m-10.33,7.01c1.13-1.67,2.58-3.13,4.28-4.31m-6.78,10.61c.33-2.07,1.07-4,2.14-5.74M-32.09.03c-.31-1.66-.36-3.29-.18-4.85"/><path class="cls-2" d="m2.63-5.84c.01.07.03.13.04.2.17.87.5,3.54.04,4.63l-1.25.25-.85-.14h0c-.11-.24-.37-.39-.64-.33-.31.06-.52.37-.46.68C-.43-.24-.12-.03.19-.1c.13-.03.24-.1.33-.19l.8.09,1.17.59c-.39,1.96-1.09,3.82-2.06,5.52l-1.14-.29-.71-.49h0c0-.26-.17-.51-.44-.57-.31-.08-.62.11-.7.42-.08.31.11.62.42.7.13.03.26.02.38-.04l.69.42.79,1.01c-1.08,1.6-2.41,3.02-3.95,4.2l-.95-.67-.49-.71h0c.1-.24.02-.53-.2-.69-.26-.18-.62-.12-.81.14-.18.26-.12.62.14.81.11.08.24.11.37.1l.49.64.35,1.16c-1.6,1.05-3.39,1.86-5.34,2.37l-.56-.92-.16-.85h0c.19-.18.24-.48.09-.72-.16-.27-.52-.36-.8-.2-.27.16-.36.52-.2.8.07.12.18.2.29.24l.19.79-.14,1.15h0c-1.92.36-3.82.4-5.66.17l-.22-1.12.14-.85h0c.24-.11.38-.37.33-.64-.06-.31-.37-.52-.68-.45-.31.06-.52.37-.46.68.03.13.1.24.19.33l-.09.8-.53,1.04c-1.95-.39-3.81-1.1-5.51-2.08l.25-1.08.48-.72h0c.26,0,.5-.18.57-.45.07-.31-.12-.62-.43-.7-.31-.07-.62.12-.7.43-.03.13-.01.26.04.38l-.41.7-.92.74c-1.62-1.09-3.07-2.44-4.28-4.01l.67-.9.73-.47h0c.24.1.53.04.7-.19.19-.26.14-.62-.12-.81-.26-.19-.62-.14-.81.12-.08.11-.12.24-.11.36l-.66.48-1.17.32c-1.07-1.62-1.9-3.42-2.42-5.38l.95-.56.85-.15h0c.18.19.48.24.71.1.28-.16.37-.52.21-.79-.16-.28-.52-.37-.79-.21-.12.07-.2.17-.24.29l-.79.18-1.12-.15s-.01-.07-.02-.1"/><path class="cls-2" d="m1.67-.8c.18-1.55.13-3.16-.18-4.81M-.57,5.65C.5,3.92,1.24,1.99,1.57-.07m-6.81,10.6c1.7-1.18,3.16-2.64,4.29-4.3m-10.34,6.99c2.04-.5,3.91-1.31,5.57-2.37m-12.09,2.72c1.78.25,3.62.22,5.49-.13.15-.03.31-.06.46-.09m-12.23-1.99c1.74,1.03,3.67,1.76,5.71,2.12m-10.67-6.58c1.23,1.65,2.75,3.06,4.47,4.16M-31.91.83c.51,2.06,1.37,3.95,2.52,5.61M-32.12-.19v.04c.03.14.06.27.09.41"/></g></g><g class="cls-9"><g><path class="cls-1" d="m27.47-7.03c.01.06.03.12.04.18.17.81.54,3.29.13,4.32l-1.16.25-.8-.12h0c-.1-.22-.35-.35-.6-.3-.29.06-.48.35-.41.64.06.29.35.48.64.41.12-.03.23-.1.3-.19l.75.07,1.1.53c-.32,1.83-.94,3.58-1.81,5.19l-1.07-.25-.68-.44h0c0-.25-.17-.47-.42-.53-.29-.07-.58.12-.65.41-.07.29.12.58.41.65.12.03.24.01.35-.04l.65.38.75.92c-.97,1.51-2.18,2.86-3.6,4l-.9-.61-.47-.66h0c.09-.23.01-.5-.2-.64-.25-.17-.58-.1-.75.15-.17.25-.1.58.15.75.11.07.23.1.34.09l.47.59.35,1.08c-1.47,1.01-3.13,1.8-4.94,2.32l-.54-.85-.17-.79h0c.17-.18.21-.45.07-.67-.16-.25-.49-.33-.75-.17-.25.16-.33.49-.17.75.07.11.17.18.28.22l.19.73-.11,1.07h0c-1.78.37-3.56.45-5.28.27l-.23-1.04.11-.8h0c.22-.11.35-.35.3-.61-.06-.29-.35-.48-.65-.41-.29.06-.48.35-.41.64.03.12.1.23.19.3l-.07.75-.47.98c-1.83-.33-3.58-.95-5.19-1.83l.21-1.02.43-.68h0c.25,0,.47-.18.52-.43.06-.29-.13-.58-.42-.64-.29-.06-.58.12-.64.42-.03.12,0,.25.05.35l-.37.66-.85.71C0,9.09-1.39,7.86-2.54,6.43l.6-.85.67-.45h0c.23.09.5.02.65-.19.17-.24.12-.58-.13-.75-.24-.17-.58-.11-.75.13-.07.1-.1.22-.1.34l-.6.46-1.08.33c-1.03-1.49-1.84-3.16-2.37-4.97l.87-.54.79-.16h0c.17.17.45.21.67.08.25-.16.33-.49.18-.74-.16-.26-.49-.33-.74-.18-.11.07-.18.17-.22.28l-.73.19-1.05-.11s-.01-.06-.02-.1"/><path class="cls-1" d="m26.68-2.31c.13-1.45.05-2.95-.26-4.48m-1.7,10.55c.97-1.64,1.61-3.45,1.89-5.38m-6.14,10.03c1.56-1.13,2.89-2.52,3.91-4.1m-9.5,6.74c1.89-.5,3.62-1.3,5.15-2.33m-11.22,2.79c1.66.2,3.39.13,5.12-.23.14-.03.28-.06.42-.09m-11.45-1.61c1.65.93,3.46,1.57,5.37,1.86M-1.83,5.5c1.18,1.52,2.63,2.8,4.25,3.79M-4.62-.11c.51,1.91,1.36,3.66,2.46,5.18M-4.84-1.05v.04c.03.13.06.25.09.38"/></g></g><path class="cls-7" d="m19.94,1.06v18.89H1.06V1.06h18.89M21,0H0v21h21V0h0Z"/><g class="cls-8"><g><g><path class="cls-5" d="m21.24,7.86c1.56.56,2.72,1.12,3.48,1.53,1.25.67,2.81,1.66,3.2,1.9l-.8,1.21s-.02.11.02.15l.51.37h0s-1.17,1.59-1.17,1.59h0c-.1.13-.07.32.06.41.13.1.32.07.41-.06l1.17-1.59.51.37s.11.02.15-.02l.91-1.12c1.31,1.02,2.24,1.91,2.84,2.54.98,1.02,2.16,2.45,2.45,2.8l-1.13.9s-.06.1-.02.15l.37.51h0s-1.6,1.15-1.6,1.15h0c-.13.09-.16.28-.07.41.1.13.28.16.41.07l1.6-1.15.37.51s.1.06.15.02l1.21-.78c.93,1.37,1.54,2.51,1.91,3.29.62,1.27,1.3,3,1.47,3.42l-1.35.51c-.06.02-.09.08-.07.13l.19.6h0s-1.88.6-1.88.6h0c-.16.05-.24.22-.19.37.05.16.22.24.37.19l1.88-.6.19.6c.02.06.08.09.13.07l1.4-.37h0c.46,1.59.69,2.86.8,3.72.19,1.4.31,3.25.34,3.7l-1.44.07c-.06,0-.11.05-.11.1v.63s0,0,0,0h-1.97s0-.01,0-.01c-.16,0-.3.13-.3.29,0,.16.13.3.29.3h1.97s0,.64,0,.64c0,.06.05.11.1.11l1.44.08c-.05,1.66-.23,2.93-.38,3.79-.25,1.39-.71,3.19-.82,3.63l-1.39-.38c-.06-.02-.11.01-.13.07l-.2.6h0s-1.88-.62-1.88-.62h0c-.16-.05-.32.03-.37.19-.05.16.03.32.19.37l1.87.62-.2.6c-.02.06.01.11.07.13l1.34.52c-.56,1.56-1.13,2.72-1.54,3.48-.67,1.25-1.66,2.81-1.9,3.2l-1.21-.8s-.11-.02-.15.02l-.37.51h0s-1.59-1.17-1.59-1.17h0c-.13-.1-.32-.07-.41.06-.1.13-.07.32.06.41l1.59,1.17-.37.51s-.02.11.02.15l1.12.91c-1.02,1.31-1.91,2.24-2.54,2.84-1.02.98-2.45,2.16-2.8,2.45l-.9-1.13s-.1-.06-.15-.02l-.51.37h0s-1.15-1.6-1.15-1.6h0c-.1-.13-.28-.16-.41-.07-.13.1-.16.28-.07.41l1.15,1.6-.51.37s-.06.1-.02.15l.78,1.21c-1.37.93-2.51,1.54-3.29,1.91-1.27.62-3,1.3-3.42,1.47l-.51-1.35c-.02-.06-.08-.09-.13-.07l-.6.19h0s-.6-1.88-.6-1.88h0c-.05-.16-.22-.24-.37-.19-.16.05-.24.22-.19.37l.6,1.88-.6.19c-.06.02-.09.08-.07.13l.37,1.39c-1.59.46-2.86.69-3.72.8-1.4.19-3.25.31-3.7.34l-.07-1.44c0-.06-.05-.11-.1-.11h-.63s0,0,0,0v-1.97s.01,0,.01,0c0-.16-.13-.3-.29-.3-.16,0-.3.13-.3.29v1.97s-.64,0-.64,0c-.06,0-.11.05-.11.1l-.08,1.44c-1.66-.05-2.93-.23-3.79-.39-1.39-.25-3.19-.71-3.63-.82l.38-1.39c.02-.06-.01-.11-.07-.13l-.6-.2h0s.62-1.88.62-1.88h0c.05-.15-.03-.32-.19-.37-.16-.05-.32.03-.37.19l-.62,1.87-.6-.2c-.06-.02-.11.01-.13.07l-.52,1.35c-1.56-.56-2.72-1.13-3.48-1.54-1.25-.67-2.81-1.66-3.2-1.9l.8-1.21s.02-.11-.02-.15l-.51-.37h0s1.17-1.59,1.17-1.59h0c.1-.13.07-.32-.06-.41-.13-.1-.32-.07-.41.06l-1.17,1.59-.51-.37s-.11-.02-.15.02l-.91,1.11c-1.31-1.02-2.24-1.91-2.84-2.53-.98-1.02-2.16-2.45-2.45-2.8l1.13-.9s.06-.1.02-.15l-.37-.51h0s1.6-1.15,1.6-1.15h0c.13-.09.16-.28.07-.41-.1-.13-.28-.16-.41-.07l-1.6,1.15-.37-.51s-.1-.06-.15-.02l-1.21.78c-.93-1.37-1.54-2.51-1.92-3.29-.62-1.27-1.3-3-1.47-3.42l1.35-.51c.06-.02.09-.08.07-.13l-.19-.6h0s1.88-.6,1.88-.6h0c.16-.05.24-.22.19-.37-.05-.16-.22-.24-.37-.19l-1.88.6-.19-.6c-.02-.06-.08-.09-.13-.07l-1.39.37c-.46-1.59-.69-2.86-.81-3.72-.19-1.4-.31-3.25-.34-3.7l1.44-.07c.06,0,.11-.05.11-.1v-.63s0,0,0,0h1.97s0,.01,0,.01c.16,0,.3-.13.3-.29,0-.16-.13-.3-.29-.3h-1.97s0-.64,0-.64c0-.06-.05-.11-.1-.11l-1.43-.08c.05-1.66.23-2.93.38-3.79.25-1.39.71-3.19.82-3.63l1.39.38c.06.02.11-.01.13-.07l.2-.6h0s1.88.62,1.88.62h0c.16.05.32-.03.37-.19.05-.16-.03-.32-.19-.37l-1.87-.62.2-.6c.02-.06-.01-.11-.07-.13l-1.34-.52c.56-1.56,1.12-2.72,1.53-3.48.67-1.25,1.66-2.81,1.9-3.2l1.21.8s.11.02.15-.02l.37-.51h0s1.59,1.17,1.59,1.17h0c.13.1.32.07.41-.06.1-.13.07-.32-.06-.41l-1.59-1.17.37-.51s.02-.11-.02-.15l-1.11-.91c1.02-1.31,1.91-2.24,2.53-2.84,1.02-.98,2.45-2.16,2.8-2.45l.9,1.13s.1.06.15.02l.51-.37h0s1.15,1.6,1.15,1.6h0c.1.13.28.16.41.07.13-.1.16-.28.07-.41l-1.15-1.6.51-.37s.06-.1.02-.15l-.78-1.21c1.37-.93,2.51-1.54,3.29-1.91C-2.16,8.6-.44,7.91-.02,7.74l.51,1.35c.02.06.08.09.13.07l.6-.19h0s.6,1.88.6,1.88h0c.05.16.22.24.37.19.16-.05.24-.22.19-.37l-.6-1.88.6-.19c.06-.02.09-.08.07-.13l-.37-1.39c1.59-.46,2.86-.69,3.72-.81,1.4-.19,3.25-.31,3.7-.34l.07,1.44c0,.06.05.11.1.11h.63s0,0,0,0v1.97s-.01,0-.01,0c0,.16.13.3.29.3.16,0,.3-.13.3-.29v-1.97s.64,0,.64,0c.06,0,.11-.05.11-.1l.08-1.43c1.66.05,2.93.23,3.79.38,1.39.25,3.19.71,3.63.82l-.38,1.39c-.02.06.01.11.07.13l.6.2h0s-.62,1.88-.62,1.88h0c-.05.15.03.32.19.37.16.05.32-.03.37-.19l.62-1.87.6.2c.06.02.11-.01.13-.07l.52-1.34Z"/><path class="cls-3" d="m9.35,5.94c-.13,0-.24-.04-.28-.17v-.04s-.51-1.87-.51-1.87c0,0-1.72.13-2.58.24h0s-.15,1.92-.15,1.92c0,.13-.08.25-.2.29-.16.05-.32-.04-.37-.19l-.66-1.79c-.83.15-2.47.54-2.47.54l.03,1.99h0c0,.12-.08.24-.2.28"/><path class="cls-3" d="m18.98,7.11c-.13-.04-.22-.11-.22-.25v-.04s.1-1.93.1-1.93c0,0-1.68-.41-2.53-.57h0s-.73,1.77-.73,1.77c-.04.12-.15.21-.28.21-.16,0-.3-.13-.3-.3l-.07-1.91c-.83-.12-2.52-.25-2.52-.25l-.59,1.9h0c-.04.12-.15.2-.28.2"/></g><text class="cls-6" transform="translate(5.48 17.52)"><tspan x="0" y="0">AL 2</tspan></text></g></g></svg>