<?xml version="1.0" encoding="UTF-8"?><svg id="Capa_1" xmlns="http://www.w3.org/2000/svg" xmlns:xlink="http://www.w3.org/1999/xlink" viewBox="0 0 21 21"><defs><style>.cls-1{stroke-linecap:round;stroke-linejoin:round;}.cls-1,.cls-2{stroke:#1d1d1b;stroke-width:.43px;}.cls-1,.cls-2,.cls-3,.cls-4{fill:none;}.cls-5{clip-path:url(#clippath-1);}.cls-6{font-family:Poppins-Bold, Poppins;font-size:4.98px;font-weight:700;}.cls-6,.cls-7{fill:#1d1d1b;}.cls-8{clip-path:url(#clippath);}.cls-4{stroke:#010101;stroke-miterlimit:10;stroke-width:.51px;}</style><clipPath id="clippath"><rect class="cls-3" x="-23.67" y=".57" width="20.92" height="18.35"/></clipPath><clipPath id="clippath-1"><rect class="cls-3" x=".04" y="1.35" width="20.92" height="18.35"/></clipPath></defs><g class="cls-8"><g><path class="cls-4" d="m.2,11.21c-.7-1.27-1.69-2.65-2.71-3.66,0,0-1.48,1.6-1.65,1.76"/><path class="cls-4" d="m-1.5,13.27c-.24.12-.54.02-.66-.23s-.02-.55.22-.68c0,0,.01,0,.02,0h0s1.63-.84,1.63-.84c0,0,.52-.26.52-.26"/><g><path class="cls-4" d="m1.53,22.35c.32-1.43.5-3.13.42-4.57,0,0-2.14.16-2.37.16"/><path class="cls-4" d="m-.43,17.94c-.27.02-.51-.18-.54-.46s.18-.52.45-.55c0,0,.01,0,.02,0h0s1.81-.18,1.81-.18l.58-.05c-.2-1.45-.65-3.15-1.24-4.46,0,0-1.94.94-2.16,1.03"/></g><path class="cls-4" d="m1.11,17.84c.01.23.02.46.02.69,0,1.25-.15,2.46-.44,3.62-.09.35-.18.69-.29,1.02-.46,1.39-1.11,2.69-1.93,3.86-.2.29-.41.57-.64.84-.91,1.11-1.97,2.09-3.16,2.88-.29.19-.59.38-.89.55-1.22.69-2.56,1.21-3.96,1.51-.34.07-.68.13-1.02.18-.63.09-1.27.13-1.92.13-.79,0-1.56-.07-2.31-.19-.34-.06-.68-.13-1.02-.21-1.4-.34-2.72-.9-3.92-1.63-.3-.18-.59-.37-.87-.58-1.17-.83-2.2-1.83-3.08-2.97-.21-.28-.42-.57-.61-.86-.79-1.19-1.41-2.5-1.82-3.91-.1-.34-.19-.68-.27-1.03-.23-1.04-.35-2.12-.35-3.23,0-.37.01-.73.04-1.09"/><path class="cls-4" d="m-.1,12.6c.57,1.3.95,2.71,1.12,4.18"/></g></g><g><g><g class="cls-5"><g><g><path class="cls-1" d="m18.69,7.06l.07-1.53c-2.29-.87-4.75-1.39-7.32-1.49l-.43,1.33.02.35c2.66.06,5.21.62,7.55,1.57l.1-.23Z"/><path class="cls-1" d="m2,7.19l-.97-1.15c-2.33,1.04-4.45,2.46-6.29,4.16l.62,1.27.29.27c1.85-1.8,4.04-3.26,6.45-4.3l-.09-.26Z"/><path class="cls-1" d="m25.58,11.92l.22-.21.66-1.35c-1.8-1.7-3.87-3.12-6.14-4.17l-.92,1.07-.12.33c2.35,1.06,4.49,2.53,6.3,4.33Z"/><path class="cls-1" d="m10.3,5.72v-.26s-.53-1.43-.53-1.43c-.04,0-.09,0-.13,0-2.47.09-4.84.57-7.04,1.37l.05,1.44.13.31c2.16-.84,4.49-1.34,6.94-1.44.19,0,.39,0,.58,0Z"/><path class="cls-2" d="m18.59,7.29l-.31.71c-.16.03-.31.11-.42.24-.26.31-.23.77.08,1.03.31.26.77.23,1.04-.08.23-.26.23-.64.03-.91l.1-.28"/><path class="cls-1" d="m30.25,18.84l-.63.21c-.13-.1-.28-.15-.46-.15-.4.01-.72.35-.71.75.01.41.35.73.75.72.35,0,.63-.26.7-.59l.62-.25c.8,2.11,1.27,4.37,1.36,6.75,0,.19,0,.39,0,.58h-.57c-.09-.14-.22-.25-.38-.31-.38-.13-.8.08-.93.46-.13.39.08.8.46.93.33.11.68-.03.86-.31h0s.55-.02.55-.02c-.06,2.6-.59,5.09-1.51,7.38l-.56-.26c-.03-.16-.1-.31-.23-.42-.3-.27-.76-.25-1.04.05-.27.3-.25.76.05,1.04.26.23.64.25.91.06h0s.57.23.57.23c-1.03,2.34-2.48,4.47-4.24,6.28l-.49-.5c.03-.16.02-.32-.06-.48-.18-.36-.62-.51-.99-.32-.36.18-.51.62-.32.99.16.31.5.46.83.38h0s.5.47.5.47c-1.84,1.77-4,3.21-6.38,4.23l-.27-.79c.1-.13.15-.29.15-.46-.01-.4-.35-.72-.75-.71-.41.01-.73.35-.71.75,0,.35.26.63.59.7h0s.32.79.32.79c-2.16.84-4.49,1.34-6.93,1.43-.22,0-.44,0-.65,0l.06-.81c.14-.08.25-.2.32-.36.15-.38-.03-.8-.41-.95-.38-.15-.8.03-.95.41-.13.32-.01.68.26.87h0s-.02.84-.02.84c-2.64-.07-5.16-.62-7.49-1.57l.35-.76c.16-.03.31-.1.42-.23.27-.3.25-.76-.05-1.04-.3-.27-.76-.25-1.04.05-.23.26-.25.64-.06.91h0s-.31.77-.31.77c-2.35-1.06-4.48-2.53-6.3-4.33l.48-.46c.16.04.32.02.48-.05.36-.18.52-.62.34-.98-.18-.36-.61-.52-.98-.34-.31.15-.47.5-.39.82h0s-.45.47-.45.47c-1.71-1.82-3.11-3.94-4.11-6.29l.52-.19c.13.09.29.15.46.14.4-.02.72-.36.7-.77-.02-.41-.36-.72-.77-.7-.35.02-.63.27-.68.6h0s-.51.22-.51.22c-.82-2.13-1.31-4.43-1.4-6.84,0-.17,0-.33,0-.49h.55c.09.14.22.25.38.3.39.13.8-.08.93-.47.13-.39-.08-.8-.47-.93-.33-.11-.68.03-.86.32h0s-.53.02-.53.02c.05-2.59.57-5.08,1.48-7.38l.54.26c.02.16.1.31.22.43.3.28.76.26,1.04-.03.28-.3.26-.76-.03-1.04"/><path class="cls-2" d="m11.04,5.72l.04.74c.29.17.43.52.32.85-.12.39-.54.6-.92.47-.39-.12-.6-.54-.47-.92.05-.16.16-.29.29-.38"/><path class="cls-2" d="m2.09,7.44l.25.71c-.09.13-.15.29-.14.46.02.4.36.72.76.71s.72-.36.71-.76c-.01-.35-.27-.63-.6-.69l-.29-.7"/><path class="cls-1" d="m2.78,7.16c2.16-.84,4.49-1.34,6.94-1.44.19,0,.39,0,.58,0v.77c-.14.09-.24.22-.3.38-.12.39.09.8.47.92.39.12.8-.09.92-.47"/><path class="cls-1" d="m-4.88,12.27l.48.51c-.04.16-.02.32.05.48.18.36.62.52.98.34.37-.18.52-.61.34-.98-.15-.31-.5-.47-.82-.39l-.51-.48c1.85-1.8,4.04-3.26,6.45-4.3l.25.71c-.09.13-.15.29-.14.46.02.4.36.72.76.71s.72-.36.71-.76"/><path class="cls-1" d="m18.98,9.2c-.26.31-.73.34-1.04.08-.31-.26-.34-.73-.08-1.03.11-.13.26-.21.42-.24"/><path class="cls-2" d="m19.1,8.06l.17-.47c2.35,1.06,4.49,2.53,6.3,4.33l-.52.49c-.16-.03-.32-.02-.48.05-.37.18-.52.62-.34.98.18.37.62.52.98.34.31-.15.47-.5.39-.82l.49-.51"/></g><line class="cls-2" x1=".23" y1="8.33" x2="-.66" y2="6.88"/><line class="cls-2" x1="3.99" y1="6.75" x2="3.45" y2="5.15"/><line class="cls-2" x1="6.01" y1="6.22" x2="5.66" y2="4.53"/><line class="cls-2" x1="8.44" y1="5.81" x2="8.2" y2="4.13"/><line class="cls-2" x1="12.05" y1="5.78" x2="12.3" y2="4.15"/><line class="cls-2" x1="14.28" y1="6.09" x2="14.57" y2="4.39"/><line class="cls-2" x1="16.68" y1="6.62" x2="17.08" y2="4.96"/><line class="cls-2" x1="20.2" y1="8" x2="21.06" y2="6.59"/></g></g><text class="cls-6" transform="translate(1.86 13.58)"><tspan x="0" y="0">TURBO</tspan><tspan x=".92" y="4.98">LÁSER</tspan></text></g><path class="cls-7" d="m19.94,1.04v18.89H1.06V1.04h18.89M21-.02H0v21h21V-.02h0Z"/></g></svg>