<?xml version="1.0" encoding="UTF-8"?><svg id="Capa_1" xmlns="http://www.w3.org/2000/svg" viewBox="0 0 21 21"><defs><style>.cls-1{fill:#be1622;}.cls-2{fill:none;stroke:#1d1d1b;stroke-miterlimit:10;stroke-width:.68px;}.cls-3{fill:#1d1d1b;}</style></defs><g><path class="cls-2" d="m18.03,8.6l-1.91-3.32c-.15-.27-.5-.36-.76-.2l-.67.39c-.46-.36-.96-.65-1.51-.87v-1.01c0-.31-.25-.56-.56-.56h-3.83c-.31,0-.56.25-.56.56v1.07c-.45.2-.87.44-1.26.73-.02-.02-.05-.04-.08-.06l-1.04-.6c-.26-.15-.61-.06-.76.2l-1.91,3.32c-.15.27-.06.61.2.76l1.04.6s.03.01.04.02c-.04.28-.06.58-.06.87,0,.16,0,.32.02.47-.07,0-.14.03-.2.07l-1.04.6c-.27.15-.36.5-.2.76l1.91,3.32c.15.27.5.36.76.2l.99-.57c.36.31.76.58,1.19.8,0,.02,0,.04,0,.06v1.2c0,.31.25.56.56.56h3.83c.31,0,.56-.25.56-.56v-.86c.55-.18,1.07-.44,1.55-.76l.84.48c.27.15.61.06.76-.2l1.91-3.32c.15-.26.06-.61-.2-.76l-.58-.34c.07-.38.11-.76.11-1.16,0-.24-.01-.48-.04-.72l.73-.42c.26-.15.36-.5.2-.76Zm-2.74,1.9c0,2.65-2.15,4.8-4.8,4.8s-4.8-2.15-4.8-4.8,2.15-4.8,4.8-4.8,4.8,2.15,4.8,4.8Z"/><path class="cls-3" d="m9.09,10.34l-1.44,2.49s-.06.05-.09.05v-2.12h-1.44c-.08,0-.14-.09-.09-.16l1.44-2.49s.06-.05.09-.05v2.12h1.44c.08,0,.14.09.09.16Z"/><path class="cls-3" d="m12.03,10.34l-1.44,2.49s-.06.05-.09.05v-2.12h-1.44c-.08,0-.14-.09-.09-.16l1.44-2.49s.06-.05.09-.05v2.12h1.44c.08,0,.14.09.09.16Z"/><path class="cls-3" d="m15.2,10.34l-1.44,2.49s-.06.05-.09.05v-2.12h-1.44c-.08,0-.14-.09-.09-.16l1.44-2.49s.06-.05.09-.05v2.12h1.44c.08,0,.14.09.09.16Z"/></g><path class="cls-1" d="m19.94,1.06v18.89H1.06V1.06h18.89M21,0H0v21h21V0h0Z"/></svg>