<?xml version="1.0" encoding="UTF-8"?><svg id="Capa_1" xmlns="http://www.w3.org/2000/svg" viewBox="0 0 21 21"><defs><style>.cls-1{stroke-width:.01px;}.cls-1,.cls-2,.cls-3,.cls-4,.cls-5,.cls-6,.cls-7,.cls-8,.cls-9,.cls-10,.cls-11,.cls-12,.cls-13,.cls-14,.cls-15,.cls-16,.cls-17,.cls-18,.cls-19{stroke:#1d1d1b;stroke-miterlimit:10;}.cls-1,.cls-2,.cls-3,.cls-4,.cls-5,.cls-6,.cls-7,.cls-8,.cls-9,.cls-10,.cls-11,.cls-13,.cls-14,.cls-15,.cls-16,.cls-18,.cls-19{fill:none;}.cls-2{stroke-width:.02px;}.cls-3{stroke-width:0px;}.cls-4{stroke-width:.02px;}.cls-20{fill:#be1622;}.cls-5{stroke-width:0px;}.cls-6{stroke-width:.04px;}.cls-7{stroke-width:0px;}.cls-8{stroke-width:0px;}.cls-9{stroke-width:0px;}.cls-10{stroke-width:.01px;}.cls-11{stroke-width:.01px;}.cls-12{stroke-width:.07px;}.cls-12,.cls-17{fill:#f6f6f6;}.cls-13{stroke-width:0px;}.cls-14{stroke-width:0px;}.cls-15{stroke-width:.02px;}.cls-16{stroke-width:.07px;}.cls-17{stroke-width:.07px;}.cls-18{stroke-width:0px;}.cls-19{stroke-width:.07px;}</style></defs><path class="cls-20" d="m19.94,1.06v18.89H1.06V1.06h18.89M21,0H0v21h21V0h0Z"/><g><path class="cls-19" d="m4.21,5.12c-.28.2-.44.41-.54.57-.15.24-.25.54-.38.53-.02,0-.08-.03-.21-.1-.08-.04-.11-.06-.17-.06-.05,0-.09.03-.12.05-.03.02-.1.07-.14.17,0,.02-.03.09-.02.18.02.09.07.16.09.18.08.09.15.09.17.15.01.05-.02.1-.03.12-.14.22-.22.48-.39.67-.21.24-.31.63-.51,1.41,0,0-.25.96-.26,2.06,0,.53,0,.79.05.91.02.03.07.14.03.23-.03.07-.1.11-.15.13-.11.06-.15.02-.2.07-.06.06-.05.16-.04.28,0,.09.01.17.06.21.04.04.1.03.15.02.16-.01.22.05.38.08.1.02.22.03.52,0,.33-.05,2.48-.39,5.43-.88l.09-.02"/><path class="cls-19" d="m11.2,11.43c2.32-.48,3.16-.64,3.25-.63.07,0,.1,0,.17-.01.07,0,.1-.02.12-.03.09-.08.07-.35-.03-.4-.07-.04-.15.05-.2,0-.04-.03-.02-.11-.01-.18.02-.14,0-.28,0-.42,0-.24-.07-.85-.22-1.48-.2-.87-.34-.97-.48-1.5-.05-.18-.09-.39-.24-.48-.04-.02-.1-.05-.1-.09,0-.05.07-.07.17-.16.07-.07.15-.14.17-.23.02-.13-.11-.33-.27-.31-.11,0-.12.18-.22.2-.13.03-.26-.18-.3-.23-.26-.39-.67-.61-.98-.96-.55-.62-2.06-.98-3.16-1.03-.5-.02-2.27-.09-3.96,1.08-.3.21-.54.42-.7.57"/><path class="cls-19" d="m1.81,13.03c-.05.15-.12.2-.17.21-.07.03-.11-.01-.2.01-.08.02-.19.08-.19.14,0,.07.13.12.17.14.31.12,4.19-.68,6.9-1.26"/><path class="cls-19" d="m10.97,11.75c2.34-.45,3.34-.63,3.42-.64,0,0,.03,0,.06-.01.04-.01.11-.03.16-.1.05-.06.05-.14.05-.17"/><path class="cls-17" d="m2.3,13.49c.06.04.13.1.2.2.08.11.11.22.11.24.09.29.52.91.66,1.11.57.77,1.37,1.29,1.45,1.34,1.62,1.03,3.79,1.06,5.42.13.28-.16.5-.32.63-.42"/><path class="cls-12" d="m13.97,11.17c-.06.26-.13.55-.22.85-.17.57-.38,1.05-.59,1.45"/><polyline class="cls-16" points="10.77 16.55 10.97 14.08 17.68 12.43 14.66 11.17 14.03 11.29 13.93 11.31"/><line class="cls-19" x1="10.95" y1="14.13" x2="14.26" y2="16.66"/><line class="cls-15" x1="11.55" y1="13.96" x2="15.1" y2="16.7"/><line class="cls-15" x1="12.05" y1="13.81" x2="15.73" y2="16.61"/><line class="cls-15" x1="12.59" y1="13.72" x2="16.08" y2="16.55"/><path class="cls-19" d="m7.72,12.47c.08.07.51.4,1.11.31.54-.08.85-.44.93-.54"/><path class="cls-19" d="m6.63,12.73c.09.1.96,1.04,2.22.86.95-.13,1.76-.84,2.11-1.83"/><path class="cls-19" d="m5.64,12.91c.06.09,1.24,1.73,3.13,1.54,1.41-.15,2.62-1.26,3.03-2.8"/><path class="cls-19" d="m4.49,4.92c.06.2.14.5.21.88.12.7.08,1,.14,1.66.04.43.1,1.1.36,1.86.2.59.36,1.07.8,1.47.45.41.96.53,1.23.57"/><path class="cls-19" d="m4.28,5.06c.05.18.12.44.17.77.1.58.07.78.13,1.47.04.4.08.91.23,1.54.07.3.16.66.35,1.1.16.36.3.69.61,1.02.15.17.42.45.86.6.33.11.62.11.79.09"/><path class="cls-19" d="m7.04,4.49c-.08.1-.2.27-.31.5-.5.99-.38,2.02-.33,2.39.03.2.08.5.2.86"/><path class="cls-16" d="m8.74,3.72c-.22.13-.57.36-.86.78-.13.19-.21.36-.29.53-.05.12-.23.52-.39,1.31-.06.28-.1.62-.19,1.3-.07.51-.1.77-.11.94-.04.57-.07.99.06,1.5.1.41.27.72.39.92.19.31.52.82,1.11,1.02.68.23,1.28-.09,1.41-.15.92-.48,1.21-1.59,1.37-2.2.29-1.13.12-2.06,0-2.68-.08-.45-.24-1.26-.79-2.1-.14-.21-.31-.42-.31-.42-.32-.39-.52-.64-.8-.78-.59-.3-1.42-.08-1.74.37-.02.03-.12.19-.3.49-.12.2-.19.32-.27.49-.06.14-.1.25-.12.29-.09.24-.14.46-.18.63,0,.02,0,.04-.02.07,0,0-.16.72-.09,1.12,0,.04.01.08.01.08.02.08.04.15.06.2"/><path class="cls-16" d="m7.51,5.47c-.07.44-.11.82-.14,1.12-.07.83-.04,1.24-.02,1.43.01.14.03.25.04.33"/><path class="cls-16" d="m9.01,3.76c-.21.14-.52.37-.81.74-.11.14-.26.34-.38.62-.15.35-.18.7-.22,1.4-.01.17-.03.58-.03,1.14,0,.42.02.77.04,1.04"/><path class="cls-16" d="m7.08,7.98c.07.17.19.41.41.65.14.15.37.41.76.54.49.17.91.03,1.06-.03.42-.16.66-.46.79-.63.31-.4.41-.8.46-1.03.15-.63.07-1.15.02-1.43-.09-.54-.28-.93-.36-1.08-.06-.12-.17-.33-.36-.55-.17-.21-.58-.7-1.05-.75-.75-.08-1.48.98-1.73,1.78-.13.4-.18.88-.24,1.42-.04.33-.06.64-.08.92-.04.53-.06.79-.06,1.06,0,.38,0,.84.14,1.41.13.56.32.89.37.98.16.28.31.44.37.5.02.02.18.18.37.29.55.34,1.19.27,1.36.24.19-.03.7-.13,1.18-.55.49-.43.67-.94.78-1.25.05-.16.17-.52.21-1.59.04-1.14.06-1.7-.1-2.37-.18-.69-.46-1.2-.73-1.71-.24-.45-.37-.67-.55-.84-.5-.47-1.34-.74-2.11-.4-.54.25-.83.71-.94.91"/><path class="cls-16" d="m7.01,8.36c.08.14.21.34.41.53.26.25.51.36.64.42.17.07.57.23,1.07.11.48-.11.78-.4.92-.53.37-.36.51-.76.58-.94.11-.32.13-.59.17-1.13.04-.59,0-.86-.03-.98-.05-.23-.12-.41-.17-.54"/><path class="cls-16" d="m6.98,8.89c.07.13.18.31.32.5.11.15.26.35.49.55.19.16.45.39.86.48.36.08.65.01.79-.02.08-.02.45-.12.82-.43.28-.24.42-.49.65-.87.26-.45.32-.71.33-.77.05-.23.05-.44.04-.58"/><path class="cls-16" d="m7.4,9.07c.08.15.2.35.39.56.14.15.38.39.76.52.5.17.92.03,1.03,0,.5-.18.77-.55.93-.79.33-.47.43-.93.48-1.18.12-.57.06-1.02.03-1.24-.02-.19-.03-.4-.13-.63-.03-.08-.06-.14-.09-.18"/><path class="cls-16" d="m7.47,9.76c.05.14.13.34.22.59.19.51.23.6.28.69.11.22.22.43.44.63.18.17.37.27.5.32"/><path class="cls-16" d="m7.78,10.04c.1.37.29.86.65,1.28.19.23.36.35.52.43.12.06.33.16.6.12.07-.01.13-.03.17-.05"/><path class="cls-16" d="m7.6,11.35c.06,0,.13-.03.21-.05.1-.03.18-.08.25-.12"/><path class="cls-16" d="m7.77,11.55c.08-.01.17-.04.27-.09.05-.02.09-.05.12-.07"/><path class="cls-16" d="m9.82,11.72c-.09-.01-.16-.01-.22,0-.1,0-.16.02-.21-.02-.04-.03-.06-.08-.07-.1-.03-.08-.02-.15.02-.32.05-.24.06-.27.05-.32,0-.11-.05-.2-.08-.25"/><path class="cls-16" d="m8.99,10.52s-.14-.07-.26-.04c-.08.02-.13.05-.14.06-.08.06-.12.14-.15.22-.03.06-.05.13-.06.19-.01.04-.02.08-.03.1"/><path class="cls-16" d="m9.08,10.51s-.08.07-.14.12c-.09.08-.1.1-.2.19-.1.1-.16.14-.24.19-.07.04-.13.07-.17.08"/><path class="cls-16" d="m9.4,10.46s-.08.1-.13.16c-.05.06-.12.14-.2.2-.12.1-.17.1-.34.2-.07.04-.18.11-.29.21"/><path class="cls-16" d="m8.76,11.05c-.04.09-.03.19.02.26.09.11.24.05.25.04.13-.05.16-.19.17-.22.01-.04.04-.14-.01-.2-.03-.04-.08-.05-.1-.06"/><ellipse class="cls-6" cx="9" cy="11.12" rx=".04" ry=".02"/><line class="cls-15" x1="13.65" y1="13.4" x2="17.18" y2="16.16"/><line class="cls-15" x1="12.89" y1="13.61" x2="16.44" y2="16.34"/><line class="cls-15" x1="13.27" y1="13.53" x2="16.95" y2="16.33"/><line class="cls-15" x1="14.1" y1="13.34" x2="17.6" y2="16.16"/><line class="cls-15" x1="14.46" y1="13.26" x2="18.01" y2="15.99"/><line class="cls-15" x1="14.69" y1="13.14" x2="18.37" y2="15.94"/><line class="cls-15" x1="15.48" y1="13.01" x2="18.97" y2="15.83"/><line class="cls-15" x1="15.11" y1="13.1" x2="18.66" y2="15.83"/><line class="cls-15" x1="15.8" y1="12.92" x2="19.48" y2="15.72"/><line class="cls-4" x1="16.16" y1="12.79" x2="19.75" y2="15.45"/><line class="cls-19" x1="17.38" y1="12.32" x2="13.33" y2="13.26"/><line class="cls-2" x1="14.03" y1="11.31" x2="16.44" y2="12.53"/><line class="cls-1" x1="14.24" y1="11.29" x2="16.71" y2="12.47"/><line class="cls-13" x1="13.61" y1="12.35" x2="14.55" y2="13"/><line class="cls-11" x1="14.37" y1="11.25" x2="16.85" y2="12.44"/><line class="cls-3" x1="13.52" y1="12.53" x2="14.25" y2="13.05"/><line class="cls-10" x1="14.5" y1="11.22" x2="17.13" y2="12.34"/><line class="cls-9" x1="13.72" y1="12.04" x2="15.13" y2="12.85"/><line class="cls-8" x1="13.78" y1="11.92" x2="15.32" y2="12.76"/><line class="cls-7" x1="13.83" y1="11.63" x2="15.81" y2="12.68"/><line class="cls-5" x1="13.8" y1="11.78" x2="15.53" y2="12.71"/><line class="cls-14" x1="13.65" y1="12.24" x2="14.81" y2="12.92"/><line class="cls-18" x1="13.89" y1="11.46" x2="16.13" y2="12.58"/></g></svg>