<?xml version="1.0" encoding="UTF-8"?><svg id="Capa_1" xmlns="http://www.w3.org/2000/svg" xmlns:xlink="http://www.w3.org/1999/xlink" viewBox="0 0 21 21"><defs><style>.cls-1{font-family:Poppins-Bold, Poppins;font-size:5px;font-weight:700;}.cls-1,.cls-2{fill:#1d1d1b;}.cls-3{stroke-linejoin:round;stroke-width:.46px;}.cls-3,.cls-4,.cls-5,.cls-6{fill:none;}.cls-3,.cls-6{stroke:#010101;}.cls-7{clip-path:url(#clippath-1);}.cls-4{stroke:#1e1e1c;}.cls-4,.cls-6{stroke-miterlimit:10;stroke-width:.45px;}.cls-8{clip-path:url(#clippath);}</style><clipPath id="clippath"><rect class="cls-5" x="-25.74" y="1.75" width="20.27" height="17.5"/></clipPath><clipPath id="clippath-1"><rect class="cls-5" x="26.22" y="-23.65" width="20.41" height="17.91"/></clipPath></defs><g class="cls-8"><g><g><path class="cls-3" d="m7.33,17.84c1.31,2.35,2.28,4.94,2.84,7.71"/><path class="cls-3" d="m1.61,10.76c2.04,1.76,3.83,3.86,5.3,6.28"/><path class="cls-3" d="m-6.19,6.07c2.52.96,4.92,2.31,7.13,4.09"/></g><path class="cls-3" d="m6.92,17.04l.56-.74c-1.38-2.22-3.06-4.2-4.99-5.92l-.88.39-.42.19c-.34.34-.68.67-1.01,1.01-.19.19-1.09,1.1-1.25,1.27l-.12.12c-.16.16-.16.43,0,.61.31.35.91.08.89-.4,0-.03.05-.04.05,0,.06.55-.63.89-1.04.51-.24-.21-.27-.6-.07-.84l.11-.14.23-.27,1.82-2.19.41-1.32.02-.06-.28.9.27-.88c-2.06-1.61-4.31-2.9-6.71-3.86l-.69.66-.33.32c-.2.43-.41.86-.6,1.3-.11.24-.65,1.41-.74,1.62l-.07.16c-.09.2,0,.46.21.57.41.22.88-.24.7-.68-.01-.03.03-.05.05-.02.24.5-.29,1.06-.8.84-.3-.11-.46-.47-.35-.77l.06-.17.12-.33.96-2.68-.07-1.38v-.06s.04.94.04.94l-.05-.92c-2.49-.81-5.04-1.26-7.63-1.33l-.42.86-.2.42c-.04.47-.09.95-.12,1.42-.02.26-.13,1.54-.15,1.78v.17c-.03.22.14.43.38.46.46.06.75-.53.42-.88-.02-.02.01-.06.04-.04.4.39.09,1.09-.46,1.06-.32,0-.59-.29-.6-.6v-.18s0-.36,0-.36v-2.85s-.55-1.27-.55-1.27l-.02-.05.37.87-.36-.85c-2.61.09-5.17.54-7.62,1.36l-.1.95-.05.46c.12.46.24.92.37,1.38.07.26.41,1.49.47,1.72l.05.17c.06.22.29.35.53.3.46-.1.52-.75.1-.97-.03-.01,0-.06.02-.05.51.23.46.99-.07,1.15-.3.1-.66-.07-.77-.36l-.06-.17-.12-.33-.99-2.67-.94-1.01-.04-.04.64.69-.63-.68c-2.43.98-4.67,2.28-6.7,3.89l.23.93.11.45c.27.39.54.78.82,1.17.15.22.9,1.26,1.03,1.46l.1.14c.13.18.4.23.6.1.4-.25.24-.88-.24-.94-.03,0-.03-.05,0-.05.55.04.77.78.32,1.11-.25.2-.64.16-.84-.08l-.12-.14-.23-.27-1.84-2.17-1.23-.63-.05-.03.84.43-.82-.42c-1.95,1.75-3.61,3.74-4.97,5.94l.53.8.26.38c.39.27.78.55,1.17.82.22.15,1.27.88,1.47,1.02l.14.1c.18.13.45.08.6-.11.29-.37-.08-.91-.55-.8-.03,0-.04-.04-.01-.05.53-.15.99.47.68.93-.16.27-.54.37-.82.21l-.16-.09-.31-.18-2.47-1.41-1.37-.17h-.06s.94.11.94.11l-.92-.11c-1.23,2.31-2.11,4.75-2.63,7.28l.77.56.37.27c.46.12.92.25,1.38.37.26.07,1.5.39,1.73.45l.17.04c.22.06.45-.08.52-.31.14-.44-.39-.83-.79-.57-.03.02-.06-.02-.03-.04.45-.33,1.09.1.96.64-.06.31-.38.53-.7.48l-.18-.03-.35-.06-2.81-.48-1.35.31h-.06s.92-.2.92-.2l-.9.21c-.37,2.59-.36,5.18.01,7.74l.92.27.45.13c.47-.04.95-.08,1.42-.13.26-.02,1.54-.14,1.78-.17l.17-.02c.22-.02.4-.23.39-.47-.02-.47-.65-.65-.94-.26-.02.03-.06,0-.04-.03.31-.46,1.06-.28,1.12.27.05.31-.18.63-.49.69l-.18.03-.35.06-2.8.51-1.16.75-.05.03.79-.51-.78.5c.54,2.56,1.43,4.99,2.66,7.27l.96-.06.46-.03c.43-.2.87-.4,1.29-.6.24-.11,1.4-.66,1.61-.76l.16-.07c.2-.1.3-.35.21-.57-.18-.43-.83-.39-.97.07,0,.03-.06.02-.05-.01.13-.54.9-.62,1.15-.13.15.28.05.66-.22.82l-.15.09-.31.18-2.46,1.43-.83,1.1-.04.05.57-.75-.56.74c1.38,2.22,3.06,4.2,4.99,5.92l.88-.39.42-.19c.34-.34.68-.67,1.01-1.01.19-.19,1.09-1.1,1.25-1.27l.12-.12c.16-.16.16-.43,0-.61-.31-.35-.91-.08-.89.4,0,.03-.05.04-.05,0-.06-.55.63-.89,1.04-.51.24.21.27.6.07.84l-.11.14-.23.27-1.82,2.19-.41,1.32-.02.06.28-.9-.27.88c2.06,1.61,4.31,2.9,6.71,3.86l.69-.66.33-.32c.2-.43.41-.86.6-1.3.11-.24.65-1.41.74-1.62l.07-.16c.09-.2,0-.46-.21-.57-.41-.22-.88.24-.7.68.01.03-.03.05-.05.02-.24-.5.29-1.06.8-.84.3.11.46.47.35.77l-.06.17-.12.33-.96,2.68.07,1.38v.06s-.04-.94-.04-.94l.05.92c2.49.81,5.04,1.26,7.63,1.33l.42-.86.2-.42c.04-.47.09-.95.12-1.42.02-.26.13-1.54.15-1.78v-.17c.03-.22-.14-.43-.38-.46-.46-.06-.75.53-.42.88.02.02-.01.06-.04.04-.4-.39-.09-1.09.46-1.06.32,0,.59.29.6.6v.18s0,.36,0,.36v2.85s.55,1.27.55,1.27l.02.05-.37-.87.36.85c2.61-.09,5.17-.54,7.62-1.36l.1-.95.05-.46c-.12-.46-.24-.92-.37-1.38-.07-.26-.41-1.49-.47-1.72l-.05-.17c-.06-.22-.29-.35-.53-.3-.46.1-.52.75-.1.97.03.01,0,.06-.02.05-.51-.23-.46-.99.07-1.15.3-.1.66.07.77.36l.06.17.12.33.99,2.67.94,1.01.04.04-.64-.69.63.68c2.43-.98,4.67-2.28,6.7-3.89l-.23-.93-.11-.45c-.27-.39-.54-.78-.82-1.17-.15-.22-.9-1.26-1.03-1.46l-.1-.14c-.13-.18-.4-.23-.6-.1-.4.25-.24.88.24.94.03,0,.03.05,0,.05-.55-.04-.77-.78-.32-1.11.25-.2.64-.16.84.08l.12.14.23.27,1.84,2.17,1.23.63.05.03-.84-.43.82.42c1.95-1.75,3.61-3.74,4.97-5.94l-.53-.8-.26-.38c-.39-.27-.78-.55-1.17-.82-.22-.15-1.27-.88-1.47-1.02l-.14-.1c-.18-.13-.45-.08-.6.11-.29.37.08.91.55.8.03,0,.04.04.01.05-.53.15-.99-.47-.68-.93.16-.27.54-.37.82-.21l.16.09.31.18,2.47,1.41,1.37.17h.06s-.94-.11-.94-.11l.92.11c1.23-2.31,2.11-4.75,2.63-7.28l-.77-.56-.37-.27c-.46-.12-.92-.25-1.38-.37-.26-.07-1.5-.39-1.73-.45l-.17-.04c-.22-.06-.45.08-.52.31-.14.44.39.83.79.57.03-.02.06.02.03.04-.45.33-1.09-.1-.96-.64.06-.31.38-.53.7-.48l.18.03.35.06,2.81.48,1.35-.31h.06s-.92.2-.92.2l.9-.21c.37-2.59.36-5.18-.01-7.74l-.92-.27-.45-.13c-.47.04-.95.08-1.42.13-.26.02-1.54.14-1.78.17l-.17.02c-.22.02-.4.23-.39.47.02.47.65.65.94.26.02-.03.06,0,.04.03-.31.46-1.06.28-1.12-.27-.05-.31.18-.63.49-.69l.18-.03.35-.06,2.8-.51,1.16-.75.05-.03-.79.51.78-.5c-.54-2.56-1.43-4.99-2.66-7.27l-.96.06-.46.03c-.43.2-.87.4-1.29.6-.24.11-1.4.66-1.61.76l-.16.07c-.2.1-.3.35-.21.57.18.43.83.39.97-.07,0-.03.06-.02.05.01-.13.54-.9.62-1.15.13-.15-.28-.05-.66.22-.82l.15-.09.31-.18,2.46-1.43.83-1.1.04-.05"/></g></g><g><g><g><rect class="cls-2" x="11.7" y="8.65" width="2.06" height=".27"/><rect class="cls-2" x="5.85" y="8.65" width="2.07" height=".27"/><rect class="cls-2" x="9.31" y="2.2" width="1" height="4.69"/><rect class="cls-2" x="9.56" y="10.68" width=".5" height="2.14"/><rect class="cls-2" x="7.54" y="3.16" width=".5" height="4.27" transform="translate(-1.6 4.61) rotate(-30.02)"/><rect class="cls-2" x="11.04" y="10.28" width=".5" height="2.14" transform="translate(-4.16 7.16) rotate(-30)"/><polygon class="cls-2" points="8.09 7.97 6.24 6.9 6.39 6.64 8.24 7.71 8.09 7.97"/><polygon class="cls-2" points="13.69 11.2 11.37 9.86 11.52 9.6 13.84 10.94 13.69 11.2"/><rect class="cls-2" x="3.64" y="8.54" width="4.27" height=".5"/><rect class="cls-2" x="11.7" y="8.54" width="4.27" height=".5"/><rect class="cls-2" x="5.67" y="10.25" width="2.68" height=".3" transform="translate(-4.27 4.91) rotate(-30.07)"/><polygon class="cls-2" points="11.52 7.97 11.37 7.71 13.9 6.25 14.05 6.51 11.52 7.97"/><rect class="cls-2" x="7.26" y="11.1" width="2.14" height=".5" transform="translate(-5.66 12.89) rotate(-60.03)"/><rect class="cls-2" x="9.68" y="5.05" width="4.27" height=".5" transform="translate(1.33 12.89) rotate(-60.03)"/><path class="cls-5" d="m11.45,7.84c-.17-.29-.41-.53-.69-.69-.28-.16-.6-.25-.95-.25s-.67.09-.95.25c-.29.17-.53.4-.69.69-.16.28-.25.6-.25.95s.09.67.25.94c.17.29.41.53.69.69.28.16.6.25.95.25s.67-.09.95-.25c.29-.16.53-.4.69-.69.16-.28.25-.6.25-.95s-.09-.67-.25-.95Zm-.69,1.5c-.09.17-.24.31-.4.4-.16.09-.35.15-.55.15s-.39-.05-.55-.15c-.17-.09-.31-.23-.4-.4-.09-.16-.15-.35-.15-.55s.05-.39.15-.55c.09-.17.23-.31.4-.4.16-.09.35-.15.55-.15s.39.05.55.15c.17.09.3.23.4.4.09.16.15.35.15.55s-.05.39-.15.55Z"/><path class="cls-2" d="m11.32,8.79c0,.28-.07.53-.2.75-.13.23-.32.42-.56.55-.22.13-.48.21-.75.21s-.53-.07-.75-.21c-.23-.13-.43-.32-.56-.55-.13-.22-.2-.48-.2-.75s.07-.53.21-.76c.13-.23.32-.42.55-.55.22-.13.48-.21.76-.21s.54.07.76.21c.23.13.42.32.55.55.13.22.21.48.21.76Z"/></g><text class="cls-1" transform="translate(2.95 17.55)"><tspan x="0" y="0">LASER</tspan></text></g><path class="cls-2" d="m19.94,1.06v18.89H1.06V1.06h18.89M21,0H0v21h21V0h0Z"/></g><g class="cls-7"><g><path class="cls-6" d="m47.15-18.14c1.56.56,2.72,1.12,3.48,1.53,1.25.67,2.81,1.66,3.2,1.9l-.8,1.21s-.02.11.02.15l.51.37h0s-1.17,1.59-1.17,1.59h0c-.1.13-.07.32.06.41.13.1.32.07.41-.06l1.17-1.59.51.37s.11.02.15-.02l.91-1.12c1.31,1.02,2.24,1.91,2.84,2.54.98,1.02,2.16,2.45,2.45,2.8l-1.13.9s-.06.1-.02.15l.37.51h0s-1.6,1.15-1.6,1.15h0c-.13.09-.16.28-.07.41.1.13.28.16.41.07l1.6-1.15.37.51s.1.06.15.02l1.21-.78c.93,1.37,1.54,2.51,1.91,3.29.62,1.27,1.3,3,1.47,3.42l-1.35.51c-.06.02-.09.08-.07.13l.19.6h0s-1.88.6-1.88.6h0c-.16.05-.24.22-.19.37.05.16.22.24.37.19l1.88-.6.19.6c.02.06.08.09.13.07l1.4-.37h0c.46,1.59.69,2.86.8,3.72.19,1.4.31,3.25.34,3.7l-1.44.07c-.06,0-.11.05-.11.1v.63s0,0,0,0h-1.97s0-.01,0-.01c-.16,0-.3.13-.3.29,0,.16.13.3.29.3h1.97s0,.64,0,.64c0,.06.05.11.1.11l1.44.08c-.05,1.66-.23,2.93-.38,3.79-.25,1.39-.71,3.19-.82,3.63l-1.39-.38c-.06-.02-.11.01-.13.07l-.2.6h0s-1.88-.62-1.88-.62h0c-.16-.05-.32.03-.37.19-.05.16.03.32.19.37l1.87.62-.2.6c-.02.06.01.11.07.13l1.34.52c-.56,1.56-1.13,2.72-1.54,3.48-.67,1.25-1.66,2.81-1.9,3.2l-1.21-.8s-.11-.02-.15.02l-.37.51h0s-1.59-1.17-1.59-1.17h0c-.13-.1-.32-.07-.41.06-.1.13-.07.32.06.41l1.59,1.17-.37.51s-.02.11.02.15l1.12.91c-1.02,1.31-1.91,2.24-2.54,2.84-1.02.98-2.45,2.16-2.8,2.45l-.9-1.13s-.1-.06-.15-.02l-.51.37h0s-1.15-1.6-1.15-1.6h0c-.1-.13-.28-.16-.41-.07-.13.1-.16.28-.07.41l1.15,1.6-.51.37s-.06.1-.02.15l.78,1.21c-1.37.93-2.51,1.54-3.29,1.91-1.27.62-3,1.3-3.42,1.47l-.51-1.35c-.02-.06-.08-.09-.13-.07l-.6.19h0s-.6-1.88-.6-1.88h0c-.05-.16-.22-.24-.37-.19-.16.05-.24.22-.19.37l.6,1.88-.6.19c-.06.02-.09.08-.07.13l.37,1.39c-1.59.46-2.86.69-3.72.8-1.4.19-3.25.31-3.7.34l-.07-1.44c0-.06-.05-.11-.1-.11h-.63s0,0,0,0v-1.97s.01,0,.01,0c0-.16-.13-.3-.29-.3-.16,0-.3.13-.3.29v1.97s-.64,0-.64,0c-.06,0-.11.05-.11.1l-.08,1.44c-1.66-.05-2.93-.23-3.79-.39-1.39-.25-3.19-.71-3.63-.82l.38-1.39c.02-.06-.01-.11-.07-.13l-.6-.2h0s.62-1.88.62-1.88h0c.05-.15-.03-.32-.19-.37-.16-.05-.32.03-.37.19l-.62,1.87-.6-.2c-.06-.02-.11.01-.13.07l-.52,1.35c-1.56-.56-2.72-1.13-3.48-1.54-1.25-.67-2.81-1.66-3.2-1.9l.8-1.21s.02-.11-.02-.15l-.51-.37h0s1.17-1.59,1.17-1.59h0c.1-.13.07-.32-.06-.41-.13-.1-.32-.07-.41.06l-1.17,1.59-.51-.37s-.11-.02-.15.02l-.91,1.11c-1.31-1.02-2.24-1.91-2.84-2.53-.98-1.02-2.16-2.45-2.45-2.8l1.13-.9s.06-.1.02-.15l-.37-.51h0s1.6-1.15,1.6-1.15h0c.13-.09.16-.28.07-.41-.1-.13-.28-.16-.41-.07l-1.6,1.15-.37-.51s-.1-.06-.15-.02l-1.21.78c-.93-1.37-1.54-2.51-1.92-3.29-.62-1.27-1.3-3-1.47-3.42l1.35-.51c.06-.02.09-.08.07-.13l-.19-.6h0s1.88-.6,1.88-.6h0c.16-.05.24-.22.19-.37-.05-.16-.22-.24-.37-.19l-1.88.6-.19-.6c-.02-.06-.08-.09-.13-.07l-1.39.37c-.46-1.59-.69-2.86-.81-3.72-.19-1.4-.31-3.25-.34-3.7l1.44-.07c.06,0,.11-.05.11-.1v-.63s0,0,0,0h1.97s0,.01,0,.01c.16,0,.3-.13.3-.29,0-.16-.13-.3-.29-.3h-1.97s0-.64,0-.64c0-.06-.05-.11-.1-.11l-1.43-.08c.05-1.66.23-2.93.38-3.79.25-1.39.71-3.19.82-3.63l1.39.38c.06.02.11-.01.13-.07l.2-.6h0s1.88.62,1.88.62h0c.16.05.32-.03.37-.19.05-.16-.03-.32-.19-.37l-1.87-.62.2-.6c.02-.06-.01-.11-.07-.13l-1.34-.52c.56-1.56,1.12-2.72,1.53-3.48.67-1.25,1.66-2.81,1.9-3.2l1.21.8s.11.02.15-.02l.37-.51h0s1.59,1.17,1.59,1.17h0c.13.1.32.07.41-.06.1-.13.07-.32-.06-.41l-1.59-1.17.37-.51s.02-.11-.02-.15l-1.11-.91c1.02-1.31,1.91-2.24,2.53-2.84,1.02-.98,2.45-2.16,2.8-2.45l.9,1.13s.1.06.15.02l.51-.37h0s1.15,1.6,1.15,1.6h0c.1.13.28.16.41.07.13-.1.16-.28.07-.41l-1.15-1.6.51-.37s.06-.1.02-.15l-.78-1.21c1.37-.93,2.51-1.54,3.29-1.91,1.27-.62,3-1.3,3.42-1.47l.51,1.35c.02.06.08.09.13.07l.6-.19h0s.6,1.88.6,1.88h0c.05.16.22.24.37.19.16-.05.24-.22.19-.37l-.6-1.88.6-.19c.06-.02.09-.08.07-.13l-.37-1.39c1.59-.46,2.86-.69,3.72-.81,1.4-.19,3.25-.31,3.7-.34l.07,1.44c0,.06.05.11.1.11h.63s0,0,0,0v1.97s-.01,0-.01,0c0,.16.13.3.29.3.16,0,.3-.13.3-.29v-1.97s.64,0,.64,0c.06,0,.11-.05.11-.1l.08-1.43c1.66.05,2.93.23,3.79.38,1.39.25,3.19.71,3.63.82l-.38,1.39c-.02.06.01.11.07.13l.6.2h0s-.62,1.88-.62,1.88h0c-.05.15.03.32.19.37.16.05.32-.03.37-.19l.62-1.87.6.2c.06.02.11-.01.13-.07l.52-1.34Z"/><path class="cls-4" d="m10.66-6.38c-.07.11-.17.17-.31.13h-.04s-1.81-.7-1.81-.7c0,0-.91,1.47-1.32,2.23h0s1.46,1.25,1.46,1.25c.11.07.16.21.11.33-.05.16-.22.24-.38.19l-1.84-.52c-.37.76-1.02,2.32-1.02,2.32L7.16-.01h0c.1.07.15.2.11.33"/><path class="cls-4" d="m6.57,2.42c-.04.13-.11.22-.25.22h-.04s-1.93-.1-1.93-.1c0,0-.41,1.68-.57,2.53h0s1.77.73,1.77.73c.12.04.21.15.21.28,0,.16-.13.3-.3.3l-1.91.07c-.12.83-.25,2.52-.25,2.52l1.9.59h0c.12.04.2.15.2.28"/><path class="cls-4" d="m5.4,12.05c0,.13-.04.24-.17.28h-.04s-1.87.51-1.87.51c0,0,.13,1.72.24,2.58h0s1.92.15,1.92.15c.13,0,.25.08.29.2.05.16-.04.32-.19.37l-1.79.66c.15.83.54,2.47.54,2.47l1.99-.03h0c.12,0,.24.08.28.2"/></g></g></svg>