<?xml version="1.0" encoding="UTF-8"?><svg id="Capa_1" xmlns="http://www.w3.org/2000/svg" viewBox="0 0 21 21"><defs><style>.cls-1{fill:#575756;}.cls-2{fill:#b2b2b2;}.cls-3{fill:#be1622;}.cls-4{fill:#706f6f;}.cls-5{fill:none;}</style></defs><g><g><g><path class="cls-2" d="m7.38,7.02c-.4,0-.72-.32-.72-.72s.32-.72.72-.72.72.32.72.72-.32.72-.72.72m3.27-.66s-.01,0-.02,0c-.04,0-.07-.03-.07-.07s.03-.06.07-.06c0,0,.01,0,.02,0,.09.01.19.02.29.02s.2,0,.3-.02c0-.47-.1-.92-.26-1.34h0c-.1.03-.19.06-.29.1-.09.04-.18.08-.26.13,0,0,0,0-.02,0-.03.01-.07,0-.08-.04-.01-.03,0-.07.04-.08,0,0,.01,0,.02,0,.09-.03.18-.06.27-.09.09-.04.18-.08.27-.13-.19-.43-.45-.83-.77-1.16-.08.06-.15.13-.23.2-.07.07-.13.14-.19.22,0,0,0,.01-.01.01-.03.03-.07.03-.09,0-.03-.03-.03-.07,0-.09,0,0,0,0,.01-.01.07-.06.15-.12.22-.19.07-.07.14-.15.2-.22-.33-.32-.71-.58-1.13-.76-.05.09-.09.18-.13.27-.04.09-.07.18-.1.27,0,0,0,.01,0,.02-.01.03-.05.05-.09.03-.03-.01-.05-.05-.03-.09,0,0,0-.01,0-.02.05-.08.09-.17.13-.26.04-.09.07-.19.1-.28-.42-.17-.89-.27-1.37-.28-.01.1-.02.2-.02.3s0,.19.02.29c0,0,0,.01,0,.02,0,.04-.03.06-.07.06s-.06-.03-.06-.06c0,0,0-.01,0-.02.01-.09.02-.19.02-.29s0-.2-.02-.3c-.47,0-.92.1-1.34.26.03.1.06.19.1.29.04.09.08.18.13.26,0,0,0,0,0,.02.01.03,0,.07-.04.08-.03.01-.07,0-.08-.04,0,0,0-.01,0-.02-.03-.09-.06-.18-.09-.27-.04-.09-.09-.19-.13-.27-.43.19-.83.45-1.16.77.06.08.13.15.2.22.07.07.14.13.22.19,0,0,.01,0,.01.01.03.03.03.07,0,.09-.03.03-.07.03-.09,0,0,0,0,0-.01-.01-.06-.07-.12-.15-.19-.22-.07-.07-.15-.14-.23-.2-.32.33-.58.71-.76,1.13.09.05.18.09.27.13.09.04.18.07.27.1,0,0,.01,0,.02,0,.03.01.05.05.03.09-.01.03-.05.05-.09.03,0,0-.01,0-.02,0-.08-.05-.17-.09-.26-.13-.09-.04-.19-.07-.28-.1-.17.43-.27.89-.27,1.37.1.01.2.02.3.02s.19,0,.29-.02c0,0,.01,0,.02,0,.04,0,.07.03.07.06s-.03.07-.07.07c0,0-.01,0-.02,0-.09-.01-.19-.02-.29-.02s-.2,0-.3.02c0,.47.1.92.26,1.34.1-.03.19-.06.29-.1.09-.04.18-.08.26-.13,0,0,0,0,.02,0,.03-.01.07,0,.08.04s0,.07-.04.08c0,0-.01,0-.02,0-.09.03-.18.06-.27.09-.09.04-.18.08-.27.13.19.43.45.83.77,1.16.08-.06.15-.13.23-.2.07-.07.13-.14.19-.22,0,0,0-.01.01-.01.03-.03.07-.03.09,0,.03.03.03.07,0,.09,0,0,0,0-.01.01-.07.06-.15.12-.22.19-.07.07-.14.15-.2.22.33.32.71.58,1.13.76.05-.09.09-.18.13-.27.04-.09.07-.18.1-.27,0,0,0-.01,0-.02.01-.03.05-.05.09-.03.03.01.05.05.03.09,0,0,0,.01,0,.02-.05.08-.09.17-.13.26-.04.09-.07.19-.1.28.42.17.89.27,1.37.28.01-.1.02-.2.02-.3s0-.19-.02-.29c0,0,0-.01,0-.02,0-.04.03-.06.06-.06s.07.03.07.06c0,0,0,.01,0,.02-.01.09-.02.19-.02.29s0,.2.02.3c.47,0,.92-.1,1.34-.26-.03-.1-.06-.19-.1-.29-.04-.09-.08-.18-.13-.26,0,0,0,0,0-.02-.01-.03,0-.07.04-.08.03-.01.07,0,.08.04,0,0,0,.01,0,.02.03.09.06.18.09.27.04.09.08.18.13.27.43-.19.83-.45,1.16-.77-.06-.08-.13-.15-.2-.22-.07-.07-.14-.13-.22-.19,0,0-.01,0-.01-.01-.03-.03-.03-.07,0-.09.03-.03.07-.03.09,0,0,0,0,0,.01.01.06.07.12.15.19.22.07.07.15.14.23.2.32-.33.58-.71.76-1.13-.09-.05-.18-.09-.27-.13-.09-.04-.18-.07-.27-.1,0,0-.01,0-.02,0-.03-.01-.05-.05-.03-.08.01-.03.05-.05.09-.03,0,0,.01,0,.02,0,.08.05.17.09.26.13.09.04.19.07.28.1.17-.42.27-.89.28-1.37-.1-.01-.2-.02-.3-.02s-.19,0-.29.02"/><path class="cls-1" d="m8.93,2.76s0,0,0,0h0Z"/><path class="cls-1" d="m10.92,7.85s0,0,0,0h0Z"/><path class="cls-1" d="m3.84,4.75s0,0,0,0h0Z"/><polygon class="cls-1" points="5.83 9.83 5.83 9.83 5.83 9.83 5.83 9.83"/><path class="cls-1" d="m8.93,2.76s0,0,0,0h0Z"/><path class="cls-1" d="m10.92,7.85s0,0,0,0h0Z"/><path class="cls-1" d="m4.61,3.61c-.32.33-.58.71-.76,1.13.06.03.11.06.17.09.18-.41.43-.78.74-1.1-.05-.04-.1-.09-.15-.13"/><path class="cls-1" d="m5.86,2.75c-.43.19-.83.45-1.16.77.04.05.08.1.13.15.32-.31.7-.57,1.13-.75-.03-.06-.06-.12-.09-.17"/><path class="cls-1" d="m8.82,2.71c-.42-.17-.89-.27-1.37-.28,0,.06-.01.13-.02.2.47,0,.92.1,1.33.27.02-.06.04-.12.06-.19"/><path class="cls-1" d="m7.32,2.44c-.47,0-.92.1-1.34.26h0c.02.06.04.12.06.19.4-.16.84-.25,1.3-.25,0-.07,0-.13-.02-.2"/><path class="cls-1" d="m10.06,3.52c-.33-.32-.71-.58-1.13-.76-.03.06-.06.11-.09.17.41.18.78.43,1.1.74.04-.05.09-.1.13-.15"/><path class="cls-1" d="m11.24,6.23c0-.47-.1-.92-.26-1.34h0c-.06.02-.12.04-.19.06.16.4.25.84.25,1.3.07,0,.13,0,.2-.02"/><path class="cls-1" d="m10.93,4.78h0c-.19-.43-.45-.83-.77-1.16-.05.04-.1.08-.15.13.31.32.57.7.75,1.13.06-.03.12-.06.17-.09"/><path class="cls-1" d="m5.95,9.88c.42.17.89.27,1.37.28,0-.06.01-.13.02-.2-.47,0-.92-.1-1.33-.27-.02.06-.04.12-.06.19"/><path class="cls-1" d="m7.44,10.16c.47,0,.92-.1,1.34-.26-.02-.06-.04-.12-.06-.19-.4.16-.84.25-1.3.25,0,.07,0,.13.02.2"/><path class="cls-1" d="m3.8,4.86c-.17.43-.27.89-.28,1.37.06,0,.13.01.19.02,0-.47.1-.92.27-1.33-.06-.02-.12-.04-.19-.06"/><path class="cls-1" d="m10.15,8.98c.32-.33.58-.71.76-1.13-.06-.03-.11-.06-.17-.09-.18.41-.43.78-.74,1.1.05.04.1.09.15.13"/><path class="cls-1" d="m3.52,6.36c0,.47.1.92.26,1.34h0c.06-.02.12-.04.19-.06-.16-.4-.25-.84-.25-1.3-.07,0-.13,0-.19.02"/><path class="cls-1" d="m4.7,9.07c.33.32.71.58,1.13.76.03-.06.06-.11.09-.17-.41-.18-.78-.43-1.1-.74-.04.05-.09.1-.13.15"/><path class="cls-1" d="m3.83,7.82h0c.19.43.45.83.77,1.16.05-.04.1-.08.15-.13-.31-.32-.57-.7-.75-1.13-.06.03-.12.06-.17.09"/><path class="cls-1" d="m8.9,9.85h0c.43-.19.83-.45,1.16-.77-.04-.05-.08-.1-.13-.15-.32.32-.7.57-1.13.75.03.06.06.12.09.17"/><path class="cls-1" d="m10.78,7.67c.06.02.12.04.19.06.17-.42.27-.89.28-1.37-.06,0-.13-.01-.2-.02,0,.47-.1.92-.27,1.33"/><path class="cls-1" d="m3.84,4.75s0,0,0,0h0Z"/><polygon class="cls-1" points="5.83 9.83 5.83 9.83 5.83 9.83 5.83 9.83"/></g><path class="cls-4" d="m11.09,4.22l-7.26,4.11c-.37-.61-.58-1.33-.58-2.1,0-2.31,1.87-4.18,4.18-4.18,1.58,0,2.95.87,3.66,2.17Z"/></g><line class="cls-5" x1="10.23" y1="9.19" x2="8.66" y2="10.08"/><g><rect class="cls-4" x="2.29" y="10.14" width="16.41" height="1.39"/><rect class="cls-4" x="3.58" y="11.53" width=".61" height="7.43"/><rect class="cls-4" x="16.74" y="11.53" width=".61" height="7.43"/></g></g><path class="cls-3" d="m19.94,1.06v18.89H1.06V1.06h18.89M21,0H0v21h21V0h0Z"/></svg>