<?xml version="1.0" encoding="UTF-8"?><svg id="Capa_1" xmlns="http://www.w3.org/2000/svg" xmlns:xlink="http://www.w3.org/1999/xlink" viewBox="0 0 21 21"><defs><style>.cls-1{stroke-linecap:round;stroke-linejoin:round;}.cls-1,.cls-2{stroke-width:.43px;}.cls-1,.cls-2,.cls-3,.cls-4,.cls-5,.cls-6,.cls-7{fill:none;}.cls-1,.cls-2,.cls-3,.cls-6{stroke:#1d1d1b;}.cls-8{font-family:Poppins-Bold, Poppins;font-size:5.53px;font-weight:700;}.cls-8,.cls-9{fill:#1d1d1b;}.cls-10{clip-path:url(#clippath-2);}.cls-11{clip-path:url(#clippath-1);}.cls-3{stroke-width:.31px;}.cls-3,.cls-5,.cls-7{stroke-miterlimit:10;}.cls-12{clip-path:url(#clippath);}.cls-5{stroke-width:.35px;}.cls-5,.cls-7{stroke:#010101;}.cls-13{clip-path:url(#clippath-3);}.cls-6{stroke-width:.49px;}.cls-7{stroke-width:.51px;}</style><clipPath id="clippath"><rect class="cls-4" x=".72" y="2.31" width="19.57" height="16.66"/></clipPath><clipPath id="clippath-1"><rect class="cls-4" x="-23.67" y="-23.98" width="20.92" height="18.35"/></clipPath><clipPath id="clippath-2"><rect class="cls-4" x=".04" y="-23.2" width="20.92" height="18.35"/></clipPath><clipPath id="clippath-3"><circle class="cls-3" cx="-12.63" cy="8.98" r="9.19"/></clipPath></defs><g class="cls-12"><g><path class="cls-6" d="m-8.8,21.79C-8.19,10.62,1.82,3.93,11.07,4.43c9.25.5,18.26,8.28,17.64,19.61-.62,11.33-11.15,17.83-19.38,17.39-8.23-.45-18.83-6.7-18.12-19.64Z"/><path class="cls-6" d="m-7.95,21.84C-7.37,11.17,2.19,4.78,11.02,5.26c8.83.48,17.43,7.91,16.85,18.73-.59,10.82-10.65,17.03-18.51,16.6-7.86-.43-17.98-6.4-17.31-18.75Z"/><path class="cls-6" d="m11.95,22.88c-.06,1.1-1,1.95-2.1,1.89-1.1-.06-1.95-1-1.89-2.1.06-1.1,1-1.95,2.1-1.89,1.1.06,1.95,1,1.89,2.1Z"/></g><text class="cls-8" transform="translate(6.47 17.16) scale(1.03 1)"><tspan x="0" y="0">BC</tspan></text></g><path class="cls-9" d="m19.95,1.2v18.89H1.06V1.2h18.89m1.06-1.06H0v21h21V.14h0Z"/><g class="cls-11"><g><path class="cls-7" d="m-.82,2.98C-.01,1.77.75.25,1.19-1.13c0,0-2.05-.65-2.27-.73"/><path class="cls-7" d="m1.11-6.71c.01.23.02.46.02.69,0,1.25-.15,2.46-.44,3.62-.09.35-.18.69-.29,1.02C-.06,0-.72,1.3-1.54,2.47c-.2.29-.41.57-.64.84-.91,1.11-1.97,2.09-3.16,2.88-.29.19-.59.38-.89.55-1.22.69-2.56,1.21-3.96,1.51-.34.07-.68.13-1.02.18-.63.09-1.27.13-1.92.13-.79,0-1.56-.07-2.31-.19-.34-.06-.68-.13-1.02-.21-1.4-.34-2.72-.9-3.92-1.63-.3-.18-.59-.37-.87-.58-1.17-.83-2.2-1.83-3.08-2.97-.21-.28-.42-.57-.61-.86-.79-1.19-1.41-2.5-1.82-3.91-.1-.34-.19-.68-.27-1.03-.23-1.04-.35-2.12-.35-3.23,0-.37.01-.73.04-1.09"/></g></g><g class="cls-10"><g><path class="cls-2" d="m12.86,2.4c.07,1.29-.91,2.39-2.2,2.46s-2.39-.91-2.46-2.2S9.1.27,10.39.2s2.39.91,2.46,2.2Z"/><path class="cls-2" d="m13.5,19.49c0,.45.36.81.81.81.45,0,.81-.36.81-.81,0-.45-.36-.81-.8-.81-.45,0-.81.36-.81.8Z"/><path class="cls-2" d="m19.78,16.8c0,.45.36.81.81.81.45,0,.81-.36.81-.81,0-.45-.36-.81-.81-.81-.45,0-.81.36-.81.8Z"/><path class="cls-2" d="m.26,17.14c0,.45.36.81.81.81.45,0,.81-.36.81-.81,0-.45-.36-.81-.81-.81-.45,0-.81.36-.81.81Z"/><path class="cls-2" d="m6.33,19.64c0,.45.36.81.81.81.45,0,.81-.36.81-.81,0-.45-.36-.81-.81-.81-.45,0-.81.36-.81.8Z"/><g><path class="cls-1" d="m-4.53,17.7l-.26.25-.71,1.45c1.78,1.67,3.83,3.05,6.07,4.09l1.1-1.22.1-.24c-2.35-1.06-4.48-2.53-6.3-4.33Z"/><path class="cls-1" d="m19,22.35l1.06,1.28c2.31-1.02,4.41-2.4,6.24-4.07l-.67-1.33-.3-.28c-1.84,1.77-4,3.21-6.38,4.23l.06.17Z"/><path class="cls-1" d="m30.25-5.71l-.63.21c-.13-.1-.28-.15-.46-.15-.4.01-.72.35-.71.75.01.41.35.73.75.72.35,0,.63-.26.7-.59l.62-.25c.8,2.11,1.27,4.37,1.36,6.75,0,.19,0,.39,0,.58h-.57c-.09-.14-.22-.25-.38-.31-.38-.13-.8.08-.93.46-.13.39.08.8.46.93.33.11.68-.03.86-.31h0s.55-.02.55-.02c-.06,2.6-.59,5.09-1.51,7.38l-.56-.26c-.03-.16-.1-.31-.23-.42-.3-.27-.76-.25-1.04.05-.27.3-.25.76.05,1.04.26.23.64.25.91.06h0s.57.23.57.23c-1.03,2.34-2.48,4.47-4.24,6.28l-.49-.5c.03-.16.02-.32-.06-.48-.18-.36-.62-.51-.99-.32-.36.18-.51.62-.32.99.16.31.5.46.83.38h0s.5.47.5.47c-1.84,1.77-4,3.21-6.38,4.23l-.27-.79c.1-.13.15-.29.15-.46-.01-.4-.35-.72-.75-.71-.41.01-.73.35-.71.75,0,.35.26.63.59.7h0s.32.79.32.79c-2.16.84-4.49,1.34-6.93,1.43-.22,0-.44,0-.65,0l.06-.81c.14-.08.25-.2.32-.36.15-.38-.03-.8-.41-.95-.38-.15-.8.03-.95.41-.13.32-.01.68.26.87h0s-.02.84-.02.84c-2.64-.07-5.16-.62-7.49-1.57l.35-.76c.16-.03.31-.1.42-.23.27-.3.25-.76-.05-1.04-.3-.27-.76-.25-1.04.05-.23.26-.25.64-.06.91h0s-.31.77-.31.77c-2.35-1.06-4.48-2.53-6.3-4.33l.48-.46c.16.04.32.02.48-.05.36-.18.52-.62.34-.98-.18-.36-.61-.52-.98-.34-.31.15-.47.5-.39.82h0s-.45.47-.45.47c-1.71-1.82-3.11-3.94-4.11-6.29l.52-.19c.13.09.29.15.46.14.4-.02.72-.36.7-.77-.02-.41-.36-.72-.77-.7-.35.02-.63.27-.68.6h0s-.51.22-.51.22c-.82-2.13-1.31-4.43-1.4-6.84,0-.17,0-.33,0-.49h.55c.09.14.22.25.38.3.39.13.8-.08.93-.47.13-.39-.08-.8-.47-.93-.33-.11-.68.03-.86.32h0s-.53.02-.53.02c.05-2.59.57-5.08,1.48-7.38l.54.26c.02.16.1.31.22.43.3.28.76.26,1.04-.03.28-.3.26-.76-.03-1.04"/><path class="cls-2" d="m3.22,21.33c.27-.3.25-.76-.05-1.04-.3-.27-.76-.25-1.04.05-.23.26-.25.64-.06.91h0s-.31.77-.31.77c.22.1.45.2.68.29l.35-.76c.16-.03.31-.1.42-.23Z"/><path class="cls-2" d="m18.81,20.93c-.01-.4-.35-.72-.75-.71-.41.01-.73.35-.71.75,0,.35.26.63.59.7h0s.32.79.32.79c.23-.09.46-.18.68-.28l-.27-.79c.1-.13.15-.29.15-.46Z"/></g><path class="cls-2" d="m12.86,2.4c.07,1.29-.91,2.39-2.2,2.46s-2.39-.91-2.46-2.2S9.1.27,10.39.2s2.39.92,2.46,2.2Z"/></g></g><rect class="cls-4" x="-21.45" y="3.38" width="26.19" height="22.98"/><g><g class="cls-13"><g><path class="cls-5" d="m17.61,20.74c-1.38-2.5-3.33-5.21-5.33-7.2,0,0-2.91,3.14-3.24,3.46"/><path class="cls-5" d="m14.26,24.79c-.48.24-1.07.04-1.3-.45s-.04-1.09.44-1.33c.01,0,.03-.01.04-.02h0s3.2-1.65,3.2-1.65l1.02-.51"/><path class="cls-5" d="m9.05,17.01c-.36.41-.98.43-1.37.06s-.42-1-.06-1.41c0-.01.02-.02.03-.03h0s2.4-2.72,2.4-2.72l.77-.86c-2.17-1.82-5.03-3.68-7.59-4.79,0,0-1.6,4.01-1.79,4.42-.19.51-.76.77-1.26.57s-.75-.78-.55-1.29l1.29-3.47s.42-1.08.42-1.08c-2.67-.89-5.99-1.57-8.77-1.65,0,0-.07,4.32-.1,4.78,0,.55-.44,1.01-.98,1.01s-.97-.45-.97-1l-.03-3.71v-1.14s0,0,0,0c-2.7.14-5.73.66-8.22,1.52,0,0,1.39,4.09,1.51,4.53h0c.19.52-.07,1.09-.58,1.28s-1.06-.08-1.25-.59l-1.28-3.47-.39-1.1c-2.58,1.14-5.5,2.88-7.64,4.7,0,0,2.74,3.29,3.01,3.66h0c.36.41.32,1.04-.09,1.41s-1.02.32-1.37-.09h0s-2.41-2.77-2.41-2.77l-.75-.88h0c-2,2.02-4.11,4.72-5.46,7.21,0,0,3.72,2.05,4.1,2.3"/><path class="cls-5" d="m11.15,14.77c1.97,2,3.65,4.3,4.97,6.83"/><path class="cls-5" d="m2.61,8.82c2.57,1.15,4.94,2.69,7.05,4.53"/><path class="cls-5" d="m-7.47,6.45c2.86.12,5.6.67,8.17,1.6"/></g></g><circle class="cls-3" cx="-12.63" cy="8.98" r="9.19"/></g></svg>