<?xml version="1.0" encoding="UTF-8"?><svg id="Capa_1" xmlns="http://www.w3.org/2000/svg" xmlns:xlink="http://www.w3.org/1999/xlink" viewBox="0 0 21 21"><defs><style>.cls-1{stroke-linecap:round;stroke-linejoin:round;}.cls-1,.cls-2,.cls-3,.cls-4,.cls-5,.cls-6{fill:none;}.cls-1,.cls-2,.cls-3,.cls-4,.cls-6{stroke:#1d1d1b;}.cls-1,.cls-4{stroke-width:.43px;}.cls-7{clip-path:url(#clippath-2);}.cls-2{stroke-width:.43px;}.cls-3{stroke-width:.48px;}.cls-8{clip-path:url(#clippath-1);}.cls-9{clip-path:url(#clippath);}.cls-10{clip-path:url(#clippath-3);}.cls-6{stroke-width:.49px;}.cls-11{fill:#1d1d1b;}</style><clipPath id="clippath"><rect class="cls-5" x="-25.53" y="2.31" width="19.57" height="16.66"/></clipPath><clipPath id="clippath-1"><rect class="cls-5" x="0" y="-23.19" width="21" height="18.43"/></clipPath><clipPath id="clippath-2"><rect class="cls-5" x="26.09" y="-22.95" width="20.27" height="17.79"/></clipPath><clipPath id="clippath-3"><rect class="cls-5" x="-26.21" y="-23.2" width="20.92" height="18.35"/></clipPath></defs><g class="cls-9"><g><path class="cls-6" d="m-35.05,21.79c.61-11.17,10.62-17.86,19.86-17.36C-5.94,4.93,3.07,12.71,2.45,24.04c-.62,11.33-11.15,17.83-19.38,17.39-8.23-.45-18.83-6.7-18.12-19.64Z"/><path class="cls-6" d="m-34.21,21.84c.58-10.67,10.14-17.06,18.97-16.58C-6.41,5.74,2.19,13.17,1.61,23.99c-.59,10.82-10.65,17.03-18.51,16.6-7.86-.43-17.98-6.4-17.31-18.75Z"/></g></g><g class="cls-8"><g><path class="cls-2" d="m10.47,7.98c7.97,0,14.43-6.43,14.43-14.37s-6.4-14.37-14.37-14.37"/><path class="cls-2" d="m10.47,6.97c7.41,0,13.42-5.98,13.42-13.36s-6.01-13.36-13.42-13.36"/><path class="cls-2" d="m14.25,5.12c0,.28.23.51.51.51s.51-.23.51-.51-.23-.51-.51-.51-.51.23-.51.51Z"/><path class="cls-2" d="m18.52,2.61c0,.28.23.51.51.51s.51-.23.51-.51-.23-.51-.51-.51-.51.23-.51.51Z"/><line class="cls-2" x1="11.7" y1="7.94" x2="11.08" y2="6.97"/><line class="cls-2" x1="12.53" y1="7.83" x2="11.86" y2="6.91"/><line class="cls-2" x1="13.31" y1="7.73" x2="12.64" y2="6.8"/><line class="cls-2" x1="14.16" y1="7.52" x2="13.4" y2="6.67"/><line class="cls-2" x1="14.93" y1="7.26" x2="14.13" y2="6.47"/><line class="cls-2" x1="15.65" y1="7.04" x2="14.85" y2="6.25"/><line class="cls-2" x1="16.42" y1="6.74" x2="15.57" y2="6.01"/><line class="cls-2" x1="17.16" y1="6.37" x2="16.26" y2="5.68"/><line class="cls-2" x1="17.82" y1="5.98" x2="16.94" y2="5.34"/><line class="cls-2" x1="18.5" y1="5.53" x2="17.56" y2="4.98"/><line class="cls-2" x1="19.13" y1="5.05" x2="18.16" y2="4.56"/><line class="cls-2" x1="19.81" y1="4.56" x2="18.8" y2="4.12"/><line class="cls-2" x1="20.4" y1="4" x2="19.34" y2="3.66"/><line class="cls-2" x1="20.96" y1="3.49" x2="19.89" y2="3.15"/><line class="cls-2" x1="21.45" y1="2.88" x2="20.36" y2="2.64"/><line class="cls-2" x1="21.94" y1="2.25" x2="20.84" y2="2.07"/><path class="cls-2" d="m10.53-20.76c-7.97,0-14.43,6.43-14.43,14.37S2.5,7.97,10.47,7.97"/><path class="cls-2" d="m10.53-19.75c-7.41,0-13.42,5.98-13.42,13.36S3.06,6.97,10.47,6.97"/><path class="cls-2" d="m1.51,1.81c0-.28-.23-.51-.51-.51s-.51.23-.51.51.23.51.51.51.51-.23.51-.51Z"/><path class="cls-2" d="m5.44,4.72c0-.28-.23-.51-.51-.51s-.51.23-.51.51.23.51.51.51.51-.23.51-.51Z"/><path class="cls-2" d="m10.11,5.92c0-.28-.23-.51-.51-.51s-.51.23-.51.51.23.51.51.51.51-.23.51-.51Z"/><line class="cls-2" x1="-.31" y1="3.14" x2=".1" y2="2.08"/><line class="cls-2" x1=".28" y1="3.68" x2=".59" y2="2.62"/><line class="cls-2" x1=".87" y1="4.27" x2="1.14" y2="3.21"/><line class="cls-2" x1="1.46" y1="4.77" x2="1.7" y2="3.68"/><line class="cls-2" x1="2.12" y1="5.29" x2="2.27" y2="4.17"/><line class="cls-2" x1="2.74" y1="5.73" x2="2.83" y2="4.61"/><line class="cls-2" x1="3.46" y1="6.12" x2="3.54" y2="4.99"/><line class="cls-2" x1="4.2" y1="6.5" x2="4.18" y2="5.38"/><line class="cls-2" x1="4.93" y1="6.85" x2="4.9" y2="5.72"/><line class="cls-2" x1="5.68" y1="7.12" x2="5.54" y2="6"/><line class="cls-2" x1="6.45" y1="7.37" x2="6.27" y2="6.29"/><line class="cls-2" x1="7.26" y1="7.59" x2="6.97" y2="6.5"/><line class="cls-2" x1="7.92" y1="7.78" x2="7.63" y2="6.68"/><line class="cls-2" x1="8.82" y1="7.85" x2="8.42" y2="6.79"/><line class="cls-2" x1="9.66" y1="7.95" x2="9.15" y2="6.9"/><line class="cls-2" x1="10.69" y1="7.98" x2="10.19" y2="6.94"/></g></g><g class="cls-7"><g><path class="cls-3" d="m18.58.14c-.01-.07,0,.07,0,0-.36-1.92-.31-2.91-.09-4.75l1.25-.25.85.14h0c.11.24.37.39.64.33.31-.06.52-.37.46-.68-.06-.31-.37-.52-.68-.46-.13.03-.24.1-.33.19l-.8-.09-1.17-.59c.39-1.96,1.09-3.82,2.06-5.52l1.14.29.71.49h0c0,.26.17.51.44.57.31.08.62-.11.7-.42.08-.31-.11-.63-.42-.7-.13-.03-.26-.02-.38.04l-.69-.42-.79-1.01c1.08-1.6,2.41-3.02,3.95-4.2l.95.67.49.72h0c-.1.24-.02.53.2.69.26.18.62.12.81-.14.18-.26.12-.62-.14-.81-.11-.08-.24-.11-.37-.1l-.49-.64-.35-1.17c1.6-1.05,3.39-1.86,5.34-2.37l.56.92.16.85h0c-.19.18-.24.48-.09.72.16.27.52.36.8.2.27-.16.36-.52.2-.8-.07-.12-.18-.2-.29-.24l-.19-.79.14-1.15h0c1.92-.36,3.82-.4,5.66-.17l.22,1.11-.14.85h0c-.24.11-.38.37-.33.64.06.31.37.52.68.45.31-.06.52-.37.46-.68-.03-.13-.1-.24-.19-.33l.09-.8.52-1.04c1.95.39,3.81,1.1,5.51,2.08l-.25,1.08-.48.72h0c-.26,0-.5.18-.57.45-.07.31.12.62.43.7.31.07.62-.12.7-.43.03-.13.01-.26-.04-.38l.41-.7.92-.74c1.62,1.09,3.07,2.44,4.28,4.01l-.67.9-.73.47h0c-.24-.1-.53-.04-.7.19-.19.26-.14.62.12.81.26.19.62.14.81-.12.08-.11.12-.24.11-.36l.65-.48,1.17-.32c1.07,1.62,1.9,3.42,2.42,5.38l-.95.56-.85.15h0c-.18-.19-.48-.24-.71-.1-.28.16-.37.52-.21.79.16.28.52.37.79.21.12-.07.2-.17.24-.29l.79-.18,1.15.13s.01.07.02.11"/><path class="cls-3" d="m53.28-5.89c.03.15.06.3.09.45v.02m-2.77-6.65c1.16,1.66,2.03,3.55,2.55,5.61m-7.37-10.23c1.72,1.1,3.24,2.5,4.48,4.15m-10.68-6.57c2.03.36,3.97,1.08,5.71,2.11m-12.23-1.99c.15-.03.3-.06.46-.09,1.86-.35,3.71-.38,5.49-.12m-12.08,2.72c1.65-1.07,3.53-1.88,5.57-2.38m-10.33,7.01c1.13-1.67,2.58-3.13,4.28-4.31m-6.78,10.61c.33-2.07,1.07-4,2.14-5.74M19.74.03c-.31-1.66-.36-3.29-.18-4.85"/><path class="cls-3" d="m54.46-5.84c.01.07.03.13.04.2.17.87.5,3.54.04,4.63l-1.25.25-.85-.14h0c-.11-.24-.37-.39-.64-.33-.31.06-.52.37-.46.68.06.31.37.52.68.46.13-.03.24-.1.33-.19l.8.09,1.17.59c-.39,1.96-1.09,3.82-2.06,5.52l-1.14-.29-.71-.49h0c0-.26-.17-.51-.44-.57-.31-.08-.62.11-.7.42-.08.31.11.62.42.7.13.03.26.02.38-.04l.69.42.79,1.01c-1.08,1.6-2.41,3.02-3.95,4.2l-.95-.67-.49-.71h0c.1-.24.02-.53-.2-.69-.26-.18-.62-.12-.81.14-.18.26-.12.62.14.81.11.08.24.11.37.1l.49.64.35,1.16c-1.6,1.05-3.39,1.86-5.34,2.37l-.56-.92-.16-.85h0c.19-.18.24-.48.09-.72-.16-.27-.52-.36-.8-.2-.27.16-.36.52-.2.8.07.12.18.2.29.24l.19.79-.14,1.15h0c-1.92.36-3.82.4-5.66.17l-.22-1.12.14-.85h0c.24-.11.38-.37.33-.64-.06-.31-.37-.52-.68-.45-.31.06-.52.37-.46.68.03.13.1.24.19.33l-.09.8-.53,1.04c-1.95-.39-3.81-1.1-5.51-2.08l.25-1.08.48-.72h0c.26,0,.5-.18.57-.45.07-.31-.12-.62-.43-.7-.31-.07-.62.12-.7.43-.03.13-.01.26.04.38l-.41.7-.92.74c-1.62-1.09-3.07-2.44-4.28-4.01l.67-.9.73-.47h0c.24.1.53.04.7-.19.19-.26.14-.62-.12-.81-.26-.19-.62-.14-.81.12-.08.11-.12.24-.11.36l-.66.48-1.17.32c-1.07-1.62-1.9-3.42-2.42-5.38l.95-.56.85-.15h0c.18.19.48.24.71.1.28-.16.37-.52.21-.79-.16-.28-.52-.37-.79-.21-.12.07-.2.17-.24.29l-.79.18-1.12-.15s-.01-.07-.02-.1"/><path class="cls-3" d="m53.5-.8c.18-1.55.13-3.16-.18-4.81m-2.07,11.26c1.07-1.73,1.81-3.66,2.14-5.72m-6.81,10.6c1.7-1.18,3.16-2.64,4.29-4.3m-10.34,6.99c2.04-.5,3.91-1.31,5.57-2.37m-12.09,2.72c1.78.25,3.62.22,5.49-.13.15-.03.31-.06.46-.09m-12.23-1.99c1.74,1.03,3.67,1.76,5.71,2.12m-10.67-6.58c1.23,1.65,2.75,3.06,4.47,4.16M19.92.83c.51,2.06,1.37,3.95,2.52,5.61M19.71-.19v.04c.03.14.06.27.09.41"/></g></g><g><path class="cls-11" d="m10.79,3.19h0,0m-.25.49l3.76,7.43c.69,1.36.73,2.9.12,4.11-.77,1.53-2.24,2.44-3.93,2.44-1.5,0-2.88-.75-3.69-2.01-.84-1.31-.87-3.07-.08-4.59l3.82-7.38m0-.84c-.08,0-.16.04-.2.12l-4.07,7.87c-.83,1.61-.87,3.57.1,5.09.96,1.5,2.53,2.24,4.11,2.24,1.73,0,3.46-.91,4.38-2.72.72-1.43.6-3.14-.12-4.57-1.18-2.33-3.36-6.63-4.01-7.93-.04-.08-.12-.12-.19-.12h0Z"/><path class="cls-11" d="m19.94,1.06v18.89H1.06V1.06h18.89M21,0H0v21h21V0h0Z"/></g><g class="cls-10"><g><path class="cls-4" d="m-1.75,11.7c0,.45.36.81.81.81s.81-.36.81-.81c0-.45-.36-.81-.81-.81-.45,0-.81.36-.81.81Z"/><g><path class="cls-1" d="m5.63,2.31h.45s1.38-.48,1.38-.48h0c-.09-2.48-.57-4.84-1.37-7.05l-1.44.04-.4.16c.8,2.11,1.27,4.37,1.36,6.75,0,.19,0,.39,0,.58Z"/><path class="cls-1" d="m-7.25,22.35l1.06,1.28c2.31-1.02,4.41-2.4,6.24-4.07l-.67-1.33-.3-.28c-1.84,1.77-4,3.21-6.38,4.23l.06.17Z"/><path class="cls-1" d="m4.5,10.62l1.54.11c.85-2.27,1.35-4.71,1.44-7.26l-1.29-.43-.54.02c-.06,2.6-.59,5.09-1.51,7.38l.37.17Z"/><path class="cls-1" d="m-.41,17.42l.22.23,1.46.69c1.67-1.77,3.06-3.81,4.09-6.04l-1.09-.99-.45-.18c-1.03,2.34-2.48,4.47-4.24,6.28Z"/><path class="cls-1" d="m3.99-5.71l-.63.21c-.13-.1-.28-.15-.46-.15-.4.01-.72.35-.71.75.01.41.35.73.75.72.35,0,.63-.26.7-.59l.62-.25c.8,2.11,1.27,4.37,1.36,6.75,0,.19,0,.39,0,.58h-.57c-.09-.14-.22-.25-.38-.31-.38-.13-.8.08-.93.46-.13.39.08.8.46.93.33.11.68-.03.86-.31h0s.55-.02.55-.02c-.06,2.6-.59,5.09-1.51,7.38l-.56-.26c-.03-.16-.1-.31-.23-.42-.3-.27-.76-.25-1.04.05-.27.3-.25.76.05,1.04.26.23.64.25.91.06h0s.57.23.57.23c-1.03,2.34-2.48,4.47-4.24,6.28l-.49-.5c.03-.16.02-.32-.06-.48-.18-.36-.62-.51-.99-.32-.36.18-.51.62-.32.99.16.31.5.46.83.38h0s.5.47.5.47c-1.84,1.77-4,3.21-6.38,4.23l-.27-.79c.1-.13.15-.29.15-.46-.01-.4-.35-.72-.75-.71-.41.01-.73.35-.71.75,0,.35.26.63.59.7h0s.32.79.32.79c-2.16.84-4.49,1.34-6.93,1.43-.22,0-.44,0-.65,0l.06-.81c.14-.08.25-.2.32-.36.15-.38-.03-.8-.41-.95-.38-.15-.8.03-.95.41-.13.32-.01.68.26.87h0s-.02.84-.02.84c-2.64-.07-5.16-.62-7.49-1.57l.35-.76c.16-.03.31-.1.42-.23.27-.3.25-.76-.05-1.04-.3-.27-.76-.25-1.04.05-.23.26-.25.64-.06.91h0s-.31.77-.31.77c-2.35-1.06-4.48-2.53-6.3-4.33l.48-.46c.16.04.32.02.48-.05.36-.18.52-.62.34-.98-.18-.36-.61-.52-.98-.34-.31.15-.47.5-.39.82h0s-.45.47-.45.47c-1.71-1.82-3.11-3.94-4.11-6.29l.52-.19c.13.09.29.15.46.14.4-.02.72-.36.7-.77-.02-.41-.36-.72-.77-.7-.35.02-.63.27-.68.6h0s-.51.22-.51.22c-.82-2.13-1.31-4.43-1.4-6.84,0-.17,0-.33,0-.49h.55c.09.14.22.25.38.3.39.13.8-.08.93-.47.13-.39-.08-.8-.47-.93-.33-.11-.68.03-.86.32h0s-.53.02-.53.02c.05-2.59.57-5.08,1.48-7.38l.54.26c.02.16.1.31.22.43.3.28.76.26,1.04-.03.28-.3.26-.76-.03-1.04"/><path class="cls-4" d="m5.07,2.3c-.09-.13-.22-.24-.38-.3-.38-.13-.8.08-.93.46-.13.39.08.8.46.93.33.11.68-.03.86-.31h0s.55-.02.55-.02c0-.25,0-.5,0-.75h-.57Z"/><path class="cls-4" d="m3.34,9.77c-.3-.27-.76-.25-1.04.05-.27.3-.25.76.05,1.04.26.23.64.25.91.06h0s.57.23.57.23c.1-.23.19-.46.29-.69l-.56-.26c-.03-.16-.1-.31-.23-.42Z"/></g><line class="cls-4" x1="5.62" y1=".62" x2="7.31" y2=".37"/><line class="cls-4" x1="3.41" y1="12.22" x2="4.92" y2="13.13"/><line class="cls-4" x1="2.25" y1="14.14" x2="3.81" y2="15.14"/><line class="cls-4" x1=".82" y1="16.15" x2="2.19" y2="17.16"/><line class="cls-4" x1="5.65" y1="4.17" x2="7.44" y2="4.41"/><line class="cls-4" x1="5.3" y1="6.39" x2="7.12" y2="6.71"/><line class="cls-4" x1="4.74" y1="8.79" x2="6.54" y2="9.26"/></g></g></svg>