<?xml version="1.0" encoding="UTF-8"?><svg id="Capa_1" xmlns="http://www.w3.org/2000/svg" xmlns:xlink="http://www.w3.org/1999/xlink" viewBox="0 0 21 21"><defs><style>.cls-1{letter-spacing:-.02em;}.cls-2{clip-path:url(#clippath-2);}.cls-3{stroke-linejoin:round;stroke-width:.46px;}.cls-3,.cls-4,.cls-5,.cls-6{fill:none;}.cls-3,.cls-5{stroke:#010101;}.cls-7{clip-path:url(#clippath-1);}.cls-8{clip-path:url(#clippath);}.cls-5{stroke-miterlimit:10;stroke-width:.43px;}.cls-9{letter-spacing:-.02em;}.cls-10{font-family:MyriadPro-Regular, 'Myriad Pro';font-size:5.86px;}.cls-10,.cls-11{fill:#1d1d1b;}.cls-6{stroke:#1d1d1b;stroke-width:.49px;}</style><clipPath id="clippath"><rect class="cls-4" x="-25.53" y="-23.69" width="19.57" height="16.66"/></clipPath><clipPath id="clippath-1"><rect class="cls-4" x=".18" y="1.75" width="20.27" height="17.5"/></clipPath><clipPath id="clippath-2"><rect class="cls-4" x="-26.12" y="1.65" width="20.5" height="17.7"/></clipPath></defs><g class="cls-8"><g><path class="cls-6" d="m-35.05-4.21c.61-11.17,10.62-17.86,19.86-17.36C-5.94-21.07,3.07-13.29,2.45-1.96,1.84,9.37-8.7,15.87-16.93,15.42c-8.23-.45-18.83-6.7-18.12-19.64Z"/><path class="cls-6" d="m-34.21-4.16c.58-10.67,10.14-17.06,18.97-16.58C-6.41-20.26,2.19-12.83,1.61-2.01,1.02,8.81-9.04,15.02-16.9,14.59c-7.86-.43-17.98-6.4-17.31-18.75Z"/></g></g><g><g class="cls-7"><g><g><path class="cls-3" d="m1.8,5.74c2.54-.88,5.26-1.39,8.09-1.45"/><path class="cls-3" d="m-6.17,10.15c2.09-1.7,4.47-3.11,7.1-4.13"/><path class="cls-3" d="m19.72,6.07c2.52.96,4.92,2.31,7.13,4.09"/><path class="cls-3" d="m10.79,4.32c2.69.04,5.42.49,8.1,1.4"/></g><path class="cls-3" d="m32.83,17.04l.56-.74c-1.38-2.22-3.06-4.2-4.99-5.92l-.88.39-.42.19c-.34.34-.68.67-1.01,1.01-.19.19-1.09,1.1-1.25,1.27l-.12.12c-.16.16-.16.43,0,.61.31.35.91.08.89-.4,0-.03.05-.04.05,0,.06.55-.63.89-1.04.51-.24-.21-.27-.6-.07-.84l.11-.14.23-.27,1.82-2.19.41-1.32.02-.06-.28.9.27-.88c-2.06-1.61-4.31-2.9-6.71-3.86l-.69.66-.33.32c-.2.43-.41.86-.6,1.3-.11.24-.65,1.41-.74,1.62l-.07.16c-.09.2,0,.46.21.57.41.22.88-.24.7-.68-.01-.03.03-.05.05-.02.24.5-.29,1.06-.8.84-.3-.11-.46-.47-.35-.77l.06-.17.12-.33.96-2.68-.07-1.38v-.06s.04.94.04.94l-.05-.92c-2.49-.81-5.04-1.26-7.63-1.33l-.42.86-.2.42c-.04.47-.09.95-.12,1.42-.02.26-.13,1.54-.15,1.78v.17c-.03.22.14.43.38.46.46.06.75-.53.42-.88-.02-.02.01-.06.04-.04.4.39.09,1.09-.46,1.06-.32,0-.59-.29-.6-.6v-.18s0-.36,0-.36v-2.85s-.55-1.27-.55-1.27l-.02-.05.37.87-.36-.85c-2.61.09-5.17.54-7.62,1.36l-.1.95-.05.46c.12.46.24.92.37,1.38.07.26.41,1.49.47,1.72l.05.17c.06.22.29.35.53.3.46-.1.52-.75.1-.97-.03-.01,0-.06.02-.05.51.23.46.99-.07,1.15-.3.1-.66-.07-.77-.36l-.06-.17-.12-.33-.99-2.67-.94-1.01-.04-.04.64.69-.63-.68c-2.43.98-4.67,2.28-6.7,3.89l.23.93.11.45c.27.39.54.78.82,1.17.15.22.9,1.26,1.03,1.46l.1.14c.13.18.4.23.6.1.4-.25.24-.88-.24-.94-.03,0-.03-.05,0-.05.55.04.77.78.32,1.11-.25.2-.64.16-.84-.08l-.12-.14-.23-.27-1.84-2.17-1.23-.63-.05-.03.84.43-.82-.42c-1.95,1.75-3.61,3.74-4.97,5.94l.53.8.26.38c.39.27.78.55,1.17.82.22.15,1.27.88,1.47,1.02l.14.1c.18.13.45.08.6-.11.29-.37-.08-.91-.55-.8-.03,0-.04-.04-.01-.05.53-.15.99.47.68.93-.16.27-.54.37-.82.21l-.16-.09-.31-.18-2.47-1.41-1.37-.17h-.06s.94.11.94.11l-.92-.11c-1.23,2.31-2.11,4.75-2.63,7.28l.77.56.37.27c.46.12.92.25,1.38.37.26.07,1.5.39,1.73.45l.17.04c.22.06.45-.08.52-.31.14-.44-.39-.83-.79-.57-.03.02-.06-.02-.03-.04.45-.33,1.09.1.96.64-.06.31-.38.53-.7.48l-.18-.03-.35-.06-2.81-.48-1.35.31h-.06s.92-.2.92-.2l-.9.21c-.37,2.59-.36,5.18.01,7.74l.92.27.45.13c.47-.04.95-.08,1.42-.13.26-.02,1.54-.14,1.78-.17l.17-.02c.22-.02.4-.23.39-.47-.02-.47-.65-.65-.94-.26-.02.03-.06,0-.04-.03.31-.46,1.06-.28,1.12.27.05.31-.18.63-.49.69l-.18.03-.35.06-2.8.51-1.16.75-.05.03.79-.51-.78.5c.54,2.56,1.43,4.99,2.66,7.27l.96-.06.46-.03c.43-.2.87-.4,1.29-.6.24-.11,1.4-.66,1.61-.76l.16-.07c.2-.1.3-.35.21-.57-.18-.43-.83-.39-.97.07,0,.03-.06.02-.05-.01.13-.54.9-.62,1.15-.13.15.28.05.66-.22.82l-.15.09-.31.18-2.46,1.43-.83,1.1-.04.05.57-.75-.56.74c1.38,2.22,3.06,4.2,4.99,5.92l.88-.39.42-.19c.34-.34.68-.67,1.01-1.01.19-.19,1.09-1.1,1.25-1.27l.12-.12c.16-.16.16-.43,0-.61-.31-.35-.91-.08-.89.4,0,.03-.05.04-.05,0-.06-.55.63-.89,1.04-.51.24.21.27.6.07.84l-.11.14-.23.27-1.82,2.19-.41,1.32-.02.06.28-.9-.27.88c2.06,1.61,4.31,2.9,6.71,3.86l.69-.66.33-.32c.2-.43.41-.86.6-1.3.11-.24.65-1.41.74-1.62l.07-.16c.09-.2,0-.46-.21-.57-.41-.22-.88.24-.7.68.01.03-.03.05-.05.02-.24-.5.29-1.06.8-.84.3.11.46.47.35.77l-.06.17-.12.33-.96,2.68.07,1.38v.06s-.04-.94-.04-.94l.05.92c2.49.81,5.04,1.26,7.63,1.33l.42-.86.2-.42c.04-.47.09-.95.12-1.42.02-.26.13-1.54.15-1.78v-.17c.03-.22-.14-.43-.38-.46-.46-.06-.75.53-.42.88.02.02-.01.06-.04.04-.4-.39-.09-1.09.46-1.06.32,0,.59.29.6.6v.18s0,.36,0,.36v2.85s.55,1.27.55,1.27l.02.05-.37-.87.36.85c2.61-.09,5.17-.54,7.62-1.36l.1-.95.05-.46c-.12-.46-.24-.92-.37-1.38-.07-.26-.41-1.49-.47-1.72l-.05-.17c-.06-.22-.29-.35-.53-.3-.46.1-.52.75-.1.97.03.01,0,.06-.02.05-.51-.23-.46-.99.07-1.15.3-.1.66.07.77.36l.06.17.12.33.99,2.67.94,1.01.04.04-.64-.69.63.68c2.43-.98,4.67-2.28,6.7-3.89l-.23-.93-.11-.45c-.27-.39-.54-.78-.82-1.17-.15-.22-.9-1.26-1.03-1.46l-.1-.14c-.13-.18-.4-.23-.6-.1-.4.25-.24.88.24.94.03,0,.03.05,0,.05-.55-.04-.77-.78-.32-1.11.25-.2.64-.16.84.08l.12.14.23.27,1.84,2.17,1.23.63.05.03-.84-.43.82.42c1.95-1.75,3.61-3.74,4.97-5.94l-.53-.8-.26-.38c-.39-.27-.78-.55-1.17-.82-.22-.15-1.27-.88-1.47-1.02l-.14-.1c-.18-.13-.45-.08-.6.11-.29.37.08.91.55.8.03,0,.04.04.01.05-.53.15-.99-.47-.68-.93.16-.27.54-.37.82-.21l.16.09.31.18,2.47,1.41,1.37.17h.06s-.94-.11-.94-.11l.92.11c1.23-2.31,2.11-4.75,2.63-7.28l-.77-.56-.37-.27c-.46-.12-.92-.25-1.38-.37-.26-.07-1.5-.39-1.73-.45l-.17-.04c-.22-.06-.45.08-.52.31-.14.44.39.83.79.57.03-.02.06.02.03.04-.45.33-1.09-.1-.96-.64.06-.31.38-.53.7-.48l.18.03.35.06,2.81.48,1.35-.31h.06s-.92.2-.92.2l.9-.21c.37-2.59.36-5.18-.01-7.74l-.92-.27-.45-.13c-.47.04-.95.08-1.42.13-.26.02-1.54.14-1.78.17l-.17.02c-.22.02-.4.23-.39.47.02.47.65.65.94.26.02-.03.06,0,.04.03-.31.46-1.06.28-1.12-.27-.05-.31.18-.63.49-.69l.18-.03.35-.06,2.8-.51,1.16-.75.05-.03-.79.51.78-.5c-.54-2.56-1.43-4.99-2.66-7.27l-.96.06-.46.03c-.43.2-.87.4-1.29.6-.24.11-1.4.66-1.61.76l-.16.07c-.2.1-.3.35-.21.57.18.43.83.39.97-.07,0-.03.06-.02.05.01-.13.54-.9.62-1.15.13-.15-.28-.05-.66.22-.82l.15-.09.31-.18,2.46-1.43.83-1.1.04-.05"/></g><text class="cls-10" transform="translate(3.84 18.11)"><tspan x="0" y="0">L</tspan><tspan class="cls-1" x="2.77" y="0">A</tspan><tspan class="cls-9" x="6.26" y="0">C</tspan><tspan x="9.54" y="0">C</tspan></text></g><path class="cls-11" d="m19.94,1.06v18.89H1.06V1.06h18.89M21,0H0v21h21V0h0Z"/></g><g class="cls-2"><g><path class="cls-5" d="m-24.71,6.83c1.65-.48,2.96-.73,3.84-.85,1.45-.21,3.37-.34,3.83-.37l.08,1.49c0,.06.05.11.11.11h.65s0,0,0,0v2.03s0,0,0,0c0,.17.14.3.31.3.17,0,.31-.14.31-.3v-2.03s.65,0,.65,0c.06,0,.11-.05.11-.11l.08-1.48c1.72.05,3.04.22,3.92.37,1.44.25,3.31.71,3.76.83l-.39,1.44c-.02.06.01.12.07.14l.62.2h0s-.63,1.93-.63,1.93h0c-.05.16.04.33.2.38.16.05.33-.04.39-.2l.63-1.93.62.2c.06.02.12-.01.14-.07l.53-1.39c1.62.57,2.82,1.15,3.61,1.56,1.29.68,2.92,1.7,3.32,1.94l-.82,1.25s-.02.12.02.15l.53.38h0s-1.2,1.65-1.2,1.65h0c-.1.14-.07.33.07.43.14.1.33.07.43-.07l1.2-1.64.53.38s.12.02.15-.02l.94-1.16h0c1.36,1.04,2.33,1.96,2.95,2.6,1.02,1.05,2.25,2.51,2.55,2.87l-1.16.93s-.06.1-.02.15l.38.52h0s-1.65,1.2-1.65,1.2h0c-.14.1-.17.29-.07.42.1.14.29.17.43.07l1.65-1.19.38.53s.1.06.15.02l1.25-.81c.97,1.41,1.61,2.58,2,3.37.64,1.31,1.36,3.08,1.54,3.51l-1.4.53c-.06.02-.09.08-.07.14l.2.62h0s-1.94.63-1.94.63h0c-.16.05-.25.22-.2.38.05.16.23.25.39.2l1.95-.63.2.62c.02.06.08.09.14.07l1.44-.39c.49,1.64.73,2.94.85,3.83.21,1.44.34,3.35.37,3.81l-1.49.08c-.06,0-.11.05-.11.11v.65s0,0,0,0h-2.04s0,0,0,0c-.17,0-.31.14-.31.3,0,.17.14.3.31.3h2.04s0,.65,0,.65c0,.06.05.11.11.11l1.49.08c-.05,1.71-.22,3.02-.38,3.9-.25,1.43-.72,3.29-.83,3.74l-1.44-.39c-.06-.02-.12.01-.14.07l-.2.62h0s-1.94-.63-1.94-.63h0c-.16-.05-.33.03-.39.19-.05.16.04.33.2.38l1.94.63-.2.62c-.02.06.01.12.07.14l1.4.53c-.57,1.61-1.15,2.81-1.57,3.59-.68,1.29-1.7,2.91-1.95,3.3l-1.25-.81s-.12-.02-.15.02l-.38.52h0s-1.65-1.19-1.65-1.19h0c-.14-.1-.33-.07-.43.07-.1.14-.07.33.07.43l1.65,1.2-.38.53s-.02.12.02.15l1.16.93c-1.05,1.35-1.97,2.32-2.61,2.94-1.05,1.01-2.52,2.24-2.88,2.54l-.94-1.16s-.1-.06-.15-.02l-.53.38h0s-1.2-1.64-1.2-1.64h0c-.1-.14-.29-.17-.43-.07-.14.1-.17.29-.07.43l1.2,1.65-.53.38s-.06.1-.02.15l.82,1.25c-1.42.97-2.59,1.6-3.39,1.99-1.31.64-3.1,1.36-3.53,1.53l-.53-1.39c-.02-.06-.08-.09-.14-.07l-.62.2h0s-.63-1.93-.63-1.93h0c-.05-.16-.23-.25-.39-.2-.16.05-.25.22-.2.38l.63,1.93-.62.2c-.06.02-.09.08-.07.14l.39,1.44c-1.65.48-2.96.72-3.84.85-1.45.21-3.37.34-3.83.37l-.08-1.49c0-.06-.05-.11-.11-.11h-.65s0,0,0,0v-2.03s0,0,0,0c0-.17-.14-.3-.31-.3-.17,0-.31.14-.31.3v2.03s-.65,0-.65,0c-.06,0-.11.05-.11.11l-.08,1.48c-1.72-.05-3.04-.22-3.92-.37-1.44-.25-3.31-.71-3.76-.83l.39-1.44c.02-.06-.01-.12-.07-.14l-.62-.2h0s.63-1.93.63-1.93h0c.05-.16-.04-.33-.2-.38-.16-.05-.33.04-.39.2l-.63,1.93-.62-.2c-.06-.02-.12.01-.14.07l-.53,1.38c-1.62-.57-2.82-1.14-3.61-1.56-1.29-.68-2.92-1.7-3.32-1.94l.82-1.25s.02-.12-.02-.15l-.53-.38h0s1.2-1.65,1.2-1.65h0c.1-.14.07-.33-.07-.43-.14-.1-.33-.07-.43.07l-1.2,1.64-.53-.38s-.12-.02-.15.02l-.93,1.15c-1.36-1.04-2.33-1.95-2.95-2.59-1.02-1.05-2.25-2.51-2.55-2.87l1.16-.93s.06-.1.02-.15l-.38-.52h0s1.65-1.2,1.65-1.2h0c.14-.1.17-.29.07-.42-.1-.14-.29-.17-.43-.07l-1.65,1.19-.38-.53s-.1-.06-.15-.02l-1.25.81c-.97-1.41-1.61-2.57-2-3.37-.64-1.31-1.36-3.08-1.54-3.51l1.4-.53c.06-.02.09-.08.07-.14l-.2-.62h0s1.94-.63,1.94-.63h0c.16-.05.25-.22.2-.38-.05-.16-.23-.25-.39-.2l-1.95.63-.2-.62c-.02-.06-.08-.09-.14-.07l-1.44.38c-.49-1.64-.73-2.94-.86-3.82-.21-1.44-.34-3.35-.37-3.81l1.49-.08c.06,0,.11-.05.11-.11v-.65s0,0,0,0h2.04s0,0,0,0c.17,0,.31-.14.31-.3,0-.17-.14-.3-.31-.3h-2.04s0-.65,0-.65c0-.06-.05-.11-.11-.11l-1.49-.08c.05-1.71.22-3.02.37-3.9.25-1.43.72-3.29.83-3.74l1.44.39c.06.02.12-.01.14-.07l.2-.62h0s1.94.63,1.94.63h0c.16.05.33-.03.39-.19.05-.16-.04-.33-.2-.38l-1.94-.63.2-.62c.02-.06-.01-.12-.07-.14l-1.4-.53c.57-1.61,1.15-2.81,1.57-3.59.68-1.29,1.7-2.91,1.95-3.3l1.25.81s.12.02.15-.02l.38-.52h0s1.65,1.19,1.65,1.19h0c.14.1.33.07.43-.07.1-.14.07-.33-.07-.43l-1.65-1.2.38-.53s.02-.12-.02-.15l-1.16-.93c1.05-1.35,1.96-2.32,2.61-2.94,1.05-1.01,2.52-2.24,2.88-2.54l.94,1.16s.1.06.15.02l.53-.38h0s1.2,1.64,1.2,1.64h0c.1.14.29.17.43.07.14-.1.17-.29.07-.43l-1.2-1.65.53-.38s.06-.1.02-.15l-.81-1.24c1.42-.97,2.59-1.6,3.39-1.99,1.31-.64,3.1-1.36,3.53-1.53l.53,1.39c.02.06.08.09.14.07l.62-.2h0s.63,1.93.63,1.93h0c.05.16.23.25.39.2.16-.05.25-.22.2-.38l-.63-1.93.62-.2c.06-.02.09-.08.07-.14l-.39-1.43Z"/><path class="cls-5" d="m14.27,26.52c-.05-.12,0-.27.11-.35,0,0,0,0,.01,0h0s.02-.01.02-.01l1.67-1.08c-.82-2.08-1.83-4.07-3.06-5.96l-1.94.65s-.02,0-.03,0c-.1.02-.21,0-.28-.08"/><path class="cls-5" d="m9.38,17.8c-.08-.1-.09-.25,0-.37,0,0,0,0,0-.01h0s.01-.02.01-.02l1.26-1.54c-1.42-1.73-3.01-3.31-4.76-4.73l-1.64,1.21s-.02.01-.03.02c-.09.05-.2.06-.3,0"/><path class="cls-5" d="m2.01,11c-.11-.07-.16-.21-.12-.35,0,0,0,0,0-.01h0s0-.02,0-.02l.72-1.85c-1.89-1.21-3.89-2.22-6-3.04l-1.19,1.66s-.01.02-.02.03c-.07.08-.17.12-.28.1"/></g></g></svg>